STARTFONT 2.1
COMMENT
COMMENT Converted from OpenType font "Q:\font stuff\winfont\TeutonNormal.otf" by "otf2bdf 3.0".
COMMENT
FONT -FreeType-Teuton Normal-Medium-R-Normal--96-960-72-72-P-345-ISO10646-1
SIZE 96 72 72
FONTBOUNDINGBOX 87 103 -4 -22
STARTPROPERTIES 19
FOUNDRY "FreeType"
FAMILY_NAME "Teuton Normal"
WEIGHT_NAME "Medium"
SLANT "R"
SETWIDTH_NAME "Normal"
ADD_STYLE_NAME ""
PIXEL_SIZE 96
POINT_SIZE 960
RESOLUTION_X 72
RESOLUTION_Y 72
SPACING "P"
AVERAGE_WIDTH 345
CHARSET_REGISTRY "ISO10646"
CHARSET_ENCODING "1"
FONT_ASCENT 81
FONT_DESCENT 21
COPYRIGHT "Copyright Copr. 2001, Frantisek Storm, www.stormtype.com. All rights reserved."
_OTF_FONTFILE "Q:\font stuff\winfont\TeutonNormal.otf"
_OTF_PSNAME "TeutonNormal"
ENDPROPERTIES
CHARS 356
STARTCHAR 0020
ENCODING 32
SWIDTH 260 0
DWIDTH 25 0
BBX 0 0 0 0
BITMAP
ENDCHAR
STARTCHAR 0021
ENCODING 33
SWIDTH 208 0
DWIDTH 20 0
BBX 9 67 5 1
BITMAP
FF80
FF80
FF80
FF80
FF80
FF80
FF80
FF80
FF80
FF80
FF80
FF80
FF80
FF80
FF80
FF80
FF80
FF80
FF80
FF80
FF80
FF80
FF80
FF80
FF80
FF80
FF80
FF80
FF80
FF80
FF80
FF80
FF80
FF80
FF80
FF80
FF80
FF80
FF80
FF80
FF80
FF80
FF80
FF80
FF80
FF80
FF80
FF80
FF80
FF80
FF80
0000
0000
0000
0000
0000
0000
FF80
FF80
FF80
FF80
FF80
FF80
FF80
FF80
FF80
FF80
ENDCHAR
STARTCHAR 0022
ENCODING 34
SWIDTH 312 0
DWIDTH 30 0
BBX 19 17 6 50
BITMAP
FE0FE0
FE0FE0
FE0FE0
FE0FE0
FE0FE0
FE0FE0
FE0FE0
FE0FE0
FE0FE0
FE0FE0
FE0FE0
FE0FE0
FE0FE0
FE0FE0
FC0FE0
FC0FE0
FC07E0
ENDCHAR
STARTCHAR 0023
ENCODING 35
SWIDTH 531 0
DWIDTH 51 0
BBX 46 67 2 1
BITMAP
0003FE000FF0
0003FC000FF0
0003FC001FF0
0003FC001FF0
0007FC001FF0
0007FC001FE0
0007FC001FE0
0007F8003FE0
0007F8003FE0
000FF8003FE0
000FF8003FE0
000FF8003FC0
000FF8003FC0
000FF0007FC0
000FF0007FC0
001FF0007FC0
001FF0007F80
001FF0007F80
001FE0007F80
0FFFFFFFFFFC
0FFFFFFFFFFC
0FFFFFFFFFFC
0FFFFFFFFFFC
0FFFFFFFFFFC
0FFFFFFFFFFC
0FFFFFFFFFFC
007FC001FF00
007FC001FE00
007FC001FE00
007F8001FE00
007F8003FE00
007F8003FE00
00FF8003FE00
00FF8003FC00
00FF8003FC00
00FF0003FC00
00FF0007FC00
00FF0007FC00
01FF0007FC00
01FF0007F800
01FF0007F800
01FE000FF800
01FE000FF800
03FE000FF800
FFFFFFFFFFC0
FFFFFFFFFFC0
FFFFFFFFFFC0
FFFFFFFFFFC0
FFFFFFFFFFC0
FFFFFFFFFFC0
FFFFFFFFFFC0
07F8001FE000
07F8003FE000
07F8003FE000
0FF8003FE000
0FF8003FC000
0FF8003FC000
0FF0003FC000
0FF0007FC000
0FF0007FC000
1FF0007FC000
1FF0007F8000
1FF0007F8000
1FE0007F8000
1FE000FF8000
1FE000FF8000
3FE000FF8000
ENDCHAR
STARTCHAR 0024
ENCODING 36
SWIDTH 416 0
DWIDTH 40 0
BBX 30 67 5 1
BITMAP
000FF000
000FF000
000FF000
000FF000
000FF000
000FF000
000FF000
000FF000
000FF000
07FFFFFC
1FFFFFFC
3FFFFFFC
7FFFFFFC
7FFFFFFC
FFFFFFFC
FFFFFFFC
FFFFFFFC
FFC00004
FF800000
FF800000
FF800000
FF800000
FF800000
FFC00000
FFE00000
7FF80000
7FFE0000
3FFF0000
3FFFC000
0FFFF000
07FFF800
01FFFE00
007FFF00
003FFFC0
000FFFF0
0007FFF0
0001FFF8
00007FF8
00003FFC
00000FFC
000007FC
000007FC
000007FC
000007FC
000007FC
000007FC
000007FC
000007FC
80000FFC
FFFFFFFC
FFFFFFFC
FFFFFFFC
FFFFFFF8
FFFFFFF8
FFFFFFF0
FFFFFFE0
FFFFFF80
000FF000
000FF000
000FF000
000FF000
000FF000
000FF000
000FF000
000FF000
000FF000
000FF000
ENDCHAR
STARTCHAR 0025
ENCODING 37
SWIDTH 635 0
DWIDTH 61 0
BBX 52 67 4 0
BITMAP
03FF000003FE00
0FFFE00003FE00
3FFFF00007FC00
3FFFF80007FC00
7FFFF8000FF800
7FFFF8000FF800
FFFFFC001FF000
FE01FC001FF000
FC00FC003FE000
FC00FC003FE000
FC00FC007FC000
FC00FC007FC000
FC00FC00FF8000
FC00FC00FF8000
FC00FC01FF0000
FC00FC01FF0000
FC00FC03FE0000
FC00FC03FE0000
FC00FC07FC0000
FC00FC07FC0000
FC00FC0FF80000
FC00FC0FF80000
FC00FC1FF00000
FC00FC1FF00000
FE01FC3FE00000
FF03FC3FE00000
FFFFFC7FC00000
7FFFF87FC00000
7FFFF8FF800000
3FFFF0FF800000
3FFFF1FF000000
1FFFC1FF000000
03FF03FE000000
000003FE07FE00
000007FC1FFF80
000007FC7FFFC0
00000FF87FFFC0
00000FF8FFFFE0
00001FF0FFFFE0
00001FF1FFFFF0
00003FE1FC0FF0
00003FE1FC07F0
00007FC1F803F0
00007FC1F803F0
0000FF81F803F0
0000FF81F803F0
0001FF01F803F0
0001FF01F803F0
0003FE01F803F0
0003FE01F803F0
0007FC01F803F0
000FFC01F803F0
000FF801F803F0
001FF801F803F0
001FF001F803F0
003FF001F803F0
003FE001F803F0
007FE001F803F0
007FC001F803F0
00FFC001FC07F0
00FF8001FFFFF0
01FF8000FFFFE0
01FF0000FFFFE0
03FF00007FFFC0
03FE00007FFFC0
07FE00003FFF00
07FC00000FFC00
ENDCHAR
STARTCHAR 0026
ENCODING 38
SWIDTH 666 0
DWIDTH 64 0
BBX 53 67 7 0
BITMAP
03FFFFFFE00000
0FFFFFFFE00000
1FFFFFFFE00000
3FFFFFFFE00000
7FFFFFFFE00000
7FFFFFFFE00000
7FFFFFFFE00000
FFFFFFFFE00000
FFE00000600000
FFC00000000000
FF800000000000
FF800000000000
FF800000000000
FF800000000000
FF800000000000
FF800000000000
FF800000000000
FF800000002000
FF800000006000
FF80000000E000
FF80000003E000
FF80000007E000
7FC000000FE000
7FC000001FE000
3FFFFFFFFFFFF8
1FFFFFFFFFFFF8
0FFFFFFFFFFFF8
007FFFFFFFFFF8
07FFFFFFFFFFF8
1FFFFFFFFFFFF8
3FFFFFFFFFFFF8
7FFFFFFFFFFFF8
7FC000003FE000
7FC000003FE000
FF8000003FE000
FF8000003FE000
FF8000003FE000
FF8000003FE000
FF8000003FE000
FF8000003FE000
FF8000003FE000
FF8000003FE000
FF8000003FE000
FF8000003FE000
FF8000003FE000
FF8000003FE000
FF8000003FE000
FF8000003FE000
FF8000003FE000
FF8000003FE000
FF8000003FE000
FF8000003FE000
FF8000003FE000
FF8000003FE000
FF8000003FE000
FF8000003FE000
FF8000003FE000
FFC000003FE000
FFE000003FF000
FFFFFFF03FFFF8
7FFFFFF03FFFF8
7FFFFFF01FFFF8
7FFFFFF01FFFF8
3FFFFFF00FFFF8
1FFFFFF00FFFF8
0FFFFFF003FFF8
03FFFFF000FFF8
ENDCHAR
STARTCHAR 0027
ENCODING 39
SWIDTH 208 0
DWIDTH 20 0
BBX 7 16 6 51
BITMAP
FE
FE
FE
FE
FE
FE
FE
FE
FE
FE
FE
FE
FE
FE
FE
FE
ENDCHAR
STARTCHAR 0028
ENCODING 40
SWIDTH 322 0
DWIDTH 31 0
BBX 20 86 7 -19
BITMAP
0007F0
007FF0
03FFF0
07FFF0
0FFFF0
1FFFF0
3FFFF0
3FFFF0
7FFE00
7FF000
7FC000
7FC000
FF8000
FF8000
FF8000
FF8000
FF8000
FF8000
FF8000
FF8000
FF8000
FF8000
FF8000
FF8000
FF8000
FF8000
FF8000
FF8000
FF8000
FF8000
FF8000
FF8000
FF8000
FF8000
FF8000
FF8000
FF8000
FF8000
FF8000
FF8000
FF8000
FF8000
FF8000
FF8000
FF8000
FF8000
FF8000
FF8000
FF8000
FF8000
FF8000
FF8000
FF8000
FF8000
FF8000
FF8000
FF8000
FF8000
FF8000
FF8000
FF8000
FF8000
FF8000
FF8000
FF8000
FF8000
FF8000
FF8000
FF8000
FF8000
FF8000
FF8000
FF8000
FF8000
FFC000
7FC000
7FF000
7FFC00
3FFFF0
3FFFF0
1FFFF0
0FFFF0
07FFF0
03FFF0
00FFF0
000FF0
ENDCHAR
STARTCHAR 0029
ENCODING 41
SWIDTH 322 0
DWIDTH 31 0
BBX 20 86 4 -19
BITMAP
FF0000
FFF000
FFFC00
FFFE00
FFFF00
FFFF80
FFFFC0
FFFFC0
0FFFE0
00FFE0
003FE0
003FF0
001FF0
001FF0
001FF0
001FF0
001FF0
001FF0
001FF0
001FF0
001FF0
001FF0
001FF0
001FF0
001FF0
001FF0
001FF0
001FF0
001FF0
001FF0
001FF0
001FF0
001FF0
001FF0
001FF0
001FF0
001FF0
001FF0
001FF0
001FF0
001FF0
001FF0
001FF0
001FF0
001FF0
001FF0
001FF0
001FF0
001FF0
001FF0
001FF0
001FF0
001FF0
001FF0
001FF0
001FF0
001FF0
001FF0
001FF0
001FF0
001FF0
001FF0
001FF0
001FF0
001FF0
001FF0
001FF0
001FF0
001FF0
001FF0
001FF0
001FF0
001FF0
001FF0
003FF0
003FE0
007FE0
03FFE0
FFFFC0
FFFFC0
FFFF80
FFFF00
FFFE00
FFFC00
FFE000
FE0000
ENDCHAR
STARTCHAR 002A
ENCODING 42
SWIDTH 437 0
DWIDTH 42 0
BBX 31 29 5 38
BITMAP
000FE000
000FE000
000FE000
000FE000
000FE000
0007E000
0007C000
2007C008
3C07C078
7F07C1FC
7FE7C7FC
7FFFFFFC
FFFFFFFE
FFFFFFFE
0FFFFFE0
00FFFE00
001FF000
003FF800
003FF800
007EFC00
00FEFE00
01FC7F00
03FC7F80
07F83FC0
07F01FE0
0FF01FE0
03E00F80
01E00700
00C00600
ENDCHAR
STARTCHAR 002B
ENCODING 43
SWIDTH 468 0
DWIDTH 45 0
BBX 33 33 6 11
BITMAP
0007F00000
0007F00000
0007F00000
0007F00000
0007F00000
0007F00000
0007F00000
0007F00000
0007F00000
0007F00000
0007F00000
0007F00000
0007F00000
FFFFFFFF80
FFFFFFFF80
FFFFFFFF80
FFFFFFFF80
FFFFFFFF80
FFFFFFFF80
FFFFFFFF80
0007F00000
0007F00000
0007F00000
0007F00000
0007F00000
0007F00000
0007F00000
0007F00000
0007F00000
0007F00000
0007F00000
0007F00000
0007F00000
ENDCHAR
STARTCHAR 002C
ENCODING 44
SWIDTH 218 0
DWIDTH 21 0
BBX 13 24 3 -14
BITMAP
0FF8
0FF8
0FF8
0FF8
0FF8
0FF8
0FF8
0FF8
0FF8
0FF8
1FF0
1FF0
1FF0
1FE0
1FE0
3FE0
3FE0
3FC0
3FC0
7FC0
7F80
7F80
7F80
FF00
ENDCHAR
STARTCHAR 002D
ENCODING 45
SWIDTH 302 0
DWIDTH 29 0
BBX 19 8 5 24
BITMAP
FFFFE0
FFFFE0
FFFFE0
FFFFE0
FFFFE0
FFFFE0
FFFFE0
FFFFE0
ENDCHAR
STARTCHAR 002E
ENCODING 46
SWIDTH 208 0
DWIDTH 20 0
BBX 9 10 5 0
BITMAP
FF80
FF80
FF80
FF80
FF80
FF80
FF80
FF80
FF80
FF80
ENDCHAR
STARTCHAR 002F
ENCODING 47
SWIDTH 447 0
DWIDTH 43 0
BBX 43 86 0 -19
BITMAP
000000007FE0
00000000FFC0
00000000FFC0
00000000FFC0
00000001FF80
00000001FF80
00000003FF00
00000003FF00
00000003FF00
00000007FE00
00000007FE00
00000007FE00
0000000FFC00
0000000FFC00
0000001FF800
0000001FF800
0000001FF800
0000003FF000
0000003FF000
0000003FF000
0000007FE000
0000007FE000
000000FFC000
000000FFC000
000000FFC000
000001FF8000
000001FF8000
000003FF0000
000003FF0000
000003FF0000
000007FE0000
000007FE0000
000007FE0000
00000FFC0000
00000FFC0000
00001FF80000
00001FF80000
00001FF80000
00003FF00000
00003FF00000
00007FE00000
00007FE00000
00007FE00000
0000FFC00000
0000FFC00000
0000FFC00000
0001FF800000
0001FF800000
0003FF000000
0003FF000000
0003FF000000
0007FE000000
0007FE000000
0007FE000000
000FFC000000
000FFC000000
001FF8000000
001FF8000000
001FF8000000
003FF0000000
003FF0000000
007FE0000000
007FE0000000
007FE0000000
00FFC0000000
00FFC0000000
00FFC0000000
01FF80000000
01FF80000000
03FF00000000
03FF00000000
03FF00000000
07FE00000000
07FE00000000
0FFE00000000
0FFC00000000
0FFC00000000
1FF800000000
1FF800000000
1FF800000000
3FF000000000
3FF000000000
7FE000000000
7FE000000000
7FE000000000
FFC000000000
ENDCHAR
STARTCHAR 0030
ENCODING 48
SWIDTH 520 0
DWIDTH 50 0
BBX 36 67 7 0
BITMAP
01FFFFFC00
0FFFFFFF00
1FFFFFFF80
3FFFFFFFC0
7FFFFFFFE0
7FFFFFFFE0
7FFFFFFFE0
FFFFFFFFF0
FFF000FFF0
FFC0003FF0
FF80001FF0
FF80001FF0
FF80001FF0
FF80001FF0
FF80001FF0
FF80001FF0
FF80001FF0
FF80001FF0
FF80001FF0
FF80001FF0
FF80001FF0
FF80001FF0
FF80001FF0
FF80001FF0
FF80001FF0
FF80001FF0
FF80001FF0
FF80001FF0
FF80001FF0
FF80001FF0
FF80001FF0
FF80001FF0
FF80001FF0
FF80001FF0
FF80001FF0
FF80001FF0
FF80001FF0
FF80001FF0
FF80001FF0
FF80001FF0
FF80001FF0
FF80001FF0
FF80001FF0
FF80001FF0
FF80001FF0
FF80001FF0
FF80001FF0
FF80001FF0
FF80001FF0
FF80001FF0
FF80001FF0
FF80001FF0
FF80001FF0
FF80001FF0
FF80001FF0
FF80001FF0
FF80001FF0
FFC0003FF0
FFF000FFF0
FFFFFFFFF0
7FFFFFFFE0
7FFFFFFFE0
7FFFFFFFE0
3FFFFFFFC0
1FFFFFFF80
0FFFFFFF00
03FFFFF800
ENDCHAR
STARTCHAR 0031
ENCODING 49
SWIDTH 520 0
DWIDTH 50 0
BBX 33 69 9 1
BITMAP
0000040000
00001C0000
00007C0000
0000FC0000
0003FC0000
000FFC0000
001FFC0000
007FFC0000
00FFFC0000
03FFFC0000
0FFFFC0000
1FFFFC0000
7FFFFC0000
FFFFFC0000
FFFFFC0000
FFE7FC0000
FFC7FC0000
FF07FC0000
FE07FC0000
F807FC0000
F007FC0000
C007FC0000
8007FC0000
0007FC0000
0007FC0000
0007FC0000
0007FC0000
0007FC0000
0007FC0000
0007FC0000
0007FC0000
0007FC0000
0007FC0000
0007FC0000
0007FC0000
0007FC0000
0007FC0000
0007FC0000
0007FC0000
0007FC0000
0007FC0000
0007FC0000
0007FC0000
0007FC0000
0007FC0000
0007FC0000
0007FC0000
0007FC0000
0007FC0000
0007FC0000
0007FC0000
0007FC0000
0007FC0000
0007FC0000
0007FC0000
0007FC0000
0007FC0000
0007FC0000
0007FC0000
0007FC0000
0007FC0000
3FFFFFFF80
3FFFFFFF80
3FFFFFFF80
3FFFFFFF80
3FFFFFFF80
3FFFFFFF80
3FFFFFFF80
3FFFFFFF80
ENDCHAR
STARTCHAR 0032
ENCODING 50
SWIDTH 520 0
DWIDTH 50 0
BBX 35 67 8 0
BITMAP
FFFFFFF800
FFFFFFFE00
FFFFFFFF00
FFFFFFFF80
FFFFFFFFC0
FFFFFFFFC0
FFFFFFFFC0
FFFFFFFFE0
F00001FFE0
0000007FE0
0000003FE0
0000003FE0
0000003FE0
0000003FE0
0000003FE0
0000003FE0
0000003FE0
0000003FE0
0000003FE0
0000007FE0
000000FFE0
000001FFC0
000003FFC0
000007FF80
00000FFF80
00001FFF00
00003FFE00
00007FFC00
0001FFF800
0003FFF000
0007FFC000
000FFF8000
001FFF0000
003FFE0000
007FFC0000
00FFF80000
03FFF00000
07FFC00000
0FFF800000
1FFF000000
3FFE000000
3FFC000000
7FF8000000
7FF0000000
FFC0000000
FFC0000000
FF80000000
FF80000000
FF80000000
FF80000000
FF80000000
FF80000000
FF80000000
FF80000000
FF80000000
FF80000000
FF80000000
FF80000000
FF800000E0
FFFFFFFFE0
FFFFFFFFE0
FFFFFFFFE0
FFFFFFFFE0
FFFFFFFFE0
FFFFFFFFE0
FFFFFFFFE0
FFFFFFFFE0
ENDCHAR
STARTCHAR 0033
ENCODING 51
SWIDTH 520 0
DWIDTH 50 0
BBX 36 67 7 0
BITMAP
FFFFFFFC00
FFFFFFFF00
FFFFFFFF80
FFFFFFFFC0
FFFFFFFFE0
FFFFFFFFE0
FFFFFFFFE0
FFFFFFFFF0
C00000FFF0
0000003FF0
0000001FF0
0000001FF0
0000001FF0
0000001FF0
0000001FF0
0000001FF0
0000001FF0
0000001FF0
0000001FF0
0000001FF0
0000001FF0
0000001FF0
0000001FF0
0000001FF0
0000001FF0
0000001FF0
0000003FE0
0000007FE0
07FFFFFFC0
07FFFFFF80
07FFFFFF00
07FFFFFC00
07FFFFFC00
07FFFFFF00
07FFFFFF80
07FFFFFFC0
0000007FE0
0000003FE0
0000001FE0
0000001FF0
0000001FF0
0000001FF0
0000001FF0
0000001FF0
0000001FF0
0000001FF0
0000001FF0
0000001FF0
0000001FF0
0000001FF0
0000001FF0
0000001FF0
0000001FF0
0000001FF0
0000001FF0
0000001FF0
0000001FF0
0000003FF0
C00000FFF0
FFFFFFFFF0
FFFFFFFFE0
FFFFFFFFE0
FFFFFFFFE0
FFFFFFFFC0
FFFFFFFF80
FFFFFFFF00
FFFFFFF800
ENDCHAR
STARTCHAR 0034
ENCODING 52
SWIDTH 520 0
DWIDTH 50 0
BBX 44 67 4 1
BITMAP
000001FFC000
000001FFC000
000003FFC000
000003FFC000
000007FFC000
000007FFC000
00000FFFC000
00000FFFC000
00001FFFC000
00001FFFC000
00003FFFC000
00003FFFC000
00007FFFC000
0000FF7FC000
0000FF7FC000
0001FE7FC000
0001FE7FC000
0003FC7FC000
0003F87FC000
0007F87FC000
0007F07FC000
000FF07FC000
000FE07FC000
001FE07FC000
001FC07FC000
003FC07FC000
007F807FC000
007F007FC000
00FF007FC000
00FE007FC000
01FE007FC000
01FC007FC000
03FC007FC000
03F8007FC000
07F8007FC000
07F0007FC000
0FF0007FC000
0FE0007FC000
1FC0007FC000
1FC0007FC000
3F80007FC000
7F80007FC000
7FFFFFFFFFF0
FFFFFFFFFFF0
FFFFFFFFFFF0
FFFFFFFFFFF0
FFFFFFFFFFF0
FFFFFFFFFFF0
FFFFFFFFFFF0
FFFFFFFFFFF0
0000007FC000
0000007FC000
0000007FC000
0000007FC000
0000007FC000
0000007FC000
0000007FC000
0000007FC000
0000007FC000
0000007FC000
0000007FC000
0000007FC000
0000007FC000
0000007FC000
0000007FC000
0000007FC000
0000007FC000
ENDCHAR
STARTCHAR 0035
ENCODING 53
SWIDTH 520 0
DWIDTH 50 0
BBX 36 67 7 0
BITMAP
FFFFFFFFF0
FFFFFFFFF0
FFFFFFFFF0
FFFFFFFFF0
FFFFFFFFF0
FFFFFFFFF0
FFFFFFFFF0
FFFFFFFFF0
FF80000070
FF80000000
FF80000000
FF80000000
FF80000000
FF80000000
FF80000000
FF80000000
FF80000000
FF80000000
FF80000000
FF80000000
FF80000000
FF80000000
FF80000000
FF80000000
FF80000000
FF80000000
FF80000000
FF80000000
FFFFFFFC00
FFFFFFFF00
FFFFFFFF80
FFFFFFFFC0
FFFFFFFFE0
FFFFFFFFE0
FFFFFFFFF0
FFFFFFFFF0
0000007FF0
0000003FF0
0000001FF0
0000001FF0
0000001FF0
0000001FF0
0000001FF0
0000001FF0
0000001FF0
0000001FF0
0000001FF0
0000001FF0
0000001FF0
0000001FF0
0000001FF0
0000001FF0
0000001FF0
0000001FF0
0000001FF0
0000001FF0
0000001FF0
0000003FF0
E00000FFF0
FFFFFFFFF0
FFFFFFFFF0
FFFFFFFFE0
FFFFFFFFE0
FFFFFFFFC0
FFFFFFFF80
FFFFFFFF00
FFFFFFFC00
ENDCHAR
STARTCHAR 0036
ENCODING 54
SWIDTH 520 0
DWIDTH 50 0
BBX 36 67 7 0
BITMAP
01FFFFFFF0
0FFFFFFFF0
1FFFFFFFF0
3FFFFFFFF0
7FFFFFFFF0
7FFFFFFFF0
7FFFFFFFF0
FFFFFFFFF0
FFF0000070
FFC0000000
FF80000000
FF80000000
FF80000000
FF80000000
FF80000000
FF80000000
FF80000000
FF80000000
FF80000000
FF80000000
FF80000000
FF80000000
FF80000000
FF80000000
FF80000000
FF80000000
FF80000000
FF80000000
FFFFFFFC00
FFFFFFFF00
FFFFFFFF80
FFFFFFFFC0
FFFFFFFFE0
FFFFFFFFE0
FFFFFFFFF0
FFFFFFFFF0
FF80007FF0
FF80003FF0
FF80001FF0
FF80001FF0
FF80001FF0
FF80001FF0
FF80001FF0
FF80001FF0
FF80001FF0
FF80001FF0
FF80001FF0
FF80001FF0
FF80001FF0
FF80001FF0
FF80001FF0
FF80001FF0
FF80001FF0
FF80001FF0
FF80001FF0
FF80001FF0
FF80001FF0
FFC0003FF0
FFF000FFF0
FFFFFFFFF0
7FFFFFFFE0
7FFFFFFFE0
7FFFFFFFE0
3FFFFFFFC0
1FFFFFFF80
0FFFFFFF00
03FFFFF800
ENDCHAR
STARTCHAR 0037
ENCODING 55
SWIDTH 520 0
DWIDTH 50 0
BBX 39 67 6 0
BITMAP
FFFFFFFFFE
FFFFFFFFFE
FFFFFFFFFE
FFFFFFFFFE
FFFFFFFFFE
FFFFFFFFFE
FFFFFFFFFE
FFFFFFFFFE
00000007FC
00000007FC
0000000FFC
0000000FF8
0000000FF8
0000001FF8
0000001FF0
0000001FF0
0000003FE0
0000003FE0
0000007FE0
0000007FC0
0000007FC0
000000FFC0
000000FF80
000001FF80
000001FF00
000001FF00
000003FF00
000003FE00
000007FE00
000007FE00
000007FC00
00000FFC00
00000FF800
00000FF800
00001FF800
00001FF000
00003FF000
00003FF000
00003FE000
00007FE000
00007FC000
0000FFC000
0000FFC000
0000FF8000
0001FF8000
0001FF8000
0003FF0000
0003FF0000
0003FE0000
0007FE0000
0007FE0000
0007FC0000
000FFC0000
000FFC0000
001FF80000
001FF80000
001FF00000
003FF00000
003FF00000
007FE00000
007FE00000
007FE00000
00FFC00000
00FFC00000
01FF800000
01FF800000
01FF800000
ENDCHAR
STARTCHAR 0038
ENCODING 56
SWIDTH 520 0
DWIDTH 50 0
BBX 36 67 7 0
BITMAP
01FFFFFC00
0FFFFFFF00
1FFFFFFF80
3FFFFFFFC0
7FFFFFFFE0
7FFFFFFFE0
7FFFFFFFE0
FFFFFFFFF0
FFE0007FF0
FFC0003FF0
FF80001FF0
FF80001FF0
FF80001FF0
FF80001FF0
FF80001FF0
FF80001FF0
FF80001FF0
FF80001FF0
FF80001FF0
FF80001FF0
FF80001FF0
FF80001FF0
FF80001FF0
FF80001FF0
FF80001FF0
7F80001FF0
7FC0003FE0
7FE0007FE0
3FFFFFFFC0
1FFFFFFF80
0FFFFFFF00
03FFFFFC00
01FFFFFC00
0FFFFFFF00
1FFFFFFF80
3FFFFFFFC0
7FE0007FE0
7FC0003FE0
7F80001FE0
FF80001FF0
FF80001FF0
FF80001FF0
FF80001FF0
FF80001FF0
FF80001FF0
FF80001FF0
FF80001FF0
FF80001FF0
FF80001FF0
FF80001FF0
FF80001FF0
FF80001FF0
FF80001FF0
FF80001FF0
FF80001FF0
FF80001FF0
FF80001FF0
FFC0003FF0
FFE0007FF0
FFFFFFFFF0
7FFFFFFFE0
7FFFFFFFE0
7FFFFFFFE0
3FFFFFFFC0
1FFFFFFF80
0FFFFFFF00
03FFFFF800
ENDCHAR
STARTCHAR 0039
ENCODING 57
SWIDTH 520 0
DWIDTH 50 0
BBX 36 67 7 0
BITMAP
01FFFFFC00
0FFFFFFF00
1FFFFFFF80
3FFFFFFFC0
7FFFFFFFE0
7FFFFFFFE0
7FFFFFFFE0
FFFFFFFFF0
FFF000FFF0
FFC0003FF0
FF80001FF0
FF80001FF0
FF80001FF0
FF80001FF0
FF80001FF0
FF80001FF0
FF80001FF0
FF80001FF0
FF80001FF0
FF80001FF0
FF80001FF0
FF80001FF0
FF80001FF0
FF80001FF0
FF80001FF0
FF80001FF0
FF80001FF0
FFC0001FF0
FFE0001FF0
FFFFFFFFF0
7FFFFFFFF0
7FFFFFFFF0
7FFFFFFFF0
3FFFFFFFF0
1FFFFFFFF0
0FFFFFFFF0
03FFFFFFF0
0000001FF0
0000001FF0
0000001FF0
0000001FF0
0000001FF0
0000001FF0
0000001FF0
0000001FF0
0000001FF0
0000001FF0
0000001FF0
0000001FF0
0000001FF0
0000001FF0
0000001FF0
0000001FF0
0000001FF0
0000001FF0
0000001FF0
0000001FF0
0000003FF0
E00000FFF0
FFFFFFFFF0
FFFFFFFFE0
FFFFFFFFE0
FFFFFFFFE0
FFFFFFFFC0
FFFFFFFF80
FFFFFFFF00
FFFFFFF800
ENDCHAR
STARTCHAR 003A
ENCODING 58
SWIDTH 208 0
DWIDTH 20 0
BBX 9 48 5 0
BITMAP
FF80
FF80
FF80
FF80
FF80
FF80
FF80
FF80
FF80
FF80
0000
0000
0000
0000
0000
0000
0000
0000
0000
0000
0000
0000
0000
0000
0000
0000
0000
0000
0000
0000
0000
0000
0000
0000
0000
0000
0000
0000
FF80
FF80
FF80
FF80
FF80
FF80
FF80
FF80
FF80
FF80
ENDCHAR
STARTCHAR 003B
ENCODING 59
SWIDTH 218 0
DWIDTH 21 0
BBX 12 62 3 -14
BITMAP
1FF0
1FF0
1FF0
1FF0
1FF0
1FF0
1FF0
1FF0
1FF0
1FF0
0000
0000
0000
0000
0000
0000
0000
0000
0000
0000
0000
0000
0000
0000
0000
0000
0000
0000
0000
0000
0000
0000
0000
0000
0000
0000
0000
0000
1FF0
1FF0
1FF0
1FF0
1FF0
1FF0
1FF0
1FF0
1FF0
1FF0
1FE0
3FE0
3FE0
3FC0
3FC0
3FC0
7FC0
7F80
7F80
7F80
FF00
FF00
FF00
FE00
ENDCHAR
STARTCHAR 003C
ENCODING 60
SWIDTH 468 0
DWIDTH 45 0
BBX 34 42 5 11
BITMAP
00000000C0
00000003C0
0000000FC0
0000001FC0
0000007FC0
000001FFC0
000007FFC0
00001FFF80
00007FFE00
0001FFFC00
0007FFF000
001FFFC000
003FFF0000
00FFFE0000
03FFF80000
0FFFE00000
3FFF800000
FFFF000000
FFFC000000
FFF0000000
FFC0000000
FFF0000000
FFFC000000
FFFF000000
7FFF800000
1FFFE00000
07FFF80000
01FFFE0000
007FFF0000
001FFFC000
0007FFF000
0003FFFC00
0000FFFE00
00003FFF80
00000FFFC0
000003FFC0
000000FFC0
0000003FC0
0000000FC0
00000007C0
00000001C0
0000000040
ENDCHAR
STARTCHAR 003D
ENCODING 61
SWIDTH 468 0
DWIDTH 45 0
BBX 34 28 5 15
BITMAP
FFFFFFFFC0
FFFFFFFFC0
FFFFFFFFC0
FFFFFFFFC0
FFFFFFFFC0
FFFFFFFFC0
FFFFFFFFC0
0000000000
0000000000
0000000000
0000000000
0000000000
0000000000
0000000000
0000000000
0000000000
0000000000
0000000000
0000000000
0000000000
0000000000
FFFFFFFFC0
FFFFFFFFC0
FFFFFFFFC0
FFFFFFFFC0
FFFFFFFFC0
FFFFFFFFC0
FFFFFFFFC0
ENDCHAR
STARTCHAR 003E
ENCODING 62
SWIDTH 468 0
DWIDTH 45 0
BBX 34 42 5 11
BITMAP
C000000000
F000000000
FC00000000
FF00000000
FF80000000
FFE0000000
FFF8000000
FFFE000000
3FFF800000
0FFFE00000
07FFF80000
01FFFE0000
007FFF0000
001FFFC000
000FFFF000
0003FFFC00
0000FFFF00
00003FFFC0
00001FFFC0
000007FFC0
000001FFC0
000001FFC0
000007FFC0
00001FFFC0
00007FFF80
0000FFFE00
0003FFF800
000FFFE000
003FFF8000
007FFE0000
01FFF80000
07FFF00000
1FFFC00000
3FFF000000
FFFC000000
FFF0000000
FFC0000000
FF00000000
FC00000000
F000000000
E000000000
8000000000
ENDCHAR
STARTCHAR 003F
ENCODING 63
SWIDTH 406 0
DWIDTH 39 0
BBX 31 67 5 0
BITMAP
FFFFFFC0
FFFFFFF0
FFFFFFF8
FFFFFFFC
FFFFFFFC
FFFFFFFE
FFFFFFFE
FFFFFFFE
800007FE
000007FE
000003FE
000003FE
000003FE
000003FE
000003FE
000003FE
000003FE
000007FC
00000FFC
00001FFC
00003FF8
00007FF0
0000FFF0
0001FFE0
0003FFC0
0007FF80
000FFF00
001FFE00
001FFC00
003FF800
003FF000
003FE000
007FE000
007FC000
007FC000
007FC000
007FC000
007FC000
007FC000
007FC000
007FC000
007FC000
007FC000
007FC000
007FC000
007FC000
007FC000
007FC000
007FC000
007FC000
007FC000
00000000
00000000
00000000
00000000
00000000
00000000
007FC000
007FC000
007FC000
007FC000
007FC000
007FC000
007FC000
007FC000
007FC000
007FC000
ENDCHAR
STARTCHAR 0040
ENCODING 64
SWIDTH 760 0
DWIDTH 73 0
BBX 61 67 7 -10
BITMAP
01FFFFFFFC000000
0FFFFFFFFF000000
1FFFFFFFFF800000
3FFFFFFFFFC00000
7FFFFFFFFFE00000
7FFFFFFFFFE00000
7FFFFFFFFFE00000
FFFFFFFFFFF00000
FF8000003FF00000
FF8000001FF00000
FF0000000FF00000
FF0000000FF00000
FF0000000FF00000
FF0000000FF00000
FF0000000FF00000
FF0000000FF00000
FF0000000FF00000
FF0000000FF00000
FF0003FFFFF007F8
FF000FFFFFF007F8
FF001FFFFFF007F8
FF003FFFFFF007F8
FF003FFFFFF007F8
FF007FFFFFF007F8
FF007FC00FF007F8
FF007FC00FF007F8
FF007F800FF007F8
FF007F800FF007F8
FF007F800FF007F8
FF007F800FF007F8
FF007F800FF007F8
FF007F800FF007F8
FF007F800FF007F8
FF007F800FF007F8
FF007F800FF007F8
FF007F800FF007F8
FF007F800FF007F8
FF007F800FF007F8
FF007F800FF007F8
FF007F800FF007F8
FF007FC00FF007F8
FF007FE00FF007F8
FF007FFFFFF007F8
FF007FFFFFF007F8
FF003FFFFFF007F8
FF003FFFFFF007F8
FF001FFFFFF007F8
FF000FFFFFF007F8
FF0003FFFFF007F8
FF000000000007F8
FF000000000007F8
FF000000000007F8
FF000000000007F8
FF000000000007F8
FF000000000007F8
FF000000000007F8
FF000000000007F8
FF800000000007F8
FFC0000000000FF8
FFFFFFFFFFFFFFF8
7FFFFFFFFFFFFFF0
7FFFFFFFFFFFFFF0
7FFFFFFFFFFFFFF0
3FFFFFFFFFFFFFE0
1FFFFFFFFFFFFFC0
0FFFFFFFFFFFFF80
01FFFFFFFFFFFC00
ENDCHAR
STARTCHAR 0041
ENCODING 65
SWIDTH 500 0
DWIDTH 48 0
BBX 48 68 0 0
BITMAP
00003FFC0000
00003FFE0000
00003FFE0000
00007FFE0000
00007FFE0000
00007FFF0000
00007FFF0000
0000FFFF0000
0000FFFF0000
0000FFFF8000
0001FFFF8000
0001FFFF8000
0001FFFF8000
0001FEFFC000
0003FE7FC000
0003FE7FC000
0003FE7FC000
0003FC7FE000
0007FC3FE000
0007FC3FE000
0007FC3FF000
000FF83FF000
000FF81FF000
000FF81FF000
000FF81FF800
001FF01FF800
001FF00FF800
001FF00FF800
001FF00FFC00
003FE00FFC00
003FE007FC00
003FE007FC00
003FC007FE00
007FC007FE00
007FC003FE00
007FC003FE00
00FF8003FF00
00FF8003FF00
00FF8001FF00
00FF8001FF80
01FF0001FF80
01FF0001FF80
01FF0000FF80
01FF0000FFC0
03FE0000FFC0
03FFFFFFFFC0
03FFFFFFFFC0
03FFFFFFFFE0
07FFFFFFFFE0
07FFFFFFFFE0
07FFFFFFFFE0
0FFFFFFFFFF0
0FFC00007FF0
0FFC00003FF0
0FFC00003FF0
1FF800003FF8
1FF800003FF8
1FF800001FF8
1FF800001FFC
3FF000001FFC
3FF000001FFC
3FF000000FFC
7FF000000FFE
7FE000000FFE
7FE000000FFE
7FE0000007FE
FFE0000007FF
FFC0000007FF
ENDCHAR
STARTCHAR 0042
ENCODING 66
SWIDTH 552 0
DWIDTH 53 0
BBX 39 67 7 0
BITMAP
FFFFFFFF80
FFFFFFFFE0
FFFFFFFFF0
FFFFFFFFF8
FFFFFFFFFC
FFFFFFFFFC
FFFFFFFFFE
FFFFFFFFFE
FF80000FFE
FF800007FE
FF800003FE
FF800003FE
FF800003FE
FF800003FE
FF800003FE
FF800003FE
FF800003FE
FF800003FE
FF800003FE
FF800003FE
FF800003FE
FF800003FE
FF800003FE
FF800003FE
FF800003FE
FF800003FC
FF800007FC
FF80000FFC
FFFFFFFFF8
FFFFFFFFF0
FFFFFFFFC0
FFFFFFFC00
FFFFFFFFC0
FFFFFFFFF0
FFFFFFFFF8
FF80000FF8
FF800007FC
FF800003FC
FF800003FE
FF800003FE
FF800003FE
FF800003FE
FF800003FE
FF800003FE
FF800003FE
FF800003FE
FF800003FE
FF800003FE
FF800003FE
FF800003FE
FF800003FE
FF800003FE
FF800003FE
FF800003FE
FF800003FE
FF800003FE
FF800003FE
FF800007FE
FF80000FFE
FFFFFFFFFE
FFFFFFFFFC
FFFFFFFFFC
FFFFFFFFFC
FFFFFFFFF8
FFFFFFFFF0
FFFFFFFFE0
FFFFFFFF80
ENDCHAR
STARTCHAR 0043
ENCODING 67
SWIDTH 468 0
DWIDTH 45 0
BBX 36 67 7 0
BITMAP
01FFFFFFF0
0FFFFFFFF0
1FFFFFFFF0
3FFFFFFFF0
7FFFFFFFF0
7FFFFFFFF0
7FFFFFFFF0
FFFFFFFFF0
FFF0000070
FFC0000000
FF80000000
FF80000000
FF80000000
FF80000000
FF80000000
FF80000000
FF80000000
FF80000000
FF80000000
FF80000000
FF80000000
FF80000000
FF80000000
FF80000000
FF80000000
FF80000000
FF80000000
FF80000000
FF80000000
FF80000000
FF80000000
FF80000000
FF80000000
FF80000000
FF80000000
FF80000000
FF80000000
FF80000000
FF80000000
FF80000000
FF80000000
FF80000000
FF80000000
FF80000000
FF80000000
FF80000000
FF80000000
FF80000000
FF80000000
FF80000000
FF80000000
FF80000000
FF80000000
FF80000000
FF80000000
FF80000000
FF80000000
FFC0000000
FFF0000070
FFFFFFFFF0
7FFFFFFFF0
7FFFFFFFF0
7FFFFFFFF0
3FFFFFFFF0
1FFFFFFFF0
0FFFFFFFF0
03FFFFFFF0
ENDCHAR
STARTCHAR 0044
ENCODING 68
SWIDTH 552 0
DWIDTH 53 0
BBX 39 67 7 0
BITMAP
FFFFFFFF80
FFFFFFFFE0
FFFFFFFFF0
FFFFFFFFF8
FFFFFFFFFC
FFFFFFFFFC
FFFFFFFFFC
FFFFFFFFFE
FF80001FFE
FF800007FE
FF800003FE
FF800003FE
FF800003FE
FF800003FE
FF800003FE
FF800003FE
FF800003FE
FF800003FE
FF800003FE
FF800003FE
FF800003FE
FF800003FE
FF800003FE
FF800003FE
FF800003FE
FF800003FE
FF800003FE
FF800003FE
FF800003FE
FF800003FE
FF800003FE
FF800003FE
FF800003FE
FF800003FE
FF800003FE
FF800003FE
FF800003FE
FF800003FE
FF800003FE
FF800003FE
FF800003FE
FF800003FE
FF800003FE
FF800003FE
FF800003FE
FF800003FE
FF800003FE
FF800003FE
FF800003FE
FF800003FE
FF800003FE
FF800003FE
FF800003FE
FF800003FE
FF800003FE
FF800003FE
FF800003FE
FF800007FE
FF80001FFE
FFFFFFFFFE
FFFFFFFFFC
FFFFFFFFFC
FFFFFFFFFC
FFFFFFFFF8
FFFFFFFFF0
FFFFFFFFE0
FFFFFFFF80
ENDCHAR
STARTCHAR 0045
ENCODING 69
SWIDTH 479 0
DWIDTH 46 0
BBX 36 67 7 0
BITMAP
FFFFFFFFE0
FFFFFFFFE0
FFFFFFFFE0
FFFFFFFFE0
FFFFFFFFE0
FFFFFFFFE0
FFFFFFFFE0
FFFFFFFFE0
FF80000000
FF80000000
FF80000000
FF80000000
FF80000000
FF80000000
FF80000000
FF80000000
FF80000000
FF80000000
FF80000000
FF80000000
FF80000000
FF80000000
FF80000000
FF80000000
FF80000000
FF80000000
FF80000000
FF80000000
FFFFFFFC00
FFFFFFFC00
FFFFFFFC00
FFFFFFFC00
FFFFFFFC00
FFFFFFFC00
FFFFFFFC00
FFFFFFFC00
FF80000000
FF80000000
FF80000000
FF80000000
FF80000000
FF80000000
FF80000000
FF80000000
FF80000000
FF80000000
FF80000000
FF80000000
FF80000000
FF80000000
FF80000000
FF80000000
FF80000000
FF80000000
FF80000000
FF80000000
FF80000000
FF80000000
FF80000000
FFFFFFFFF0
FFFFFFFFF0
FFFFFFFFF0
FFFFFFFFF0
FFFFFFFFF0
FFFFFFFFF0
FFFFFFFFF0
FFFFFFFFF0
ENDCHAR
STARTCHAR 0046
ENCODING 70
SWIDTH 447 0
DWIDTH 43 0
BBX 35 67 7 0
BITMAP
FFFFFFFFE0
FFFFFFFFE0
FFFFFFFFE0
FFFFFFFFE0
FFFFFFFFE0
FFFFFFFFE0
FFFFFFFFE0
FFFFFFFFE0
FF80000000
FF80000000
FF80000000
FF80000000
FF80000000
FF80000000
FF80000000
FF80000000
FF80000000
FF80000000
FF80000000
FF80000000
FF80000000
FF80000000
FF80000000
FF80000000
FF80000000
FF80000000
FF80000000
FF80000000
FFFFFFFC00
FFFFFFFC00
FFFFFFFC00
FFFFFFFC00
FFFFFFFC00
FFFFFFFC00
FFFFFFFC00
FFFFFFFC00
FF80000000
FF80000000
FF80000000
FF80000000
FF80000000
FF80000000
FF80000000
FF80000000
FF80000000
FF80000000
FF80000000
FF80000000
FF80000000
FF80000000
FF80000000
FF80000000
FF80000000
FF80000000
FF80000000
FF80000000
FF80000000
FF80000000
FF80000000
FF80000000
FF80000000
FF80000000
FF80000000
FF80000000
FF80000000
FF80000000
FF80000000
ENDCHAR
STARTCHAR 0047
ENCODING 71
SWIDTH 552 0
DWIDTH 53 0
BBX 39 67 7 0
BITMAP
01FFFFFFFE
0FFFFFFFFE
1FFFFFFFFE
3FFFFFFFFE
7FFFFFFFFE
7FFFFFFFFE
7FFFFFFFFE
FFFFFFFFFE
FFF000001E
FFC0000000
FF80000000
FF80000000
FF80000000
FF80000000
FF80000000
FF80000000
FF80000000
FF80000000
FF80000000
FF80000000
FF80000000
FF80000000
FF80000000
FF80000000
FF80000000
FF80000000
FF80000000
FF80000000
FF801FFFFE
FF801FFFFE
FF801FFFFE
FF801FFFFE
FF801FFFFE
FF801FFFFE
FF801FFFFE
FF801FFFFE
FF800003FE
FF800003FE
FF800003FE
FF800003FE
FF800003FE
FF800003FE
FF800003FE
FF800003FE
FF800003FE
FF800003FE
FF800003FE
FF800003FE
FF800003FE
FF800003FE
FF800003FE
FF800003FE
FF800003FE
FF800003FE
FF800003FE
FF800003FE
FF800003FE
FFC00007FE
FFF0001FFE
FFFFFFFFFE
7FFFFFFFFC
7FFFFFFFFC
7FFFFFFFFC
3FFFFFFFF8
1FFFFFFFF0
0FFFFFFFE0
03FFFFFF80
ENDCHAR
STARTCHAR 0048
ENCODING 72
SWIDTH 552 0
DWIDTH 53 0
BBX 39 67 7 1
BITMAP
FF800003FE
FF800003FE
FF800003FE
FF800003FE
FF800003FE
FF800003FE
FF800003FE
FF800003FE
FF800003FE
FF800003FE
FF800003FE
FF800003FE
FF800003FE
FF800003FE
FF800003FE
FF800003FE
FF800003FE
FF800003FE
FF800003FE
FF800003FE
FF800003FE
FF800003FE
FF800003FE
FF800003FE
FF800003FE
FF800003FE
FF800003FE
FF800003FE
FFFFFFFFFE
FFFFFFFFFE
FFFFFFFFFE
FFFFFFFFFE
FFFFFFFFFE
FFFFFFFFFE
FFFFFFFFFE
FFFFFFFFFE
FF800003FE
FF800003FE
FF800003FE
FF800003FE
FF800003FE
FF800003FE
FF800003FE
FF800003FE
FF800003FE
FF800003FE
FF800003FE
FF800003FE
FF800003FE
FF800003FE
FF800003FE
FF800003FE
FF800003FE
FF800003FE
FF800003FE
FF800003FE
FF800003FE
FF800003FE
FF800003FE
FF800003FE
FF800003FE
FF800003FE
FF800003FE
FF800003FE
FF800003FE
FF800003FE
FF800003FE
ENDCHAR
STARTCHAR 0049
ENCODING 73
SWIDTH 239 0
DWIDTH 23 0
BBX 9 67 7 1
BITMAP
FF80
FF80
FF80
FF80
FF80
FF80
FF80
FF80
FF80
FF80
FF80
FF80
FF80
FF80
FF80
FF80
FF80
FF80
FF80
FF80
FF80
FF80
FF80
FF80
FF80
FF80
FF80
FF80
FF80
FF80
FF80
FF80
FF80
FF80
FF80
FF80
FF80
FF80
FF80
FF80
FF80
FF80
FF80
FF80
FF80
FF80
FF80
FF80
FF80
FF80
FF80
FF80
FF80
FF80
FF80
FF80
FF80
FF80
FF80
FF80
FF80
FF80
FF80
FF80
FF80
FF80
FF80
ENDCHAR
STARTCHAR 004A
ENCODING 74
SWIDTH 333 0
DWIDTH 32 0
BBX 23 67 2 1
BITMAP
0003FE
0003FE
0003FE
0003FE
0003FE
0003FE
0003FE
0003FE
0003FE
0003FE
0003FE
0003FE
0003FE
0003FE
0003FE
0003FE
0003FE
0003FE
0003FE
0003FE
0003FE
0003FE
0003FE
0003FE
0003FE
0003FE
0003FE
0003FE
0003FE
0003FE
0003FE
0003FE
0003FE
0003FE
0003FE
0003FE
0003FE
0003FE
0003FE
0003FE
0003FE
0003FE
0003FE
0003FE
0003FE
0003FE
0003FE
0003FE
0003FE
0003FE
0003FE
0003FE
0003FE
0003FE
0003FE
0003FE
0003FE
0007FE
C01FFE
FFFFFE
FFFFFC
FFFFFC
FFFFFC
FFFFF8
FFFFF0
FFFFE0
FFFF80
ENDCHAR
STARTCHAR 004B
ENCODING 75
SWIDTH 541 0
DWIDTH 52 0
BBX 42 67 7 1
BITMAP
FF800001FF80
FF800003FF80
FF800003FF00
FF800007FF00
FF800007FE00
FF800007FE00
FF80000FFC00
FF80000FFC00
FF80001FFC00
FF80001FF800
FF80001FF800
FF80003FF000
FF80003FF000
FF80007FE000
FF80007FE000
FF80007FE000
FF8000FFC000
FF8000FFC000
FF8001FF8000
FF8001FF8000
FF8003FF0000
FF8003FF0000
FF8003FF0000
FF8007FE0000
FF8007FE0000
FF800FFC0000
FF800FFC0000
FF803FF80000
FFFFFFF80000
FFFFFFF00000
FFFFFFE00000
FFFFFF800000
FFFFFFC00000
FFFFFFF00000
FFFFFFF80000
FFFFFFF80000
FF801FFC0000
FF800FFC0000
FF800FFE0000
FF8007FE0000
FF8007FE0000
FF8003FF0000
FF8003FF0000
FF8003FF8000
FF8001FF8000
FF8001FFC000
FF8000FFC000
FF8000FFC000
FF8000FFE000
FF80007FE000
FF80007FF000
FF80003FF000
FF80003FF800
FF80003FF800
FF80001FF800
FF80001FFC00
FF80000FFC00
FF80000FFE00
FF80000FFE00
FF800007FE00
FF800007FF00
FF800003FF00
FF800003FF80
FF800003FF80
FF800001FFC0
FF800001FFC0
FF800000FFC0
ENDCHAR
STARTCHAR 004C
ENCODING 76
SWIDTH 447 0
DWIDTH 43 0
BBX 36 67 7 1
BITMAP
FF80000000
FF80000000
FF80000000
FF80000000
FF80000000
FF80000000
FF80000000
FF80000000
FF80000000
FF80000000
FF80000000
FF80000000
FF80000000
FF80000000
FF80000000
FF80000000
FF80000000
FF80000000
FF80000000
FF80000000
FF80000000
FF80000000
FF80000000
FF80000000
FF80000000
FF80000000
FF80000000
FF80000000
FF80000000
FF80000000
FF80000000
FF80000000
FF80000000
FF80000000
FF80000000
FF80000000
FF80000000
FF80000000
FF80000000
FF80000000
FF80000000
FF80000000
FF80000000
FF80000000
FF80000000
FF80000000
FF80000000
FF80000000
FF80000000
FF80000000
FF80000000
FF80000000
FF80000000
FF80000000
FF80000000
FF80000000
FF80000000
FF80000000
FF80000000
FFFFFFFFF0
FFFFFFFFF0
FFFFFFFFF0
FFFFFFFFF0
FFFFFFFFF0
FFFFFFFFF0
FFFFFFFFF0
FFFFFFFFF0
ENDCHAR
STARTCHAR 004D
ENCODING 77
SWIDTH 666 0
DWIDTH 64 0
BBX 50 67 7 1
BITMAP
FFFC00000FFFC0
FFFE00000FFFC0
FFFE00000FFFC0
FFFE00001FFFC0
FFFE00001FFFC0
FFFF00001FFFC0
FFFF00001FFFC0
FFFF00003FFFC0
FFFF80003FFFC0
FFFF80003FFFC0
FFFF80007FFFC0
FFFF80007FFFC0
FFFFC0007F7FC0
FFBFC0007F7FC0
FFBFC000FF7FC0
FFBFC000FF7FC0
FF9FE000FE7FC0
FF9FE000FE7FC0
FF9FE001FE7FC0
FF9FF001FC7FC0
FF8FF001FC7FC0
FF8FF003FC7FC0
FF8FF003FC7FC0
FF87F803F87FC0
FF87F803F87FC0
FF87F807F87FC0
FF87F807F07FC0
FF83FC07F07FC0
FF83FC0FF07FC0
FF83FC0FF07FC0
FF81FE0FE07FC0
FF81FE0FE07FC0
FF81FE1FE07FC0
FF81FE1FC07FC0
FF80FF1FC07FC0
FF80FF1FC07FC0
FF80FF3FC07FC0
FF807F3F807FC0
FF807FBF807FC0
FF807FFF807FC0
FF807FFF807FC0
FF803FFF007FC0
FF803FFF007FC0
FF803FFF007FC0
FF801FFE007FC0
FF801FFE007FC0
FF801FFE007FC0
FF801FFE007FC0
FF800FFC007FC0
FF800FFC007FC0
FF800000007FC0
FF800000007FC0
FF800000007FC0
FF800000007FC0
FF800000007FC0
FF800000007FC0
FF800000007FC0
FF800000007FC0
FF800000007FC0
FF800000007FC0
FF800000007FC0
FF800000007FC0
FF800000007FC0
FF800000007FC0
FF800000007FC0
FF800000007FC0
FF800000007FC0
ENDCHAR
STARTCHAR 004E
ENCODING 78
SWIDTH 562 0
DWIDTH 54 0
BBX 40 67 7 1
BITMAP
FFE00001FF
FFE00001FF
FFE00001FF
FFF00001FF
FFF00001FF
FFF80001FF
FFF80001FF
FFF80001FF
FFFC0001FF
FFFC0001FF
FFFE0001FF
FFFE0001FF
FFFE0001FF
FFFF0001FF
FFFF0001FF
FFFF8001FF
FFFF8001FF
FFFFC001FF
FFBFC001FF
FFBFC001FF
FF9FE001FF
FF9FE001FF
FF9FF001FF
FF8FF001FF
FF8FF001FF
FF87F801FF
FF87F801FF
FF87FC01FF
FF83FC01FF
FF83FC01FF
FF81FE01FF
FF81FE01FF
FF80FF01FF
FF80FF01FF
FF80FF81FF
FF807F81FF
FF807F81FF
FF803FC1FF
FF803FC1FF
FF803FE1FF
FF801FE1FF
FF801FE1FF
FF800FF1FF
FF800FF1FF
FF800FF9FF
FF8007F9FF
FF8007FDFF
FF8003FDFF
FF8003FDFF
FF8001FFFF
FF8001FFFF
FF8001FFFF
FF8000FFFF
FF8000FFFF
FF80007FFF
FF80007FFF
FF80007FFF
FF80003FFF
FF80003FFF
FF80001FFF
FF80001FFF
FF80000FFF
FF80000FFF
FF80000FFF
FF800007FF
FF800007FF
FF800003FF
ENDCHAR
STARTCHAR 004F
ENCODING 79
SWIDTH 552 0
DWIDTH 53 0
BBX 39 67 7 0
BITMAP
03FFFFFF80
0FFFFFFFE0
1FFFFFFFF0
3FFFFFFFF8
7FFFFFFFFC
7FFFFFFFFC
7FFFFFFFFC
FFFFFFFFFE
FFF0001FFE
FFC00007FE
FF800003FE
FF800003FE
FF800003FE
FF800003FE
FF800003FE
FF800003FE
FF800003FE
FF800003FE
FF800003FE
FF800003FE
FF800003FE
FF800003FE
FF800003FE
FF800003FE
FF800003FE
FF800003FE
FF800003FE
FF800003FE
FF800003FE
FF800003FE
FF800003FE
FF800003FE
FF800003FE
FF800003FE
FF800003FE
FF800003FE
FF800003FE
FF800003FE
FF800003FE
FF800003FE
FF800003FE
FF800003FE
FF800003FE
FF800003FE
FF800003FE
FF800003FE
FF800003FE
FF800003FE
FF800003FE
FF800003FE
FF800003FE
FF800003FE
FF800003FE
FF800003FE
FF800003FE
FF800003FE
FF800003FE
FFC00007FE
FFF0001FFE
FFFFFFFFFE
7FFFFFFFFC
7FFFFFFFFC
7FFFFFFFFC
3FFFFFFFF8
1FFFFFFFF0
0FFFFFFFE0
03FFFFFF80
ENDCHAR
STARTCHAR 0050
ENCODING 80
SWIDTH 520 0
DWIDTH 50 0
BBX 39 67 7 0
BITMAP
FFFFFFFF80
FFFFFFFFE0
FFFFFFFFF0
FFFFFFFFF8
FFFFFFFFFC
FFFFFFFFFC
FFFFFFFFFE
FFFFFFFFFE
FF80001FFE
FF800007FE
FF800003FE
FF800003FE
FF800003FE
FF800003FE
FF800003FE
FF800003FE
FF800003FE
FF800003FE
FF800003FE
FF800003FE
FF800003FE
FF800003FE
FF800003FE
FF800003FE
FF800003FE
FF800003FE
FF800003FE
FF800003FE
FF800007FE
FF80000FFE
FFFFFFFFFE
FFFFFFFFFE
FFFFFFFFFC
FFFFFFFFFC
FFFFFFFFF8
FFFFFFFFF0
FFFFFFFFE0
FFFFFFFF80
FF80000000
FF80000000
FF80000000
FF80000000
FF80000000
FF80000000
FF80000000
FF80000000
FF80000000
FF80000000
FF80000000
FF80000000
FF80000000
FF80000000
FF80000000
FF80000000
FF80000000
FF80000000
FF80000000
FF80000000
FF80000000
FF80000000
FF80000000
FF80000000
FF80000000
FF80000000
FF80000000
FF80000000
FF80000000
ENDCHAR
STARTCHAR 0051
ENCODING 81
SWIDTH 552 0
DWIDTH 53 0
BBX 39 86 7 -20
BITMAP
03FFFFFF80
0FFFFFFFE0
1FFFFFFFF0
3FFFFFFFF8
7FFFFFFFFC
7FFFFFFFFC
7FFFFFFFFC
FFFFFFFFFE
FFF0001FFE
FFC00007FE
FF800003FE
FF800003FE
FF800003FE
FF800003FE
FF800003FE
FF800003FE
FF800003FE
FF800003FE
FF800003FE
FF800003FE
FF800003FE
FF800003FE
FF800003FE
FF800003FE
FF800003FE
FF800003FE
FF800003FE
FF800003FE
FF800003FE
FF800003FE
FF800003FE
FF800003FE
FF800003FE
FF800003FE
FF800003FE
FF800003FE
FF800003FE
FF800003FE
FF800003FE
FF800003FE
FF800003FE
FF800003FE
FF800003FE
FF800003FE
FF800003FE
FF800003FE
FF800003FE
FF800003FE
FF800003FE
FF800003FE
FF80F803FE
FF80FC03FE
FF807C03FE
FF807C03FE
FF807E03FE
FF803E03FE
FF803E03FE
FFC03F07FE
FFF01F1FFE
FFFFFFFFFE
7FFFFFFFFC
7FFFFFFFFC
7FFFFFFFFC
3FFFFFFFF8
1FFFFFFFF0
0FFFFFFFE0
03FFFFFF80
000007F000
000007F000
000003F000
000003F800
000003F800
000001F800
000001FC00
000001FC00
000000FE00
000000FE00
000000FE00
0000007F00
0000007F00
0000007F00
0000007F80
0000003F80
0000003F80
0000003FC0
0000001FC0
ENDCHAR
STARTCHAR 0052
ENCODING 82
SWIDTH 562 0
DWIDTH 54 0
BBX 42 67 7 0
BITMAP
FFFFFFFF8000
FFFFFFFFE000
FFFFFFFFF000
FFFFFFFFF800
FFFFFFFFFC00
FFFFFFFFFC00
FFFFFFFFFC00
FFFFFFFFFE00
FF80001FFE00
FF800007FE00
FF800003FE00
FF800003FE00
FF800003FE00
FF800003FE00
FF800003FE00
FF800003FE00
FF800003FE00
FF800003FE00
FF800003FE00
FF800003FE00
FF800003FE00
FF800003FE00
FF800003FE00
FF800003FE00
FF800003FE00
FF800003FE00
FF800007FE00
FF80000FFE00
FFFFFFFFFE00
FFFFFFFFFE00
FFFFFFFFFC00
FFFFFFFFFC00
FFFFFFFFF800
FFFFFFFFF800
FFFFFFFFE000
FFFFFFFFC000
FF8003FC0000
FF8003FE0000
FF8003FE0000
FF8001FF0000
FF8001FF0000
FF8000FF0000
FF8000FF8000
FF8000FF8000
FF80007FC000
FF80007FC000
FF80007FC000
FF80003FE000
FF80003FE000
FF80003FF000
FF80001FF000
FF80001FF000
FF80001FF800
FF80000FF800
FF80000FF800
FF80000FFC00
FF800007FC00
FF800007FE00
FF800007FE00
FF800003FE00
FF800003FF00
FF800003FF00
FF800001FF80
FF800001FF80
FF800001FF80
FF800000FFC0
FF800000FFC0
ENDCHAR
STARTCHAR 0053
ENCODING 83
SWIDTH 489 0
DWIDTH 47 0
BBX 36 67 5 0
BITMAP
01FFFFFFF0
0FFFFFFFF0
1FFFFFFFF0
3FFFFFFFF0
7FFFFFFFF0
7FFFFFFFF0
7FFFFFFFF0
FFFFFFFFF0
FFF00000F0
FFC0000000
FF80000000
FF80000000
FF80000000
FF80000000
FF80000000
FF80000000
FF80000000
FF80000000
FF80000000
FFC0000000
FFC0000000
7FE0000000
7FF8000000
7FFC000000
3FFE000000
1FFF000000
1FFF800000
0FFFE00000
03FFF00000
01FFF80000
00FFFC0000
007FFF0000
001FFF8000
000FFFC000
0007FFE000
0003FFF000
0001FFFC00
00007FFE00
00003FFF00
00001FFF80
00000FFFC0
000007FFC0
000001FFE0
000000FFE0
0000007FF0
0000003FF0
0000001FF0
0000001FF0
0000001FF0
0000001FF0
0000001FF0
0000001FF0
0000001FF0
0000001FF0
0000001FF0
0000001FF0
0000001FF0
0000003FF0
E00000FFF0
FFFFFFFFF0
FFFFFFFFF0
FFFFFFFFE0
FFFFFFFFE0
FFFFFFFFC0
FFFFFFFF80
FFFFFFFF00
FFFFFFFC00
ENDCHAR
STARTCHAR 0054
ENCODING 84
SWIDTH 468 0
DWIDTH 45 0
BBX 39 67 3 0
BITMAP
FFFFFFFFFE
FFFFFFFFFE
FFFFFFFFFE
FFFFFFFFFE
FFFFFFFFFE
FFFFFFFFFE
FFFFFFFFFE
FFFFFFFFFE
C001FF0006
0001FF0000
0001FF0000
0001FF0000
0001FF0000
0001FF0000
0001FF0000
0001FF0000
0001FF0000
0001FF0000
0001FF0000
0001FF0000
0001FF0000
0001FF0000
0001FF0000
0001FF0000
0001FF0000
0001FF0000
0001FF0000
0001FF0000
0001FF0000
0001FF0000
0001FF0000
0001FF0000
0001FF0000
0001FF0000
0001FF0000
0001FF0000
0001FF0000
0001FF0000
0001FF0000
0001FF0000
0001FF0000
0001FF0000
0001FF0000
0001FF0000
0001FF0000
0001FF0000
0001FF0000
0001FF0000
0001FF0000
0001FF0000
0001FF0000
0001FF0000
0001FF0000
0001FF0000
0001FF0000
0001FF0000
0001FF0000
0001FF0000
0001FF0000
0001FF0000
0001FF0000
0001FF0000
0001FF0000
0001FF0000
0001FF0000
0001FF0000
0001FF0000
ENDCHAR
STARTCHAR 0055
ENCODING 85
SWIDTH 552 0
DWIDTH 53 0
BBX 39 67 7 1
BITMAP
FF800003FE
FF800003FE
FF800003FE
FF800003FE
FF800003FE
FF800003FE
FF800003FE
FF800003FE
FF800003FE
FF800003FE
FF800003FE
FF800003FE
FF800003FE
FF800003FE
FF800003FE
FF800003FE
FF800003FE
FF800003FE
FF800003FE
FF800003FE
FF800003FE
FF800003FE
FF800003FE
FF800003FE
FF800003FE
FF800003FE
FF800003FE
FF800003FE
FF800003FE
FF800003FE
FF800003FE
FF800003FE
FF800003FE
FF800003FE
FF800003FE
FF800003FE
FF800003FE
FF800003FE
FF800003FE
FF800003FE
FF800003FE
FF800003FE
FF800003FE
FF800003FE
FF800003FE
FF800003FE
FF800003FE
FF800003FE
FF800003FE
FF800003FE
FF800003FE
FF800003FE
FF800003FE
FF800003FE
FF800003FE
FF800003FE
FF800003FE
FFC00007FE
FFF0001FFE
FFFFFFFFFE
7FFFFFFFFC
7FFFFFFFFC
7FFFFFFFFC
3FFFFFFFF8
1FFFFFFFF0
0FFFFFFFE0
03FFFFFF80
ENDCHAR
STARTCHAR 0056
ENCODING 86
SWIDTH 500 0
DWIDTH 48 0
BBX 48 67 0 1
BITMAP
FFC0000003FF
FFE0000003FF
7FE0000003FE
7FE0000003FE
7FE0000007FE
3FF0000007FC
3FF0000007FC
3FF0000007FC
3FF000000FFC
1FF800000FF8
1FF800000FF8
1FF800000FF8
1FF800001FF8
0FFC00001FF0
0FFC00001FF0
0FFC00001FF0
0FFC00003FE0
07FE00003FE0
07FE00003FE0
07FE00007FE0
03FE00007FC0
03FF00007FC0
03FF00007FC0
03FF0000FFC0
01FF0000FF80
01FF8000FF80
01FF8000FF80
01FF8001FF80
00FF8001FF00
00FFC001FF00
00FFC001FF00
00FFC003FE00
007FC003FE00
007FE003FE00
007FE003FE00
003FE007FC00
003FE007FC00
003FF007FC00
003FF007FC00
001FF00FF800
001FF00FF800
001FF80FF800
001FF80FF000
000FF81FF000
000FF81FF000
000FFC1FF000
000FFC1FE000
0007FC3FE000
0007FC3FE000
0007FE3FE000
0003FE3FC000
0003FE7FC000
0003FE7FC000
0003FF7FC000
0001FF7F8000
0001FFFF8000
0001FFFF8000
0001FFFF0000
0000FFFF0000
0000FFFF0000
0000FFFF0000
0000FFFE0000
00007FFE0000
00007FFE0000
00007FFE0000
00003FFC0000
00003FFC0000
ENDCHAR
STARTCHAR 0057
ENCODING 87
SWIDTH 760 0
DWIDTH 73 0
BBX 71 67 1 1
BITMAP
FFC00001FF000003FE
FFC00001FF800007FE
7FC00001FF800007FC
7FC00001FF800007FC
7FE00001FF800007FC
7FE00003FF800007FC
7FE00003FF80000FF8
3FE00003FFC0000FF8
3FF00003FFC0000FF8
3FF00003FFC0000FF8
3FF00007FFC0000FF8
1FF00007FFC0001FF0
1FF00007FFE0001FF0
1FF80007FFE0001FF0
1FF80007FFE0001FF0
1FF8000FFFE0003FE0
0FF8000FFFE0003FE0
0FF8000FEFE0003FE0
0FFC000FEFF0003FE0
0FFC000FEFF0003FE0
07FC001FEFF0007FC0
07FC001FEFF0007FC0
07FC001FC7F0007FC0
07FE001FC7F8007FC0
07FE001FC7F8007F80
03FE003FC7F800FF80
03FE003FC7F800FF80
03FE003FC3F800FF80
03FF003F83FC00FF80
01FF003F83FC00FF00
01FF003F83FC01FF00
01FF007F83FC01FF00
01FF007F83FC01FF00
01FF807F01FC01FE00
00FF807F01FE03FE00
00FF807F01FE03FE00
00FF80FF01FE03FE00
00FFC0FF01FE03FC00
007FC0FE00FE03FC00
007FC0FE00FF07FC00
007FC0FE00FF07FC00
007FC1FE00FF07FC00
003FE1FE00FF07F800
003FE1FC00FF07F800
003FE1FC007F8FF800
003FE1FC007F8FF800
003FE3FC007F8FF000
001FF3FC007F8FF000
001FF3F8007F8FF000
001FF3F8003F9FF000
001FF3F8003FDFF000
000FF7F8003FDFE000
000FFFF8003FDFE000
000FFFF8003FDFE000
000FFFF0001FFFE000
000FFFF0001FFFC000
0007FFF0001FFFC000
0007FFF0001FFFC000
0007FFF0001FFFC000
0007FFE0001FFFC000
0003FFE0000FFF8000
0003FFE0000FFF8000
0003FFE0000FFF8000
0003FFE0000FFF8000
0003FFC0000FFF0000
0001FFC00007FF0000
0001FFC00007FF0000
ENDCHAR
STARTCHAR 0058
ENCODING 88
SWIDTH 531 0
DWIDTH 51 0
BBX 50 67 0 1
BITMAP
3FFC000007FE00
1FFC00000FFE00
1FFE00000FFC00
0FFE00001FFC00
07FE00001FF800
07FF00003FF800
03FF00003FF000
03FF80007FF000
01FF80007FE000
01FFC0007FE000
00FFC000FFC000
00FFE000FFC000
007FE001FF8000
007FF001FF0000
003FF003FF0000
003FF803FE0000
001FF807FE0000
001FFC07FC0000
000FFC0FFC0000
0007FC0FF80000
0007FE1FF80000
0003FE1FF00000
0003FF3FF00000
0001FF3FE00000
0001FFFFE00000
0000FFFFC00000
0000FFFFC00000
00007FFF800000
00007FFF000000
00003FFF000000
00003FFE000000
00001FFE000000
00001FFE000000
00003FFF000000
00003FFF800000
00007FFF800000
00007FFFC00000
0000FFFFC00000
0001FFFFE00000
0001FF7FE00000
0003FF3FF00000
0003FE3FF00000
0007FE1FF80000
0007FC1FF80000
000FFC0FFC0000
000FF80FFC0000
001FF807FE0000
001FF007FF0000
003FF003FF0000
007FE003FF8000
007FE001FF8000
00FFC001FFC000
00FFC000FFC000
01FF8000FFE000
01FF80007FE000
03FF00007FF000
03FF00003FF000
07FE00003FF800
07FE00001FF800
0FFC00001FFC00
0FFC00000FFE00
1FF800000FFE00
3FF8000007FF00
3FF0000007FF00
7FF0000003FF80
7FE0000003FF80
FFE0000001FFC0
ENDCHAR
STARTCHAR 0059
ENCODING 89
SWIDTH 520 0
DWIDTH 50 0
BBX 50 67 0 1
BITMAP
FFF0000001FFC0
7FF0000001FF80
3FF8000003FF80
3FF8000003FF00
1FFC000007FF00
1FFC000007FE00
0FFE00000FFE00
0FFE00000FFC00
07FF00001FFC00
07FF00001FF800
03FF80003FF800
03FF80003FF000
01FFC0007FF000
01FFC0007FE000
00FFE000FFE000
007FE000FFC000
007FF001FFC000
003FF001FF8000
003FF803FF8000
001FF803FF0000
001FFC03FE0000
000FFC07FE0000
000FFE07FC0000
0007FE0FFC0000
0007FF0FF80000
0003FF1FF80000
0003FF9FF00000
0001FFBFF00000
0000FFFFE00000
0000FFFFE00000
00007FFFC00000
00007FFFC00000
00003FFF800000
00003FFF800000
00001FFF000000
00001FFF000000
00000FFE000000
00000FFE000000
000007FC000000
000007FC000000
000007FC000000
000007FC000000
000007FC000000
000007FC000000
000007FC000000
000007FC000000
000007FC000000
000007FC000000
000007FC000000
000007FC000000
000007FC000000
000007FC000000
000007FC000000
000007FC000000
000007FC000000
000007FC000000
000007FC000000
000007FC000000
000007FC000000
000007FC000000
000007FC000000
000007FC000000
000007FC000000
000007FC000000
000007FC000000
000007FC000000
000007FC000000
ENDCHAR
STARTCHAR 005A
ENCODING 90
SWIDTH 489 0
DWIDTH 47 0
BBX 40 67 4 0
BITMAP
FFFFFFFFFF
FFFFFFFFFF
FFFFFFFFFF
FFFFFFFFFF
FFFFFFFFFE
FFFFFFFFFE
FFFFFFFFFC
FFFFFFFFFC
E000000FF8
0000001FF8
0000001FF0
0000003FF0
0000003FE0
0000007FE0
0000007FC0
000000FFC0
000000FF80
000001FF80
000001FF00
000003FF00
000003FE00
000007FE00
000007FC00
00000FFC00
00000FF800
00001FF800
00001FF000
00003FF000
00003FE000
00007FE000
00007FC000
0000FFC000
0000FF8000
0001FF8000
0001FF0000
0003FF0000
0003FE0000
0007FE0000
0007FC0000
000FFC0000
000FF80000
001FF80000
001FF00000
003FF00000
003FE00000
007FE00000
007FC00000
00FFC00000
00FF800000
01FF800000
01FF000000
03FF000000
03FE000000
07FE000000
07FC000000
0FFC000000
0FF8000000
1FF8000000
3FF0000000
3FFFFFFFFF
7FFFFFFFFF
7FFFFFFFFF
FFFFFFFFFF
FFFFFFFFFF
FFFFFFFFFF
FFFFFFFFFF
FFFFFFFFFF
ENDCHAR
STARTCHAR 005B
ENCODING 91
SWIDTH 406 0
DWIDTH 39 0
BBX 21 86 8 -19
BITMAP
FFFFF8
FFFFF8
FFFFF8
FFFFF8
FFFFF8
FFFFF8
FFFFF8
FFFFF8
FF8000
FF8000
FF8000
FF8000
FF8000
FF8000
FF8000
FF8000
FF8000
FF8000
FF8000
FF8000
FF8000
FF8000
FF8000
FF8000
FF8000
FF8000
FF8000
FF8000
FF8000
FF8000
FF8000
FF8000
FF8000
FF8000
FF8000
FF8000
FF8000
FF8000
FF8000
FF8000
FF8000
FF8000
FF8000
FF8000
FF8000
FF8000
FF8000
FF8000
FF8000
FF8000
FF8000
FF8000
FF8000
FF8000
FF8000
FF8000
FF8000
FF8000
FF8000
FF8000
FF8000
FF8000
FF8000
FF8000
FF8000
FF8000
FF8000
FF8000
FF8000
FF8000
FF8000
FF8000
FF8000
FF8000
FF8000
FF8000
FF8000
FF8000
FFFFF8
FFFFF8
FFFFF8
FFFFF8
FFFFF8
FFFFF8
FFFFF8
FFFFF8
ENDCHAR
STARTCHAR 005C
ENCODING 92
SWIDTH 437 0
DWIDTH 42 0
BBX 42 67 0 1
BITMAP
FFC000000000
7FC000000000
7FE000000000
3FE000000000
3FF000000000
1FF000000000
1FF800000000
0FF800000000
0FFC00000000
07FC00000000
07FE00000000
03FE00000000
03FF00000000
01FF00000000
01FF80000000
00FF80000000
00FFC0000000
007FC0000000
007FE0000000
007FE0000000
003FF0000000
003FF0000000
001FF8000000
001FF8000000
000FFC000000
000FFC000000
0007FE000000
0007FE000000
0003FE000000
0003FF000000
0001FF000000
0001FF800000
0000FF800000
0000FFC00000
00007FC00000
00007FE00000
00003FE00000
00003FF00000
00001FF00000
00001FF80000
00000FF80000
00000FFC0000
000007FC0000
000007FE0000
000003FE0000
000003FF0000
000001FF0000
000001FF8000
000001FF8000
000000FFC000
000000FFC000
0000007FE000
0000007FE000
0000003FF000
0000003FF000
0000001FF800
0000001FF800
0000000FF800
0000000FFC00
00000007FC00
00000007FE00
00000003FE00
00000003FF00
00000001FF00
00000001FF80
00000000FF80
00000000FFC0
ENDCHAR
STARTCHAR 005D
ENCODING 93
SWIDTH 385 0
DWIDTH 37 0
BBX 21 86 6 -19
BITMAP
FFFFF8
FFFFF8
FFFFF8
FFFFF8
FFFFF8
FFFFF8
FFFFF8
FFFFF8
000FF8
000FF8
000FF8
000FF8
000FF8
000FF8
000FF8
000FF8
000FF8
000FF8
000FF8
000FF8
000FF8
000FF8
000FF8
000FF8
000FF8
000FF8
000FF8
000FF8
000FF8
000FF8
000FF8
000FF8
000FF8
000FF8
000FF8
000FF8
000FF8
000FF8
000FF8
000FF8
000FF8
000FF8
000FF8
000FF8
000FF8
000FF8
000FF8
000FF8
000FF8
000FF8
000FF8
000FF8
000FF8
000FF8
000FF8
000FF8
000FF8
000FF8
000FF8
000FF8
000FF8
000FF8
000FF8
000FF8
000FF8
000FF8
000FF8
000FF8
000FF8
000FF8
000FF8
000FF8
000FF8
000FF8
000FF8
000FF8
000FF8
000FF8
FFFFF8
FFFFF8
FFFFF8
FFFFF8
FFFFF8
FFFFF8
FFFFF8
FFFFF8
ENDCHAR
STARTCHAR 005E
ENCODING 94
SWIDTH 375 0
DWIDTH 36 0
BBX 34 26 1 41
BITMAP
0003F00000
0007F00000
0007F80000
000FFC0000
000FFC0000
001FFE0000
001FFE0000
003FFF0000
003FFF0000
007F7F8000
007F3F8000
00FE1FC000
01FC1FE000
01FC0FE000
03F80FF000
03F007F000
07F003F800
07E003F800
0FE001FC00
0FC000FC00
1F8000FE00
1F80007E00
3F00007F00
7F00003F80
7E00001F80
FC00001FC0
ENDCHAR
STARTCHAR 005F
ENCODING 95
SWIDTH 729 0
DWIDTH 70 0
BBX 58 7 6 -14
BITMAP
FFFFFFFFFFFFFFC0
FFFFFFFFFFFFFFC0
FFFFFFFFFFFFFFC0
FFFFFFFFFFFFFFC0
FFFFFFFFFFFFFFC0
FFFFFFFFFFFFFFC0
FFFFFFFFFFFFFFC0
ENDCHAR
STARTCHAR 0060
ENCODING 96
SWIDTH 354 0
DWIDTH 34 0
BBX 18 14 9 54
BITMAP
FF0000
FF8000
7FC000
3FC000
1FE000
0FF000
07F800
03F800
03FC00
01FE00
00FF00
007F00
003F80
001FC0
ENDCHAR
STARTCHAR 0061
ENCODING 97
SWIDTH 458 0
DWIDTH 44 0
BBX 34 48 5 0
BITMAP
FFFFFFE000
FFFFFFFC00
FFFFFFFE00
FFFFFFFF00
FFFFFFFF80
FFFFFFFF80
FFFFFFFF80
FFFFFFFFC0
000000FFC0
0000007FC0
0000007FC0
0000007FC0
0000007FC0
0000007FC0
0000007FC0
0000007FC0
0000007FC0
0000007FC0
01FFFFFFC0
0FFFFFFFC0
1FFFFFFFC0
3FFFFFFFC0
7FFFFFFFC0
7FFFFFFFC0
7FE0007FC0
FFC0007FC0
FF80007FC0
FF80007FC0
FF80007FC0
FF80007FC0
FF80007FC0
FF80007FC0
FF80007FC0
FF80007FC0
FF80007FC0
FF80007FC0
FF80007FC0
FF80007FC0
FF80007FC0
FFC0007FC0
FFF8007FC0
7FFFFFFFC0
7FFFFFFFC0
7FFFFFFFC0
3FFFFFFFC0
1FFFFFFFC0
0FFFFFFFC0
01FFFFFFC0
ENDCHAR
STARTCHAR 0062
ENCODING 98
SWIDTH 468 0
DWIDTH 45 0
BBX 33 67 6 1
BITMAP
FF80000000
FF80000000
FF80000000
FF80000000
FF80000000
FF80000000
FF80000000
FF80000000
FF80000000
FF80000000
FF80000000
FF80000000
FF80000000
FF80000000
FF80000000
FF80000000
FF80000000
FF80000000
FF80000000
FFFFFFC000
FFFFFFF800
FFFFFFFC00
FFFFFFFE00
FFFFFFFF00
FFFFFFFF00
FFFFFFFF00
FFFFFFFF80
FF8001FF80
FF8000FF80
FF8000FF80
FF8000FF80
FF8000FF80
FF8000FF80
FF8000FF80
FF8000FF80
FF8000FF80
FF8000FF80
FF8000FF80
FF8000FF80
FF8000FF80
FF8000FF80
FF8000FF80
FF8000FF80
FF8000FF80
FF8000FF80
FF8000FF80
FF8000FF80
FF8000FF80
FF8000FF80
FF8000FF80
FF8000FF80
FF8000FF80
FF8000FF80
FF8000FF80
FF8000FF80
FF8000FF80
FF8000FF80
FF8000FF80
FF8001FF80
FFFFFFFF80
FFFFFFFF00
FFFFFFFF00
FFFFFFFF00
FFFFFFFE00
FFFFFFFC00
FFFFFFF800
FFFFFFC000
ENDCHAR
STARTCHAR 0063
ENCODING 99
SWIDTH 375 0
DWIDTH 36 0
BBX 28 48 6 0
BITMAP
01FFFFF0
0FFFFFF0
1FFFFFF0
3FFFFFF0
7FFFFFF0
7FFFFFF0
7FFFFFF0
FFFFFFF0
FFC00000
FFC00000
FF800000
FF800000
FF800000
FF800000
FF800000
FF800000
FF800000
FF800000
FF800000
FF800000
FF800000
FF800000
FF800000
FF800000
FF800000
FF800000
FF800000
FF800000
FF800000
FF800000
FF800000
FF800000
FF800000
FF800000
FF800000
FF800000
FF800000
FF800000
FFC00000
FFC00000
FFFFFFF0
7FFFFFF0
7FFFFFF0
7FFFFFF0
3FFFFFF0
1FFFFFF0
0FFFFFF0
01FFFFF0
ENDCHAR
STARTCHAR 0064
ENCODING 100
SWIDTH 468 0
DWIDTH 45 0
BBX 33 67 6 1
BITMAP
000000FF80
000000FF80
000000FF80
000000FF80
000000FF80
000000FF80
000000FF80
000000FF80
000000FF80
000000FF80
000000FF80
000000FF80
000000FF80
000000FF80
000000FF80
000000FF80
000000FF80
000000FF80
000000FF80
01FFFFFF80
0FFFFFFF80
1FFFFFFF80
3FFFFFFF80
7FFFFFFF80
7FFFFFFF80
7FFFFFFF80
FFFFFFFF80
FFC000FF80
FF8000FF80
FF8000FF80
FF8000FF80
FF8000FF80
FF8000FF80
FF8000FF80
FF8000FF80
FF8000FF80
FF8000FF80
FF8000FF80
FF8000FF80
FF8000FF80
FF8000FF80
FF8000FF80
FF8000FF80
FF8000FF80
FF8000FF80
FF8000FF80
FF8000FF80
FF8000FF80
FF8000FF80
FF8000FF80
FF8000FF80
FF8000FF80
FF8000FF80
FF8000FF80
FF8000FF80
FF8000FF80
FF8000FF80
FF8000FF80
FFC000FF80
FFFFFFFF80
7FFFFFFF80
7FFFFFFF80
7FFFFFFF80
3FFFFFFF80
1FFFFFFF80
0FFFFFFF80
03FFFFFF80
ENDCHAR
STARTCHAR 0065
ENCODING 101
SWIDTH 458 0
DWIDTH 44 0
BBX 32 48 6 0
BITMAP
01FFFFC0
0FFFFFF0
1FFFFFF8
3FFFFFFC
7FFFFFFE
7FFFFFFE
7FFFFFFF
FFF007FF
FFC001FF
FF8000FF
FF8000FF
FF8000FF
FF8000FF
FF8000FF
FF8000FF
FF8000FF
FF8000FF
FFFFFFFF
FFFFFFFF
FFFFFFFF
FFFFFFFF
FFFFFFFF
FFFFFFFF
FFFFFFFF
FF800000
FF800000
FF800000
FF800000
FF800000
FF800000
FF800000
FF800000
FF800000
FF800000
FF800000
FF800000
FF800000
FF800000
FF800000
FFC00000
FFFFFFFF
7FFFFFFF
7FFFFFFF
7FFFFFFF
3FFFFFFF
1FFFFFFF
0FFFFFFF
01FFFFFF
ENDCHAR
STARTCHAR 0066
ENCODING 102
SWIDTH 281 0
DWIDTH 27 0
BBX 21 67 6 0
BITMAP
01FFF8
0FFFF8
1FFFF8
3FFFF8
7FFFF8
7FFFF8
7FFFF8
FFFFF8
FFC000
FFC000
FF8000
FF8000
FF8000
FF8000
FF8000
FF8000
FF8000
FF8000
FF8000
FFFFF8
FFFFF8
FFFFF8
FFFFF8
FFFFF8
FFFFF8
FFFFF8
FFFFF8
FF8000
FF8000
FF8000
FF8000
FF8000
FF8000
FF8000
FF8000
FF8000
FF8000
FF8000
FF8000
FF8000
FF8000
FF8000
FF8000
FF8000
FF8000
FF8000
FF8000
FF8000
FF8000
FF8000
FF8000
FF8000
FF8000
FF8000
FF8000
FF8000
FF8000
FF8000
FF8000
FF8000
FF8000
FF8000
FF8000
FF8000
FF8000
FF8000
FF8000
ENDCHAR
STARTCHAR 0067
ENCODING 103
SWIDTH 468 0
DWIDTH 45 0
BBX 33 67 6 -19
BITMAP
01FFFFFF80
0FFFFFFF80
1FFFFFFF80
3FFFFFFF80
7FFFFFFF80
7FFFFFFF80
7FFFFFFF80
FFFFFFFF80
FFC000FF80
FF8000FF80
FF8000FF80
FF8000FF80
FF8000FF80
FF8000FF80
FF8000FF80
FF8000FF80
FF8000FF80
FF8000FF80
FF8000FF80
FF8000FF80
FF8000FF80
FF8000FF80
FF8000FF80
FF8000FF80
FF8000FF80
FF8000FF80
FF8000FF80
FF8000FF80
FF8000FF80
FF8000FF80
FF8000FF80
FF8000FF80
FF8000FF80
FF8000FF80
FF8000FF80
FF8000FF80
FF8000FF80
FF8000FF80
FF8000FF80
FFC000FF80
FFFFFFFF80
7FFFFFFF80
7FFFFFFF80
7FFFFFFF80
3FFFFFFF80
1FFFFFFF80
0FFFFFFF80
01FFFFFF80
000000FF80
000000FF80
000000FF80
000000FF80
000000FF80
000000FF80
000000FF80
000000FF80
000000FF80
000000FF80
000001FF80
FFFFFFFF80
FFFFFFFF00
FFFFFFFF00
FFFFFFFF00
FFFFFFFE00
FFFFFFFC00
FFFFFFF800
FFFFFFC000
ENDCHAR
STARTCHAR 0068
ENCODING 104
SWIDTH 468 0
DWIDTH 45 0
BBX 33 67 6 1
BITMAP
FF80000000
FF80000000
FF80000000
FF80000000
FF80000000
FF80000000
FF80000000
FF80000000
FF80000000
FF80000000
FF80000000
FF80000000
FF80000000
FF80000000
FF80000000
FF80000000
FF80000000
FF80000000
FF80000000
FFFFFFC000
FFFFFFF800
FFFFFFFC00
FFFFFFFE00
FFFFFFFF00
FFFFFFFF00
FFFFFFFF00
FFFFFFFF80
FF8001FF80
FF8000FF80
FF8000FF80
FF8000FF80
FF8000FF80
FF8000FF80
FF8000FF80
FF8000FF80
FF8000FF80
FF8000FF80
FF8000FF80
FF8000FF80
FF8000FF80
FF8000FF80
FF8000FF80
FF8000FF80
FF8000FF80
FF8000FF80
FF8000FF80
FF8000FF80
FF8000FF80
FF8000FF80
FF8000FF80
FF8000FF80
FF8000FF80
FF8000FF80
FF8000FF80
FF8000FF80
FF8000FF80
FF8000FF80
FF8000FF80
FF8000FF80
FF8000FF80
FF8000FF80
FF8000FF80
FF8000FF80
FF8000FF80
FF8000FF80
FF8000FF80
FF8000FF80
ENDCHAR
STARTCHAR 0069
ENCODING 105
SWIDTH 218 0
DWIDTH 21 0
BBX 9 63 6 0
BITMAP
FF80
FF80
FF80
FF80
FF80
FF80
FF80
FF80
FF80
0000
0000
0000
0000
0000
0000
FF80
FF80
FF80
FF80
FF80
FF80
FF80
FF80
FF80
FF80
FF80
FF80
FF80
FF80
FF80
FF80
FF80
FF80
FF80
FF80
FF80
FF80
FF80
FF80
FF80
FF80
FF80
FF80
FF80
FF80
FF80
FF80
FF80
FF80
FF80
FF80
FF80
FF80
FF80
FF80
FF80
FF80
FF80
FF80
FF80
FF80
FF80
FF80
ENDCHAR
STARTCHAR 006A
ENCODING 106
SWIDTH 218 0
DWIDTH 21 0
BBX 12 82 3 -20
BITMAP
1FF0
1FF0
1FF0
1FF0
1FF0
1FF0
1FF0
1FF0
1FF0
0000
0000
0000
0000
0000
0000
1FF0
1FF0
1FF0
1FF0
1FF0
1FF0
1FF0
1FF0
1FF0
1FF0
1FF0
1FF0
1FF0
1FF0
1FF0
1FF0
1FF0
1FF0
1FF0
1FF0
1FF0
1FF0
1FF0
1FF0
1FF0
1FF0
1FF0
1FF0
1FF0
1FF0
1FF0
1FF0
1FF0
1FF0
1FF0
1FF0
1FF0
1FF0
1FF0
1FF0
1FF0
1FF0
1FF0
1FF0
1FF0
1FF0
1FF0
1FF0
1FF0
1FF0
1FF0
1FF0
1FF0
1FF0
1FF0
3FF0
3FE0
3FE0
3FE0
3FE0
3FE0
7FE0
7FC0
7FC0
7FC0
FF80
FF80
ENDCHAR
STARTCHAR 006B
ENCODING 107
SWIDTH 447 0
DWIDTH 43 0
BBX 35 67 6 1
BITMAP
FF80000000
FF80000000
FF80000000
FF80000000
FF80000000
FF80000000
FF80000000
FF80000000
FF80000000
FF80000000
FF80000000
FF80000000
FF80000000
FF80000000
FF80000000
FF80000000
FF80000000
FF80000000
FF80000000
FF80007FC0
FF8000FFC0
FF8000FF80
FF8001FF80
FF8001FF00
FF8001FF00
FF8003FE00
FF8003FE00
FF8007FC00
FF8007FC00
FF8007FC00
FF800FF800
FF800FF800
FF801FF000
FF801FF000
FF803FE000
FF803FE000
FF807FE000
FFFFFFC000
FFFFFF8000
FFFFFF0000
FFFFFF0000
FFFFFF8000
FFFFFFC000
FFFFFFC000
FF807FE000
FF803FE000
FF803FE000
FF801FF000
FF801FF000
FF801FF800
FF800FF800
FF800FF800
FF800FFC00
FF8007FC00
FF8007FE00
FF8007FE00
FF8003FE00
FF8003FF00
FF8003FF00
FF8001FF80
FF8001FF80
FF8001FF80
FF8000FFC0
FF8000FFC0
FF8000FFC0
FF80007FE0
FF80007FE0
ENDCHAR
STARTCHAR 006C
ENCODING 108
SWIDTH 218 0
DWIDTH 21 0
BBX 9 67 6 1
BITMAP
FF80
FF80
FF80
FF80
FF80
FF80
FF80
FF80
FF80
FF80
FF80
FF80
FF80
FF80
FF80
FF80
FF80
FF80
FF80
FF80
FF80
FF80
FF80
FF80
FF80
FF80
FF80
FF80
FF80
FF80
FF80
FF80
FF80
FF80
FF80
FF80
FF80
FF80
FF80
FF80
FF80
FF80
FF80
FF80
FF80
FF80
FF80
FF80
FF80
FF80
FF80
FF80
FF80
FF80
FF80
FF80
FF80
FF80
FF80
FF80
FF80
FF80
FF80
FF80
FF80
FF80
FF80
ENDCHAR
STARTCHAR 006D
ENCODING 109
SWIDTH 677 0
DWIDTH 65 0
BBX 53 48 6 0
BITMAP
FFFFF800FFFC00
FFFFFF03FFFF80
FFFFFF87FFFFC0
FFFFFFCFFFFFE0
FFFFFFCFFFFFF0
FFFFFFFFFFFFF0
FFFFFFFFFFFFF0
FFFFFFFFFFFFF8
FF8007FF001FF8
FF8003FE000FF8
FF8003FE000FF8
FF8003FE000FF8
FF8003FE000FF8
FF8003FE000FF8
FF8003FE000FF8
FF8003FE000FF8
FF8003FE000FF8
FF8003FE000FF8
FF8003FE000FF8
FF8003FE000FF8
FF8003FE000FF8
FF8003FE000FF8
FF8003FE000FF8
FF8003FE000FF8
FF8003FE000FF8
FF8003FE000FF8
FF8003FE000FF8
FF8003FE000FF8
FF8003FE000FF8
FF8003FE000FF8
FF8003FE000FF8
FF8003FE000FF8
FF8003FE000FF8
FF8003FE000FF8
FF8003FE000FF8
FF8003FE000FF8
FF8003FE000FF8
FF8003FE000FF8
FF8003FE000FF8
FF8003FE000FF8
FF8003FE000FF8
FF8003FE000FF8
FF8003FE000FF8
FF8003FE000FF8
FF8003FE000FF8
FF8003FE000FF8
FF8003FE000FF8
FF8003FE000FF8
ENDCHAR
STARTCHAR 006E
ENCODING 110
SWIDTH 468 0
DWIDTH 45 0
BBX 33 48 6 0
BITMAP
FFFFFFE000
FFFFFFF800
FFFFFFFC00
FFFFFFFE00
FFFFFFFF00
FFFFFFFF00
FFFFFFFF00
FFFFFFFF80
FF8001FF80
FF8000FF80
FF8000FF80
FF8000FF80
FF8000FF80
FF8000FF80
FF8000FF80
FF8000FF80
FF8000FF80
FF8000FF80
FF8000FF80
FF8000FF80
FF8000FF80
FF8000FF80
FF8000FF80
FF8000FF80
FF8000FF80
FF8000FF80
FF8000FF80
FF8000FF80
FF8000FF80
FF8000FF80
FF8000FF80
FF8000FF80
FF8000FF80
FF8000FF80
FF8000FF80
FF8000FF80
FF8000FF80
FF8000FF80
FF8000FF80
FF8000FF80
FF8000FF80
FF8000FF80
FF8000FF80
FF8000FF80
FF8000FF80
FF8000FF80
FF8000FF80
FF8000FF80
ENDCHAR
STARTCHAR 006F
ENCODING 111
SWIDTH 468 0
DWIDTH 45 0
BBX 33 48 6 0
BITMAP
01FFFFE000
0FFFFFF800
1FFFFFFC00
3FFFFFFE00
7FFFFFFF00
7FFFFFFF00
7FFFFFFF00
FFFFFFFF80
FFC001FF80
FF8000FF80
FF8000FF80
FF8000FF80
FF8000FF80
FF8000FF80
FF8000FF80
FF8000FF80
FF8000FF80
FF8000FF80
FF8000FF80
FF8000FF80
FF8000FF80
FF8000FF80
FF8000FF80
FF8000FF80
FF8000FF80
FF8000FF80
FF8000FF80
FF8000FF80
FF8000FF80
FF8000FF80
FF8000FF80
FF8000FF80
FF8000FF80
FF8000FF80
FF8000FF80
FF8000FF80
FF8000FF80
FF8000FF80
FF8000FF80
FFC001FF80
FFFFFFFF80
7FFFFFFF00
7FFFFFFF00
7FFFFFFF00
3FFFFFFE00
1FFFFFFC00
0FFFFFF800
03FFFFC000
ENDCHAR
STARTCHAR 0070
ENCODING 112
SWIDTH 468 0
DWIDTH 45 0
BBX 33 67 6 -20
BITMAP
FFFFFFE000
FFFFFFF800
FFFFFFFC00
FFFFFFFE00
FFFFFFFF00
FFFFFFFF00
FFFFFFFF00
FFFFFFFF80
FF8001FF80
FF8000FF80
FF8000FF80
FF8000FF80
FF8000FF80
FF8000FF80
FF8000FF80
FF8000FF80
FF8000FF80
FF8000FF80
FF8000FF80
FF8000FF80
FF8000FF80
FF8000FF80
FF8000FF80
FF8000FF80
FF8000FF80
FF8000FF80
FF8000FF80
FF8000FF80
FF8000FF80
FF8000FF80
FF8000FF80
FF8000FF80
FF8000FF80
FF8000FF80
FF8000FF80
FF8000FF80
FF8000FF80
FF8000FF80
FF8000FF80
FF8001FF80
FFFFFFFF80
FFFFFFFF00
FFFFFFFF00
FFFFFFFF00
FFFFFFFE00
FFFFFFFC00
FFFFFFF800
FFFFFFC000
FF80000000
FF80000000
FF80000000
FF80000000
FF80000000
FF80000000
FF80000000
FF80000000
FF80000000
FF80000000
FF80000000
FF80000000
FF80000000
FF80000000
FF80000000
FF80000000
FF80000000
FF80000000
FF80000000
ENDCHAR
STARTCHAR 0071
ENCODING 113
SWIDTH 468 0
DWIDTH 45 0
BBX 33 67 6 -20
BITMAP
01FFFFFF80
0FFFFFFF80
1FFFFFFF80
3FFFFFFF80
7FFFFFFF80
7FFFFFFF80
7FFFFFFF80
FFFFFFFF80
FFC000FF80
FF8000FF80
FF8000FF80
FF8000FF80
FF8000FF80
FF8000FF80
FF8000FF80
FF8000FF80
FF8000FF80
FF8000FF80
FF8000FF80
FF8000FF80
FF8000FF80
FF8000FF80
FF8000FF80
FF8000FF80
FF8000FF80
FF8000FF80
FF8000FF80
FF8000FF80
FF8000FF80
FF8000FF80
FF8000FF80
FF8000FF80
FF8000FF80
FF8000FF80
FF8000FF80
FF8000FF80
FF8000FF80
FF8000FF80
FF8000FF80
FFC000FF80
FFFFFFFF80
7FFFFFFF80
7FFFFFFF80
7FFFFFFF80
3FFFFFFF80
1FFFFFFF80
0FFFFFFF80
01FFFFFF80
000000FF80
000000FF80
000000FF80
000000FF80
000000FF80
000000FF80
000000FF80
000000FF80
000000FF80
000000FF80
000000FF80
000000FF80
000000FF80
000000FF80
000000FF80
000000FF80
000000FF80
000000FF80
000000FF80
ENDCHAR
STARTCHAR 0072
ENCODING 114
SWIDTH 312 0
DWIDTH 30 0
BBX 23 48 6 0
BITMAP
FF87FE
FF9FFE
FFBFFE
FFBFFE
FFFFFE
FFFFFE
FFFFFE
FFFFFE
FFF806
FFE000
FFC000
FF8000
FF8000
FF8000
FF8000
FF8000
FF8000
FF8000
FF8000
FF8000
FF8000
FF8000
FF8000
FF8000
FF8000
FF8000
FF8000
FF8000
FF8000
FF8000
FF8000
FF8000
FF8000
FF8000
FF8000
FF8000
FF8000
FF8000
FF8000
FF8000
FF8000
FF8000
FF8000
FF8000
FF8000
FF8000
FF8000
FF8000
ENDCHAR
STARTCHAR 0073
ENCODING 115
SWIDTH 406 0
DWIDTH 39 0
BBX 29 48 5 0
BITMAP
01FFFFF8
0FFFFFF8
1FFFFFF8
3FFFFFF8
7FFFFFF8
7FFFFFF8
7FFFFFF8
FFFFFFF8
FF800000
FF000000
FF000000
FF000000
FF000000
FF000000
FF800000
FF800000
FFE00000
7FF00000
7FFC0000
3FFF0000
1FFF8000
0FFFE000
07FFF800
01FFFE00
00FFFF00
003FFFC0
000FFFE0
0007FFE0
0001FFF0
00007FF0
00001FF8
00000FF8
000007F8
000007F8
000007F8
000007F8
000007F8
000007F8
000007F8
00000FF8
FFFFFFF8
FFFFFFF0
FFFFFFF0
FFFFFFF0
FFFFFFE0
FFFFFFC0
FFFFFF80
FFFFFE00
ENDCHAR
STARTCHAR 0074
ENCODING 116
SWIDTH 312 0
DWIDTH 30 0
BBX 21 61 6 1
BITMAP
018000
078000
1F8000
7F8000
FF8000
FF8000
FF8000
FF8000
FF8000
FF8000
FF8000
FF8000
FF8000
FFFFF8
FFFFF8
FFFFF8
FFFFF8
FFFFF8
FFFFF8
FFFFF8
FFFFF8
FF8000
FF8000
FF8000
FF8000
FF8000
FF8000
FF8000
FF8000
FF8000
FF8000
FF8000
FF8000
FF8000
FF8000
FF8000
FF8000
FF8000
FF8000
FF8000
FF8000
FF8000
FF8000
FF8000
FF8000
FF8000
FF8000
FF8000
FF8000
FF8000
FF8000
FFC000
FFC000
FFFFF8
7FFFF8
7FFFF8
7FFFF8
3FFFF8
1FFFF8
0FFFF8
01FFF8
ENDCHAR
STARTCHAR 0075
ENCODING 117
SWIDTH 468 0
DWIDTH 45 0
BBX 33 48 6 0
BITMAP
FF8000FF80
FF8000FF80
FF8000FF80
FF8000FF80
FF8000FF80
FF8000FF80
FF8000FF80
FF8000FF80
FF8000FF80
FF8000FF80
FF8000FF80
FF8000FF80
FF8000FF80
FF8000FF80
FF8000FF80
FF8000FF80
FF8000FF80
FF8000FF80
FF8000FF80
FF8000FF80
FF8000FF80
FF8000FF80
FF8000FF80
FF8000FF80
FF8000FF80
FF8000FF80
FF8000FF80
FF8000FF80
FF8000FF80
FF8000FF80
FF8000FF80
FF8000FF80
FF8000FF80
FF8000FF80
FF8000FF80
FF8000FF80
FF8000FF80
FF8000FF80
FF8000FF80
FFC000FF80
FFFFFFFF80
7FFFFFFF80
7FFFFFFF80
7FFFFFFF80
3FFFFFFF80
1FFFFFFF80
0FFFFFFF80
03FFFFFF80
ENDCHAR
STARTCHAR 0076
ENCODING 118
SWIDTH 416 0
DWIDTH 40 0
BBX 39 48 1 0
BITMAP
FFC00007FE
FFC00007FE
7FE00007FC
7FE0000FFC
7FE0000FFC
3FE0000FF8
3FF0000FF8
3FF0001FF8
3FF0001FF0
1FF0001FF0
1FF8001FF0
1FF8003FF0
0FF8003FE0
0FF8003FE0
0FFC003FE0
0FFC007FC0
07FC007FC0
07FC007FC0
07FE007FC0
03FE00FF80
03FE00FF80
03FE00FF80
01FF00FF00
01FF01FF00
01FF01FF00
01FF01FE00
00FF81FE00
00FF83FE00
00FF83FE00
007F83FC00
007FC3FC00
007FC7FC00
007FC7F800
003FC7F800
003FE7F800
003FEFF000
001FEFF000
001FEFF000
001FFFF000
001FFFE000
000FFFE000
000FFFE000
000FFFC000
0007FFC000
0007FFC000
0007FF8000
0003FF8000
0003FF8000
ENDCHAR
STARTCHAR 0077
ENCODING 119
SWIDTH 656 0
DWIDTH 63 0
BBX 60 48 1 0
BITMAP
FFC0007FE0003FF0
FFC0007FE0003FF0
7FE0007FE0003FE0
7FE0007FF0003FE0
7FE0007FF0007FE0
7FE000FFF0007FE0
3FE000FFF0007FC0
3FF000FFF0007FC0
3FF000FFF8007FC0
3FF000FFF800FF80
1FF001FFF800FF80
1FF001FFF800FF80
1FF801FFF800FF80
0FF801FFF801FF00
0FF801FFFC01FF00
0FF801F9FC01FF00
0FFC03F9FC01FF00
07FC03F9FC01FE00
07FC03F9FC03FE00
07FC03F9FE03FE00
07FC03F1FE03FC00
03FE07F0FE03FC00
03FE07F0FE03FC00
03FE07F0FE07FC00
03FE07F0FE07F800
01FF07E0FF07F800
01FF07E07F07F800
01FF0FE07F0FF800
01FF0FE07F0FF000
00FF0FE07F0FF000
00FF8FC07F8FF000
00FF8FC03F8FF000
007F9FC03F9FE000
007F9FC03F9FE000
007F9FC03F9FE000
007FDFC03FDFC000
003FDF803FFFC000
003FFF801FFFC000
003FFF801FFFC000
003FFF801FFF8000
001FFF801FFF8000
001FFF001FFF8000
001FFF000FFF8000
001FFF000FFF0000
000FFF000FFF0000
000FFF000FFF0000
000FFE000FFE0000
000FFE0007FE0000
ENDCHAR
STARTCHAR 0078
ENCODING 120
SWIDTH 437 0
DWIDTH 42 0
BBX 39 48 2 0
BITMAP
FFE00007FE
7FE0000FFC
7FF0000FF8
3FF0001FF8
1FF8003FF0
1FF8003FF0
0FFC007FE0
0FFC007FC0
07FE00FFC0
03FE00FF80
03FF01FF80
01FF81FF00
01FF83FE00
00FFC3FE00
007FC7FC00
007FEFFC00
003FEFF800
003FFFF000
001FFFF000
000FFFE000
000FFFE000
0007FFC000
0007FF8000
0003FF8000
0003FF8000
0003FFC000
0007FFC000
000FFFE000
000FFFE000
001FFFF000
001FFFF800
003FEFF800
007FEFFC00
007FC7FC00
00FF87FE00
00FF83FF00
01FF03FF00
03FF01FF80
03FE01FF80
07FE00FFC0
07FC00FFE0
0FFC007FE0
1FF8003FF0
1FF8003FF0
3FF0001FF8
3FE0001FFC
7FE0000FFC
FFC0000FFE
ENDCHAR
STARTCHAR 0079
ENCODING 121
SWIDTH 416 0
DWIDTH 40 0
BBX 39 67 1 -20
BITMAP
FFC00007FE
FFC00007FE
7FE00007FC
7FE0000FFC
7FE0000FFC
3FE0000FF8
3FF0000FF8
3FF0001FF8
3FF0001FF0
1FF0001FF0
1FF8001FF0
1FF8003FF0
0FF8003FE0
0FF8003FE0
0FFC003FE0
0FFC007FC0
07FC007FC0
07FC007FC0
07FE007F80
03FE00FF80
03FE00FF80
03FE00FF80
01FF00FF00
01FF01FF00
01FF01FF00
01FF01FE00
00FF81FE00
00FF83FE00
00FF83FC00
007F83FC00
007FC3FC00
007FC7FC00
007FC7F800
003FC7F800
003FC7F800
003FEFF000
001FEFF000
001FEFF000
001FEFE000
001FFFE000
000FFFE000
000FFFE000
000FFFC000
0007FFC000
0007FFC000
0007FF8000
0003FF8000
0003FF8000
0001FF0000
0001FF0000
0003FF0000
0003FF0000
0003FE0000
0007FE0000
0007FE0000
0007FC0000
000FFC0000
000FFC0000
000FF80000
001FF80000
001FF80000
001FF80000
003FF00000
003FF00000
003FF00000
007FE00000
007FE00000
ENDCHAR
STARTCHAR 007A
ENCODING 122
SWIDTH 416 0
DWIDTH 40 0
BBX 33 48 3 0
BITMAP
FFFFFFFF80
FFFFFFFF80
FFFFFFFF80
FFFFFFFF80
FFFFFFFF00
FFFFFFFF00
FFFFFFFE00
FFFFFFFE00
000007FC00
000007F800
00000FF800
00001FF000
00001FF000
00003FE000
00003FC000
00007FC000
0000FF8000
0000FF8000
0001FF0000
0001FF0000
0003FE0000
0003FC0000
0007FC0000
000FF80000
000FF80000
001FF00000
001FF00000
003FE00000
007FC00000
007FC00000
00FF800000
00FF800000
01FF000000
03FE000000
03FE000000
07FC000000
07FC000000
0FF8000000
1FF8000000
1FF0000000
3FFFFFFF80
3FFFFFFF80
7FFFFFFF80
FFFFFFFF80
FFFFFFFF80
FFFFFFFF80
FFFFFFFF80
FFFFFFFF80
ENDCHAR
STARTCHAR 007B
ENCODING 123
SWIDTH 322 0
DWIDTH 31 0
BBX 25 86 2 -19
BITMAP
00003F80
0003FF80
001FFF80
003FFF80
007FFF80
00FFFF80
01FFFF80
01FFFF80
03FFE000
03FF0000
03FE0000
03FE0000
07FC0000
07FC0000
07FC0000
07FC0000
07FC0000
07FC0000
07FC0000
07FC0000
07FC0000
07FC0000
07FC0000
07FC0000
07FC0000
07FC0000
07FC0000
07FC0000
07FC0000
07FC0000
07FC0000
07FC0000
07FC0000
07FC0000
07FC0000
0FFC0000
0FFC0000
3FF80000
FFF80000
FFF00000
FFC00000
FFE00000
FFF00000
FFF80000
3FF80000
1FFC0000
0FFC0000
07FC0000
07FC0000
07FC0000
07FC0000
07FC0000
07FC0000
07FC0000
07FC0000
07FC0000
07FC0000
07FC0000
07FC0000
07FC0000
07FC0000
07FC0000
07FC0000
07FC0000
07FC0000
07FC0000
07FC0000
07FC0000
07FC0000
07FC0000
07FC0000
07FC0000
07FC0000
07FE0000
07FE0000
03FE0000
03FF8000
03FFE000
01FFFF80
01FFFF80
00FFFF80
007FFF80
003FFF80
001FFF80
0007FF80
00007F80
ENDCHAR
STARTCHAR 007C
ENCODING 124
SWIDTH 229 0
DWIDTH 22 0
BBX 9 86 7 -19
BITMAP
FF80
FF80
FF80
FF80
FF80
FF80
FF80
FF80
FF80
FF80
FF80
FF80
FF80
FF80
FF80
FF80
FF80
FF80
FF80
FF80
FF80
FF80
FF80
FF80
FF80
FF80
FF80
FF80
FF80
FF80
FF80
FF80
FF80
FF80
FF80
FF80
FF80
FF80
FF80
FF80
FF80
FF80
FF80
FF80
FF80
FF80
FF80
FF80
FF80
FF80
FF80
FF80
FF80
FF80
FF80
FF80
FF80
FF80
FF80
FF80
FF80
FF80
FF80
FF80
FF80
FF80
FF80
FF80
FF80
FF80
FF80
FF80
FF80
FF80
FF80
FF80
FF80
FF80
FF80
FF80
FF80
FF80
FF80
FF80
FF80
FF80
ENDCHAR
STARTCHAR 007D
ENCODING 125
SWIDTH 322 0
DWIDTH 31 0
BBX 25 86 3 -19
BITMAP
FF000000
FFF00000
FFFC0000
FFFE0000
FFFF0000
FFFF8000
FFFFC000
FFFFC000
03FFE000
00FFE000
003FE000
003FF000
001FF000
001FF000
001FF000
001FF000
001FF000
001FF000
001FF000
001FF000
001FF000
001FF000
001FF000
001FF000
001FF000
001FF000
001FF000
001FF000
001FF000
001FF000
001FF000
001FF000
001FF000
001FF000
001FF000
001FF800
001FFC00
000FFE00
000FFF80
0007FF80
0001FF80
0003FF80
0007FF80
000FFF80
000FFE00
001FFC00
001FF800
001FF000
001FF000
001FF000
001FF000
001FF000
001FF000
001FF000
001FF000
001FF000
001FF000
001FF000
001FF000
001FF000
001FF000
001FF000
001FF000
001FF000
001FF000
001FF000
001FF000
001FF000
001FF000
001FF000
001FF000
001FF000
001FF000
001FF000
003FF000
003FE000
007FE000
01FFE000
FFFFC000
FFFFC000
FFFF8000
FFFF0000
FFFE0000
FFFC0000
FFE00000
FE000000
ENDCHAR
STARTCHAR 007E
ENCODING 126
SWIDTH 479 0
DWIDTH 46 0
BBX 38 17 4 40
BITMAP
01F80000FC
07FF0000FC
0FFF8000FC
1FFFE000FC
3FFFF000FC
3FFFF800FC
7FFFFC01FC
7FFFFF01FC
7F07FF83FC
FE03FFFFF8
FE00FFFFF8
FC007FFFF8
FC003FFFF0
FC000FFFF0
FC0007FFE0
FC0001FFC0
FC00007E00
ENDCHAR
STARTCHAR 00A0
ENCODING 160
SWIDTH 260 0
DWIDTH 25 0
BBX 0 0 0 0
BITMAP
ENDCHAR
STARTCHAR 00A1
ENCODING 161
SWIDTH 208 0
DWIDTH 20 0
BBX 9 67 5 -20
BITMAP
FF80
FF80
FF80
FF80
FF80
FF80
FF80
FF80
FF80
FF80
0000
0000
0000
0000
0000
0000
FF80
FF80
FF80
FF80
FF80
FF80
FF80
FF80
FF80
FF80
FF80
FF80
FF80
FF80
FF80
FF80
FF80
FF80
FF80
FF80
FF80
FF80
FF80
FF80
FF80
FF80
FF80
FF80
FF80
FF80
FF80
FF80
FF80
FF80
FF80
FF80
FF80
FF80
FF80
FF80
FF80
FF80
FF80
FF80
FF80
FF80
FF80
FF80
FF80
FF80
FF80
ENDCHAR
STARTCHAR 00A2
ENCODING 162
SWIDTH 385 0
DWIDTH 37 0
BBX 29 67 4 1
BITMAP
0007F800
0007F800
0007F800
0007F800
0007F800
0007F800
0007F800
0007F800
0007F800
03FFFFF8
0FFFFFF8
1FFFFFF8
3FFFFFF8
3FFFFFF8
7FFFFFF8
7FFFFFF8
FFFFFFF8
FFE00008
FFC00000
FF800000
FF800000
FF800000
FF800000
FF800000
FF800000
FF800000
FF800000
FF800000
FF800000
FF800000
FF800000
FF800000
FF800000
FF800000
FF800000
FF800000
FF800000
FF800000
FF800000
FF800000
FF800000
FF800000
FF800000
FF800000
FF800000
FF800000
FF800000
FFC00000
FFE00000
FFFFFFF8
7FFFFFF8
7FFFFFF8
7FFFFFF8
3FFFFFF8
1FFFFFF8
0FFFFFF8
03FFFFF8
0007F800
0007F800
0007F800
0007F800
0007F800
0007F800
0007F800
0007F800
0007F800
0007F800
ENDCHAR
STARTCHAR 00A3
ENCODING 163
SWIDTH 458 0
DWIDTH 44 0
BBX 40 67 3 0
BITMAP
001FFFF800
00FFFFF800
01FFFFF800
03FFFFF800
07FFFFF800
07FFFFF800
07FFFFF800
0FFFFFF800
0FFF807800
0FFC000000
0FF8000000
0FF8000000
0FF8000000
0FF8000000
0FF8000000
0FF8000000
0FF8000000
0FF8000000
0FF8000000
0FF8000000
0FF8000000
0FF8000000
0FF8000000
0FF8000000
0FF8000000
0FF8000000
0FF8000000
0FF8000000
0FF8000000
0FF8000000
FFFFFFF000
FFFFFFF000
FFFFFFF000
FFFFFFF000
FFFFFFF000
FFFFFFF000
FFFFFFF000
0FF8000000
0FF8000000
0FF8000000
0FF8000000
0FF8000000
0FF8000000
0FF8000000
0FF8000000
0FF8000000
0FF8000000
0FF8000000
0FF8000000
0FF8000000
0FF8000000
0FF8000000
0FF8000000
0FF8000000
0FF8000000
0FF8000000
0FF8000000
0FF8000000
0FF8000001
0FFFFFFFFF
0FFFFFFFFF
0FFFFFFFFF
0FFFFFFFFF
0FFFFFFFFF
0FFFFFFFFF
0FFFFFFFFF
0FFFFFFFFF
ENDCHAR
STARTCHAR 00A4
ENCODING 164
SWIDTH 531 0
DWIDTH 51 0
BBX 48 67 2 1
BITMAP
FF00000001FF
FF00000001FE
7F80000003FE
7FC0000007FC
3FE0000007FC
1FE000000FF8
1FF000001FF0
0FF800003FF0
0FFC00003FE0
07FE00007FE0
07FE0000FFC0
03FFFFFFFFC0
03FFFFFFFF80
01FFFFFFFF80
01FFFFFFFF00
01FFFFFFFF00
01FFFFFFFF00
01FFFFFFFF00
01FFFFFFFF00
01FF8007FF00
01FF8003FF00
01FF0001FF00
01FF0001FF00
01FF0001FF00
01FF0001FF00
01FF0001FF00
01FF0001FF00
01FF0001FF00
01FF0001FF00
01FF0001FF00
01FF0001FF00
01FF0001FF00
01FF0001FF00
01FF0001FF00
01FF0001FF00
01FF0001FF00
01FF0001FF00
01FF0001FF00
01FF0001FF00
01FF0001FF00
01FF0001FF00
01FF0001FF00
01FF0001FF00
01FF0001FF00
01FF0001FF00
01FF0001FF00
01FF8001FF00
01FFC003FF00
01FFFFFFFF00
01FFFFFFFF00
01FFFFFFFF00
01FFFFFFFF00
01FFFFFFFF00
01FFFFFFFF80
03FFFFFFFF80
03FFFFFFFFC0
07FE00007FC0
07FC00007FE0
0FFC00003FE0
0FF800001FF0
1FF000001FF8
3FE000000FF8
3FE0000007FC
7FC0000007FC
7F80000003FE
FF00000001FE
FE00000000FF
ENDCHAR
STARTCHAR 00A5
ENCODING 165
SWIDTH 520 0
DWIDTH 50 0
BBX 51 68 0 0
BITMAP
FFE0000000FFE0
FFF0000001FFC0
7FF0000001FF80
3FF8000003FF80
3FF8000003FF00
1FFC000007FF00
1FFC000007FE00
0FFE00000FFE00
0FFE00000FFC00
07FF00001FFC00
07FF00001FF800
03FF80003FF800
01FF80003FF000
01FFC0007FF000
00FFC0007FE000
00FFE000FFC000
007FE000FFC000
007FF001FF8000
003FF001FF8000
003FF803FF0000
001FF803FF0000
001FFC07FE0000
000FFC07FE0000
0007FE0FFC0000
0007FE0FFC0000
0003FF1FF80000
0003FF1FF80000
0001FFBFF00000
0001FFBFF00000
0000FFFFE00000
0000FFFFC00000
00007FFFC00000
00003FFF800000
00003FFF800000
00001FFF000000
00001FFF000000
00000FFE000000
00000FFE000000
000007FC000000
000007FC000000
000007FC000000
000007FC000000
000007FC000000
0003FFFFF80000
0003FFFFF80000
0003FFFFF80000
0003FFFFF80000
0003FFFFF80000
0003FFFFF80000
0003FFFFF80000
000007FC000000
000007FC000000
000007FC000000
000007FC000000
000007FC000000
000007FC000000
000007FC000000
000007FC000000
000007FC000000
000007FC000000
000007FC000000
000007FC000000
000007FC000000
000007FC000000
000007FC000000
000007FC000000
000007FC000000
000007FC000000
ENDCHAR
STARTCHAR 00A7
ENCODING 167
SWIDTH 447 0
DWIDTH 43 0
BBX 33 86 5 -19
BITMAP
01FFFFFF80
07FFFFFF80
1FFFFFFF80
3FFFFFFF80
3FFFFFFF80
7FFFFFFF80
7FFFFFFF80
FFFFFFFF80
FF80000000
FF00000000
FF00000000
FF00000000
FF00000000
FF00000000
FF00000000
FF80000000
FFC0000000
FFE0000000
FFF0000000
FFF8000000
FFFC000000
FFFE000000
FFFF800000
FFFFC00000
FFFFE00000
FF7FF00000
FF7FF80000
FF1FFE0000
FF0FFF0000
FF07FF8000
FF03FFC000
FF00FFE000
FF007FF800
FF003FFC00
FF000FFE00
FF0007FE00
FF0003FF00
FF0001FF00
FF0000FF80
FF0000FF80
FF00007F80
FF00007F80
FF00007F80
FF00007F80
FF80007F80
7FC0007F80
7FC0007F80
3FF0007F80
3FF8007F80
1FFC007F80
0FFF007F80
07FF807F80
03FFC07F80
01FFE07F80
007FF87F80
003FFC7F80
001FFE7F80
000FFF7F80
0007FFFF80
0001FFFF80
0000FFFF80
00007FFF80
00003FFF80
00001FFF80
000007FF80
000003FF80
000001FF80
000000FF80
0000007F80
0000007F80
0000007F80
0000007F80
0000007F80
0000007F80
0000007F80
0000007F80
0000007F80
000000FF80
FFFFFFFF80
FFFFFFFF80
FFFFFFFF00
FFFFFFFF00
FFFFFFFE00
FFFFFFFC00
FFFFFFF800
FFFFFFC000
ENDCHAR
STARTCHAR 00A8
ENCODING 168
SWIDTH 385 0
DWIDTH 37 0
BBX 22 9 7 56
BITMAP
FE01FC
FE01FC
FE01FC
FE01FC
FE01FC
FE01FC
FE01FC
FE01FC
FE01FC
ENDCHAR
STARTCHAR 00A9
ENCODING 169
SWIDTH 677 0
DWIDTH 65 0
BBX 51 67 7 0
BITMAP
01FFFFFFFFF800
0FFFFFFFFFFE00
1FFFFFFFFFFF00
3FFFFFFFFFFF80
7FFFFFFFFFFFC0
7FFFFFFFFFFFC0
7F800000003FC0
FF000000001FE0
FE000000000FE0
FE000000000FE0
FE000000000FE0
FE01FFFFFE0FE0
FE03FFFFFE0FE0
FE07FFFFFE0FE0
FE0FFFFFFE0FE0
FE0FFFFFFE0FE0
FE0FFFFFFE0FE0
FE0FE000000FE0
FE0FC000000FE0
FE0FC000000FE0
FE0FC000000FE0
FE0FC000000FE0
FE0FC000000FE0
FE0FC000000FE0
FE0FC000000FE0
FE0FC000000FE0
FE0FC000000FE0
FE0FC000000FE0
FE0FC000000FE0
FE0FC000000FE0
FE0FC000000FE0
FE0FC000000FE0
FE0FC000000FE0
FE0FC000000FE0
FE0FC000000FE0
FE0FC000000FE0
FE0FC000000FE0
FE0FC000000FE0
FE0FC000000FE0
FE0FC000000FE0
FE0FC000000FE0
FE0FC000000FE0
FE0FC000000FE0
FE0FC000000FE0
FE0FC000000FE0
FE0FC000000FE0
FE0FC000000FE0
FE0FC000000FE0
FE0FE000000FE0
FE0FFFFFFE0FE0
FE0FFFFFFE0FE0
FE0FFFFFFE0FE0
FE07FFFFFE0FE0
FE03FFFFFE0FE0
FE01FFFFFE0FE0
FE000000000FE0
FE000000000FE0
FE000000000FE0
FE000000000FE0
FF000000001FE0
7F800000001FC0
7FFFFFFFFFFFC0
7FFFFFFFFFFFC0
3FFFFFFFFFFF80
1FFFFFFFFFFF00
0FFFFFFFFFFE00
03FFFFFFFFF000
ENDCHAR
STARTCHAR 00AA
ENCODING 170
SWIDTH 458 0
DWIDTH 44 0
BBX 34 67 5 0
BITMAP
FFFFFFE000
FFFFFFFC00
FFFFFFFE00
FFFFFFFF00
FFFFFFFF80
FFFFFFFF80
FFFFFFFF80
FFFFFFFFC0
000000FFC0
0000007FC0
0000007FC0
0000007FC0
0000007FC0
0000007FC0
0000007FC0
0000007FC0
0000007FC0
0000007FC0
01FFFFFFC0
0FFFFFFFC0
1FFFFFFFC0
3FFFFFFFC0
7FFFFFFFC0
7FFFFFFFC0
7FE0007FC0
FFC0007FC0
FF80007FC0
FF80007FC0
FF80007FC0
FF80007FC0
FF80007FC0
FF80007FC0
FF80007FC0
FF80007FC0
FF80007FC0
FF80007FC0
FF80007FC0
FF80007FC0
FF80007FC0
FFC0007FC0
FFE0007FC0
7FFFFFFFC0
7FFFFFFFC0
7FFFFFFFC0
3FFFFFFFC0
1FFFFFFFC0
0FFFFFFFC0
01FFFFFFC0
0000000000
0000000000
0000000000
0000000000
0000000000
0000000000
0000000000
0000000000
0000000000
0000000000
0000000000
0000000000
FFFFFFFFC0
FFFFFFFFC0
FFFFFFFFC0
FFFFFFFFC0
FFFFFFFFC0
FFFFFFFFC0
FFFFFFFFC0
ENDCHAR
STARTCHAR 00AB
ENCODING 171
SWIDTH 625 0
DWIDTH 60 0
BBX 52 46 4 6
BITMAP
00000040000010
000000C0000070
000003C00000F0
000007C00001F0
00000FC00007F0
00003FC0000FF0
00007FC0001FF0
0000FFC0007FF0
0003FFC000FFE0
0007FF0001FFC0
000FFE0007FF80
003FFC000FFF00
007FF8001FFC00
00FFF0007FF800
03FFC000FFF000
07FF8001FFE000
0FFF0007FFC000
3FFE000FFF0000
7FF8001FFE0000
FFF0003FFC0000
FFE0003FF80000
FFC0003FE00000
FF80003FC00000
FFC0003FF00000
FFE0003FF80000
FFF0003FFC0000
FFFC003FFE0000
3FFE001FFF0000
1FFF0007FFC000
0FFF8003FFE000
03FFC001FFF000
01FFF0007FF800
00FFF8003FFE00
003FFC001FFF00
001FFE0007FF80
000FFF8003FFC0
0003FFC001FFF0
0001FFC0007FF0
0000FFC0003FF0
00003FC0001FF0
00001FC00007F0
00000FC00003F0
000003C00001F0
000001C0000070
000000C0000030
00000000000010
ENDCHAR
STARTCHAR 00AC
ENCODING 172
SWIDTH 468 0
DWIDTH 45 0
BBX 34 31 6 0
BITMAP
FFFFFFFFC0
FFFFFFFFC0
FFFFFFFFC0
FFFFFFFFC0
FFFFFFFFC0
FFFFFFFFC0
FFFFFFFFC0
0000007FC0
0000007FC0
0000007FC0
0000007FC0
0000007FC0
0000007FC0
0000007FC0
0000007FC0
0000007FC0
0000007FC0
0000007FC0
0000007FC0
0000007FC0
0000007FC0
0000007FC0
0000007FC0
0000007FC0
0000007FC0
0000007FC0
0000007FC0
0000007FC0
0000007FC0
0000007FC0
0000007FC0
ENDCHAR
STARTCHAR 00AE
ENCODING 174
SWIDTH 677 0
DWIDTH 65 0
BBX 51 67 7 0
BITMAP
01FFFFFFFFF800
0FFFFFFFFFFE00
1FFFFFFFFFFF00
3FFFFFFFFFFF80
7FFFFFFFFFFFC0
7FFFFFFFFFFFC0
7F800000003FC0
FF000000001FE0
FE000000000FE0
FE000000000FE0
FE000000000FE0
FE0FFFFFE00FE0
FE0FFFFFF00FE0
FE0FFFFFF80FE0
FE0FFFFFFC0FE0
FE0FFFFFFC0FE0
FE0FFFFFFC0FE0
FE0FC001FC0FE0
FE0FC000FC0FE0
FE0FC000FC0FE0
FE0FC000FC0FE0
FE0FC000FC0FE0
FE0FC000FC0FE0
FE0FC000FC0FE0
FE0FC000FC0FE0
FE0FC000FC0FE0
FE0FC000FC0FE0
FE0FC000FC0FE0
FE0FC000FC0FE0
FE0FC001FC0FE0
FE0FFFFFFC0FE0
FE0FFFFFFC0FE0
FE0FFFFFF80FE0
FE0FFFFFF80FE0
FE0FFFFFE00FE0
FE0FC03F800FE0
FE0FC01F800FE0
FE0FC01F800FE0
FE0FC00FC00FE0
FE0FC00FC00FE0
FE0FC00FE00FE0
FE0FC007E00FE0
FE0FC007E00FE0
FE0FC007F00FE0
FE0FC003F00FE0
FE0FC003F80FE0
FE0FC001F80FE0
FE0FC001F80FE0
FE0FC001FC0FE0
FE0FC000FC0FE0
FE0FC000FE0FE0
FE0FC0007E0FE0
FE0FC0007F0FE0
FE0FC0007F0FE0
FE0FC0003F0FE0
FE000000000FE0
FE000000000FE0
FE000000000FE0
FE000000000FE0
FF000000001FE0
7F800000001FC0
7FFFFFFFFFFFC0
7FFFFFFFFFFFC0
3FFFFFFFFFFF80
1FFFFFFFFFFF00
0FFFFFFFFFFE00
03FFFFFFFFF000
ENDCHAR
STARTCHAR 00AF
ENCODING 175
SWIDTH 385 0
DWIDTH 37 0
BBX 21 6 8 56
BITMAP
FFFFF8
FFFFF8
FFFFF8
FFFFF8
FFFFF8
FFFFF8
ENDCHAR
STARTCHAR 00B0
ENCODING 176
SWIDTH 333 0
DWIDTH 32 0
BBX 23 33 4 34
BITMAP
03FFC0
0FFFF0
3FFFF8
3FFFFC
7FFFFC
7FFFFC
FFFFFE
FE00FE
FC007E
FC007E
FC007E
FC007E
FC007E
FC007E
FC007E
FC007E
FC007E
FC007E
FC007E
FC007E
FC007E
FC007E
FC007E
FC007E
FE00FE
FF01FE
FFFFFE
7FFFFC
7FFFFC
7FFFF8
3FFFF8
1FFFE0
07FF80
ENDCHAR
STARTCHAR 00B1
ENCODING 177
SWIDTH 468 0
DWIDTH 45 0
BBX 33 49 6 0
BITMAP
0007F00000
0007F00000
0007F00000
0007F00000
0007F00000
0007F00000
0007F00000
0007F00000
0007F00000
0007F00000
0007F00000
0007F00000
0007F00000
0007F00000
FFFFFFFF80
FFFFFFFF80
FFFFFFFF80
FFFFFFFF80
FFFFFFFF80
FFFFFFFF80
FFFFFFFF80
0007F00000
0007F00000
0007F00000
0007F00000
0007F00000
0007F00000
0007F00000
0007F00000
0007F00000
0007F00000
0007F00000
0007F00000
0007F00000
0000000000
0000000000
0000000000
0000000000
0000000000
0000000000
0000000000
0000000000
FFFFFFFF80
FFFFFFFF80
FFFFFFFF80
FFFFFFFF80
FFFFFFFF80
FFFFFFFF80
FFFFFFFF80
ENDCHAR
STARTCHAR 00B4
ENCODING 180
SWIDTH 354 0
DWIDTH 34 0
BBX 18 14 8 54
BITMAP
003FC0
007F80
00FF80
00FF00
01FE00
03FC00
07F800
07F000
0FE000
1FE000
3FC000
3F8000
7F0000
FE0000
ENDCHAR
STARTCHAR 00B5
ENCODING 181
SWIDTH 468 0
DWIDTH 45 0
BBX 33 67 6 -20
BITMAP
FF8000FF80
FF8000FF80
FF8000FF80
FF8000FF80
FF8000FF80
FF8000FF80
FF8000FF80
FF8000FF80
FF8000FF80
FF8000FF80
FF8000FF80
FF8000FF80
FF8000FF80
FF8000FF80
FF8000FF80
FF8000FF80
FF8000FF80
FF8000FF80
FF8000FF80
FF8000FF80
FF8000FF80
FF8000FF80
FF8000FF80
FF8000FF80
FF8000FF80
FF8000FF80
FF8000FF80
FF8000FF80
FF8000FF80
FF8000FF80
FF8000FF80
FF8000FF80
FF8000FF80
FF8000FF80
FF8000FF80
FF8000FF80
FF8000FF80
FF8000FF80
FF8000FF80
FFC000FF80
FFFFFFFF80
FFFFFFFF80
FFFFFFFF80
FFFFFFFF80
FFFFFFFF80
FFFFFFFF80
FFFFFFFF80
FFFFFFFF80
FF80000000
FF80000000
FF80000000
FF80000000
FF80000000
FF80000000
FF80000000
FF80000000
FF80000000
FF80000000
FF80000000
FF80000000
FF80000000
FF80000000
FF80000000
FF80000000
FF80000000
FF80000000
FF80000000
ENDCHAR
STARTCHAR 00B6
ENCODING 182
SWIDTH 520 0
DWIDTH 50 0
BBX 40 67 6 1
BITMAP
07FFFFFFFF
1FFFFFFFFF
3FFFFFFFFF
3FFFFFFFFF
7FFFFFFFFF
7FFFFFFFFF
7FFFFFFFFF
7FFFFFFFFF
FFFFFFFFFF
FFFFFFFFFF
FFFFFFFFFF
FFFFFFFFFF
FFFFFFFFFF
FFFFFFFFFF
FFFFFFFFFF
FFFFFFFFFF
FFFFFFFFFF
FFFFFFFFFF
FFFFFFFFFF
FFFFFFFFFF
FFFFFFFFFF
FFFFFFFFFF
FFFFFFFFFF
FFFFFFFFFF
FFFFFFFFFF
FFFFFFFFFF
FFFFFFFFFF
FFFFFFFFFF
FFFFFFFFFF
FFFFFFFFFF
7FFFFFFFFF
7FFFFFFFFF
7FFFFFFFFF
7FFFFFFFFF
3FFFFFFFFF
3FFFFFFFFF
1FFFFFFFFF
07FFFFFFFF
00000001FF
00000001FF
00000001FF
00000001FF
00000001FF
00000001FF
00000001FF
00000001FF
00000001FF
00000001FF
00000001FF
00000001FF
00000001FF
00000001FF
00000001FF
00000001FF
00000001FF
00000001FF
00000001FF
00000001FF
00000001FF
00000001FF
00000001FF
00000001FF
00000001FF
00000001FF
00000001FF
00000001FF
00000001FF
ENDCHAR
STARTCHAR 00B7
ENCODING 183
SWIDTH 218 0
DWIDTH 21 0
BBX 10 10 5 23
BITMAP
FFC0
FFC0
FFC0
FFC0
FFC0
FFC0
FFC0
FFC0
FFC0
FFC0
ENDCHAR
STARTCHAR 00B8
ENCODING 184
SWIDTH 354 0
DWIDTH 34 0
BBX 19 20 8 -18
BITMAP
03F000
03E000
03E000
07E000
07FF00
07FF80
0FFFC0
0FFFE0
000FE0
0007E0
0007E0
0007E0
0007E0
0007E0
000FE0
7FFFE0
7FFFC0
7FFFC0
FFFF80
FFFE00
ENDCHAR
STARTCHAR 00BA
ENCODING 186
SWIDTH 468 0
DWIDTH 45 0
BBX 33 67 6 0
BITMAP
01FFFFE000
0FFFFFF800
1FFFFFFC00
3FFFFFFE00
7FFFFFFF00
7FFFFFFF00
7FFFFFFF00
FFFFFFFF80
FFC001FF80
FF8000FF80
FF8000FF80
FF8000FF80
FF8000FF80
FF8000FF80
FF8000FF80
FF8000FF80
FF8000FF80
FF8000FF80
FF8000FF80
FF8000FF80
FF8000FF80
FF8000FF80
FF8000FF80
FF8000FF80
FF8000FF80
FF8000FF80
FF8000FF80
FF8000FF80
FF8000FF80
FF8000FF80
FF8000FF80
FF8000FF80
FF8000FF80
FF8000FF80
FF8000FF80
FF8000FF80
FF8000FF80
FF8000FF80
FFC000FF80
FFE001FF80
FFFFFFFF80
7FFFFFFF00
7FFFFFFF00
7FFFFFFF00
3FFFFFFE00
1FFFFFFC00
0FFFFFF800
03FFFFC000
0000000000
0000000000
0000000000
0000000000
0000000000
0000000000
0000000000
0000000000
0000000000
0000000000
0000000000
0000000000
FFFFFFFF80
FFFFFFFF80
FFFFFFFF80
FFFFFFFF80
FFFFFFFF80
FFFFFFFF80
FFFFFFFF80
ENDCHAR
STARTCHAR 00BB
ENCODING 187
SWIDTH 625 0
DWIDTH 60 0
BBX 52 45 4 6
BITMAP
80000020000000
E0000030000000
F000003C000000
F800003E000000
FE00003F000000
FF00003FC00000
FF80003FE00000
FFE0003FF00000
FFF0003FFC0000
7FF8001FFE0000
3FFE000FFF0000
0FFF0007FFC000
07FF8003FFE000
03FFE000FFF000
01FFF0007FFC00
007FF8003FFE00
003FFE001FFF00
001FFF0007FFC0
000FFF8003FFE0
0007FFC001FFF0
0001FFC000FFF0
0000FFC0003FF0
00007FC0001FF0
00007FC0001FF0
0000FFC0003FF0
0001FFC000FFF0
0007FFC001FFF0
000FFF8003FFC0
001FFE0007FF80
003FFC001FFF00
007FF8003FFC00
01FFE0007FF800
03FFC000FFF000
07FF8001FFC000
0FFE0007FF8000
3FFC000FFF0000
7FF8001FFC0000
FFE0003FF80000
FFC0003FF00000
FF80003FC00000
FE00003F800000
FC00003E000000
F000003C000000
E0000038000000
C0000020000000
ENDCHAR
STARTCHAR 00BF
ENCODING 191
SWIDTH 406 0
DWIDTH 39 0
BBX 31 67 5 -19
BITMAP
0007FC00
0007FC00
0007FC00
0007FC00
0007FC00
0007FC00
0007FC00
0007FC00
0007FC00
0007FC00
00000000
00000000
00000000
00000000
00000000
00000000
0007FC00
0007FC00
0007FC00
0007FC00
0007FC00
0007FC00
0007FC00
0007FC00
0007FC00
0007FC00
0007FC00
0007FC00
0007FC00
0007FC00
0007FC00
0007FC00
0007FC00
0007FC00
0007FC00
000FFC00
001FF800
003FF800
007FF000
00FFF000
01FFE000
03FFC000
07FF8000
0FFF0000
1FFE0000
1FFC0000
3FF80000
7FF00000
7FE00000
7FC00000
FFC00000
FF800000
FF800000
FF800000
FF800000
FF800000
FF800000
FFC00000
FFE00002
FFFFFFFE
FFFFFFFE
7FFFFFFE
7FFFFFFE
7FFFFFFE
3FFFFFFE
1FFFFFFE
07FFFFFE
ENDCHAR
STARTCHAR 00C0
ENCODING 192
SWIDTH 500 0
DWIDTH 48 0
BBX 48 78 0 0
BITMAP
0007FFFFC000
0007FFFFC000
0007FFFFC000
0007FFFFC000
0007FFFFC000
0007FFFFC000
000000000000
000000000000
000000000000
000000000000
000000000000
00003FFC0000
00007FFC0000
00007FFC0000
00007FFE0000
00007FFE0000
0000FFFE0000
0000FFFE0000
0000FFFF0000
0000FFFF0000
0001FFFF0000
0001FFFF0000
0001FEFF8000
0001FEFF8000
0003FEFF8000
0003FCFFC000
0003FC7FC000
0007FC7FC000
0007FC7FC000
0007F87FE000
0007F83FE000
000FF83FE000
000FF83FF000
000FF03FF000
000FF01FF000
001FF01FF000
001FF01FF800
001FE01FF800
001FE00FF800
003FE00FF800
003FE00FFC00
003FC00FFC00
007FC007FC00
007FC007FE00
007FC007FE00
007F8007FE00
00FF8003FE00
00FF8003FF00
00FF8003FF00
00FF0003FF00
01FF0001FF00
01FF0001FF80
01FF0001FF80
01FE0001FF80
03FE0001FFC0
03FFFFFFFFC0
03FFFFFFFFC0
07FFFFFFFFC0
07FFFFFFFFE0
07FFFFFFFFE0
07FFFFFFFFE0
0FFFFFFFFFE0
0FFC00007FF0
0FFC00007FF0
0FF800007FF0
1FF800003FF8
1FF800003FF8
1FF800003FF8
1FF000003FF8
3FF000001FFC
3FF000001FFC
3FF000001FFC
7FE000001FFE
7FE000000FFE
7FE000000FFE
7FE000000FFE
FFC000000FFF
FFC0000007FF
ENDCHAR
STARTCHAR 00C1
ENCODING 193
SWIDTH 500 0
DWIDTH 48 0
BBX 48 80 0 0
BITMAP
0007E001F800
0007E001F800
0007E001F800
0007E001F800
0007F003F800
0007FFFFF800
0003FFFFF000
0003FFFFF000
0001FFFFE000
00007FFF8000
000000000000
000000000000
000000000000
00003FFE0000
00003FFE0000
00003FFE0000
00003FFE0000
00007FFF0000
00007FFF0000
00007FFF0000
0000FFFF0000
0000FFFF8000
0000FFFF8000
0000FFFF8000
0001FFFF8000
0001FF7FC000
0001FE7FC000
0001FE7FC000
0003FE7FE000
0003FE3FE000
0003FC3FE000
0007FC3FE000
0007FC3FF000
0007FC1FF000
0007F81FF000
000FF81FF000
000FF81FF800
000FF80FF800
001FF00FF800
001FF00FF800
001FF00FFC00
001FF007FC00
003FE007FC00
003FE007FC00
003FE007FE00
003FE003FE00
007FC003FE00
007FC003FE00
007FC003FF00
00FFC001FF00
00FF8001FF00
00FF8001FF80
00FF8001FF80
01FF8000FF80
01FF0000FF80
01FF0000FFC0
01FF0000FFC0
03FFFFFFFFC0
03FFFFFFFFC0
03FFFFFFFFE0
07FFFFFFFFE0
07FFFFFFFFE0
07FFFFFFFFE0
07FFFFFFFFF0
0FFE00003FF0
0FFC00003FF0
0FFC00003FF0
1FFC00003FF8
1FFC00003FF8
1FF800001FF8
1FF800001FFC
3FF800001FFC
3FF800001FFC
3FF000000FFC
3FF000000FFE
7FF000000FFE
7FF000000FFE
7FE0000007FE
FFE0000007FF
FFE0000007FF
ENDCHAR
STARTCHAR 00C2
ENCODING 194
SWIDTH 500 0
DWIDTH 48 0
BBX 48 79 0 0
BITMAP
0007F00FE000
0007F00FE000
0007F00FE000
0007F00FE000
0007F00FE000
0007F00FE000
0007F00FE000
000000000000
000000000000
000000000000
000000000000
00003FFC0000
00003FFC0000
00003FFE0000
00003FFE0000
00007FFE0000
00007FFF0000
00007FFF0000
0000FFFF0000
0000FFFF0000
0000FFFF8000
0000FFFF8000
0001FFFF8000
0001FFFF8000
0001FEFFC000
0001FE7FC000
0003FE7FC000
0003FE7FC000
0003FC7FE000
0007FC3FE000
0007FC3FE000
0007FC3FE000
0007F83FF000
000FF81FF000
000FF81FF000
000FF81FF800
000FF01FF800
001FF00FF800
001FF00FF800
001FF00FFC00
003FE00FFC00
003FE007FC00
003FE007FC00
003FE007FE00
007FC007FE00
007FC003FE00
007FC003FE00
007FC003FF00
00FF8003FF00
00FF8001FF00
00FF8001FF80
01FF8001FF80
01FF0001FF80
01FF0000FF80
01FF0000FFC0
03FF0000FFC0
03FFFFFFFFC0
03FFFFFFFFC0
03FFFFFFFFE0
07FFFFFFFFE0
07FFFFFFFFE0
07FFFFFFFFE0
0FFFFFFFFFF0
0FFC00007FF0
0FFC00003FF0
0FFC00003FF0
1FF800003FF8
1FF800003FF8
1FF800001FF8
1FF800001FFC
3FF000001FFC
3FF000001FFC
3FF000000FFC
3FF000000FFE
7FE000000FFE
7FE000000FFE
7FE0000007FE
FFE0000007FF
FFC0000007FF
ENDCHAR
STARTCHAR 00C3
ENCODING 195
SWIDTH 375 0
DWIDTH 36 0
BBX 28 67 6 1
BITMAP
00001FF0
00001FE0
00003FC0
00007F80
0000FF00
0000FF00
0001FE00
0003FC00
0007F800
0007F000
000FE000
001FC000
003FC000
003F8000
00000000
00000000
00000000
00000000
00000000
01FFFFF0
0FFFFFF0
1FFFFFF0
3FFFFFF0
7FFFFFF0
7FFFFFF0
7FFFFFF0
FFFFFFF0
FFC00000
FFC00000
FF800000
FF800000
FF800000
FF800000
FF800000
FF800000
FF800000
FF800000
FF800000
FF800000
FF800000
FF800000
FF800000
FF800000
FF800000
FF800000
FF800000
FF800000
FF800000
FF800000
FF800000
FF800000
FF800000
FF800000
FF800000
FF800000
FF800000
FF800000
FFC00000
FFC00000
FFFFFFF0
7FFFFFF0
7FFFFFF0
7FFFFFF0
3FFFFFF0
1FFFFFF0
0FFFFFF0
03FFFFF0
ENDCHAR
STARTCHAR 00C4
ENCODING 196
SWIDTH 500 0
DWIDTH 48 0
BBX 48 80 0 1
BITMAP
0007F8000000
0003FE000000
0001FF000000
00007F800000
00003FC00000
00001FE00000
00000FF00000
000003F80000
000001FC0000
000000000000
000000000000
000000000000
00001FFE0000
00003FFE0000
00003FFE0000
00003FFE0000
00003FFF0000
00007FFF0000
00007FFF0000
00007FFF0000
0000FFFF8000
0000FFFF8000
0000FFFF8000
0000FFFF8000
0001FF7FC000
0001FF7FC000
0001FE7FC000
0001FE7FC000
0003FE3FE000
0003FE3FE000
0003FC3FE000
0007FC3FE000
0007FC3FF000
0007FC1FF000
0007F81FF000
000FF81FF800
000FF81FF800
000FF80FF800
001FF00FF800
001FF00FFC00
001FF00FFC00
001FF007FC00
003FE007FC00
003FE007FE00
003FE007FE00
003FE003FE00
007FC003FE00
007FC003FF00
007FC003FF00
00FFC001FF00
00FF8001FF00
00FF8001FF80
00FF8001FF80
01FF8000FF80
01FF0000FF80
01FF0000FFC0
03FF0000FFC0
03FFFFFFFFC0
03FFFFFFFFC0
03FFFFFFFFE0
07FFFFFFFFE0
07FFFFFFFFE0
07FFFFFFFFE0
07FFFFFFFFF0
0FFE00003FF0
0FFC00003FF0
0FFC00003FF8
1FFC00003FF8
1FFC00001FF8
1FF800001FF8
1FF800001FFC
3FF800001FFC
3FF800000FFC
3FF000000FFC
3FF000000FFE
7FF000000FFE
7FF0000007FE
7FE0000007FE
FFE0000007FF
FFE0000007FF
ENDCHAR
STARTCHAR 00C5
ENCODING 197
SWIDTH 500 0
DWIDTH 48 0
BBX 48 80 0 0
BITMAP
0001F8003E00
0007FE003E00
000FFF803E00
001FFFE03E00
001FFFF87E00
003F07FFFE00
003F01FFFC00
003E00FFFC00
003E003FF800
003E000FE000
000000000000
000000000000
00003FFC0000
00003FFE0000
00003FFE0000
00007FFE0000
00007FFE0000
00007FFF0000
00007FFF0000
0000FFFF0000
0000FFFF0000
0000FFFF8000
0000FFFF8000
0001FFFF8000
0001FFFF8000
0001FEFFC000
0003FE7FC000
0003FE7FC000
0003FE7FE000
0003FC7FE000
0007FC3FE000
0007FC3FE000
0007FC3FF000
0007F83FF000
000FF81FF000
000FF81FF000
000FF81FF800
000FF01FF800
001FF00FF800
001FF00FF800
001FF00FFC00
003FE00FFC00
003FE007FC00
003FE007FC00
003FE007FE00
007FC007FE00
007FC003FE00
007FC003FE00
007FC003FF00
00FF8001FF00
00FF8001FF00
00FF8001FF80
01FF0001FF80
01FF0000FF80
01FF0000FF80
01FF0000FFC0
03FE0000FFC0
03FFFFFFFFC0
03FFFFFFFFC0
03FFFFFFFFE0
07FFFFFFFFE0
07FFFFFFFFE0
07FFFFFFFFE0
0FFFFFFFFFF0
0FFE00003FF0
0FFE00003FF0
0FFC00003FF0
1FFC00003FF8
1FFC00001FF8
1FFC00001FF8
1FF800001FFC
3FF800000FFC
3FF800000FFC
3FF800000FFC
7FF000000FFE
7FF0000007FE
7FF0000007FE
7FE0000007FE
FFE0000007FF
FFE0000003FF
ENDCHAR
STARTCHAR 00C6
ENCODING 198
SWIDTH 760 0
DWIDTH 73 0
BBX 74 67 -4 0
BITMAP
000000007FFFFFFFFF80
000000007FFFFFFFFF80
00000000FFFFFFFFFF80
00000000FFFFFFFFFF80
00000001FFFFFFFFFF80
00000001FFFFFFFFFF80
00000003FFFFFFFFFF80
00000003FFFFFFFFFF80
00000007FFFE00000000
00000007FFFE00000000
0000000FFFFE00000000
0000000FFFFE00000000
0000001FFBFE00000000
0000001FFBFE00000000
0000003FF3FE00000000
0000003FF3FE00000000
0000007FE3FE00000000
0000007FE3FE00000000
000000FFC3FE00000000
000000FFC3FE00000000
000001FF83FE00000000
000001FF83FE00000000
000003FF03FE00000000
000003FE03FE00000000
000007FE03FE00000000
000007FC03FE00000000
00000FFC03FE00000000
00000FF803FE00000000
00001FF803FFFFFFF000
00001FF003FFFFFFF000
00003FF003FFFFFFF000
00003FE003FFFFFFF000
00007FE003FFFFFFF000
00007FC003FFFFFFF000
0000FFC003FFFFFFF000
0000FF8003FFFFFFF000
0001FF8003FE00000000
0001FF0003FE00000000
0003FF0003FE00000000
0003FE0003FE00000000
0007FE0003FE00000000
0007FC0003FE00000000
000FFC0003FE00000000
000FF80003FE00000000
001FFFFFFFFE00000000
001FFFFFFFFE00000000
003FFFFFFFFE00000000
003FFFFFFFFE00000000
007FFFFFFFFE00000000
007FFFFFFFFE00000000
00FFFFFFFFFE00000000
00FFC00003FE00000000
01FFC00003FE00000000
01FF800003FE00000000
03FF800003FE00000000
03FF000003FE00000000
07FF000003FE00000000
07FE000003FE00000000
0FFE000003FE00000000
0FFC000003FFFFFFFFC0
1FFC000003FFFFFFFFC0
1FF8000003FFFFFFFFC0
3FF8000003FFFFFFFFC0
3FF0000003FFFFFFFFC0
7FF0000003FFFFFFFFC0
7FE0000003FFFFFFFFC0
FFE0000003FFFFFFFFC0
ENDCHAR
STARTCHAR 00C7
ENCODING 199
SWIDTH 468 0
DWIDTH 45 0
BBX 36 79 7 1
BITMAP
0000FF8000
0001FFC000
0003FFE000
0007FFF000
000FE7F800
001FC3F800
003F81FC00
007F00FE00
00FE007F00
0000000000
0000000000
0000000000
01FFFFFFF0
0FFFFFFFF0
1FFFFFFFF0
3FFFFFFFF0
7FFFFFFFF0
7FFFFFFFF0
7FFFFFFFF0
FFFFFFFFF0
FFF0000070
FFC0000000
FF80000000
FF80000000
FF80000000
FF80000000
FF80000000
FF80000000
FF80000000
FF80000000
FF80000000
FF80000000
FF80000000
FF80000000
FF80000000
FF80000000
FF80000000
FF80000000
FF80000000
FF80000000
FF80000000
FF80000000
FF80000000
FF80000000
FF80000000
FF80000000
FF80000000
FF80000000
FF80000000
FF80000000
FF80000000
FF80000000
FF80000000
FF80000000
FF80000000
FF80000000
FF80000000
FF80000000
FF80000000
FF80000000
FF80000000
FF80000000
FF80000000
FF80000000
FF80000000
FF80000000
FF80000000
FF80000000
FF80000000
FFC0000000
FFF0000070
FFFFFFFFF0
7FFFFFFFF0
7FFFFFFFF0
7FFFFFFFF0
3FFFFFFFF0
1FFFFFFFF0
0FFFFFFFF0
03FFFFFFF0
ENDCHAR
STARTCHAR 00C8
ENCODING 200
SWIDTH 479 0
DWIDTH 46 0
BBX 35 79 7 1
BITMAP
00FF000000
007F800000
003FC00000
001FE00000
0007F00000
0003F80000
0001FC0000
0000FE0000
00007F0000
0000000000
0000000000
0000000000
FFFFFFFF80
FFFFFFFF80
FFFFFFFF80
FFFFFFFF80
FFFFFFFF80
FFFFFFFF80
FFFFFFFF80
FFFFFFFF80
FF80000000
FF80000000
FF80000000
FF80000000
FF80000000
FF80000000
FF80000000
FF80000000
FF80000000
FF80000000
FF80000000
FF80000000
FF80000000
FF80000000
FF80000000
FF80000000
FF80000000
FF80000000
FF80000000
FF80000000
FFFFFFF000
FFFFFFF000
FFFFFFF000
FFFFFFF000
FFFFFFF000
FFFFFFF000
FFFFFFF000
FFFFFFF000
FF80000000
FF80000000
FF80000000
FF80000000
FF80000000
FF80000000
FF80000000
FF80000000
FF80000000
FF80000000
FF80000000
FF80000000
FF80000000
FF80000000
FF80000000
FF80000000
FF80000000
FF80000000
FF80000000
FF80000000
FF80000000
FF80000000
FF80000000
FFFFFFFFE0
FFFFFFFFE0
FFFFFFFFE0
FFFFFFFFE0
FFFFFFFFE0
FFFFFFFFE0
FFFFFFFFE0
FFFFFFFFE0
ENDCHAR
STARTCHAR 00C9
ENCODING 201
SWIDTH 479 0
DWIDTH 46 0
BBX 38 79 7 1
BITMAP
000003FE00
000007F800
00000FF000
00001FE000
00003F8000
0000FF0000
0001FE0000
0003F80000
0007F00000
0000000000
0000000000
0000000000
FFFFFFFFF0
FFFFFFFFF0
FFFFFFFFF0
FFFFFFFFF0
FFFFFFFFF0
FFFFFFFFF0
FFFFFFFFF0
FFFFFFFFF0
FF80000000
FF80000000
FF80000000
FF80000000
FF80000000
FF80000000
FF80000000
FF80000000
FF80000000
FF80000000
FF80000000
FF80000000
FF80000000
FF80000000
FF80000000
FF80000000
FF80000000
FF80000000
FF80000000
FF80000000
FFFFFFFE00
FFFFFFFE00
FFFFFFFE00
FFFFFFFE00
FFFFFFFE00
FFFFFFFE00
FFFFFFFE00
FFFFFFFE00
FF80000000
FF80000000
FF80000000
FF80000000
FF80000000
FF80000000
FF80000000
FF80000000
FF80000000
FF80000000
FF80000000
FF80000000
FF80000000
FF80000000
FF80000000
FF80000000
FF80000000
FF80000000
FF80000000
FF80000000
FF80000000
FF80000000
FF80000000
FFFFFFFFFC
FFFFFFFFFC
FFFFFFFFFC
FFFFFFFFFC
FFFFFFFFFC
FFFFFFFFFC
FFFFFFFFFC
FFFFFFFFFC
ENDCHAR
STARTCHAR 00CA
ENCODING 202
SWIDTH 479 0
DWIDTH 46 0
BBX 35 79 7 1
BITMAP
0003FE0000
0007FF0000
000FFF8000
001FFFC000
003F9FE000
007F0FF000
00FE07F800
01FC03FC00
03F801FC00
0000000000
0000000000
0000000000
FFFFFFFF80
FFFFFFFF80
FFFFFFFF80
FFFFFFFF80
FFFFFFFF80
FFFFFFFF80
FFFFFFFF80
FFFFFFFF80
FF80000000
FF80000000
FF80000000
FF80000000
FF80000000
FF80000000
FF80000000
FF80000000
FF80000000
FF80000000
FF80000000
FF80000000
FF80000000
FF80000000
FF80000000
FF80000000
FF80000000
FF80000000
FF80000000
FF80000000
FFFFFFFC00
FFFFFFFC00
FFFFFFFC00
FFFFFFFC00
FFFFFFFC00
FFFFFFFC00
FFFFFFFC00
FFFFFFFC00
FF80000000
FF80000000
FF80000000
FF80000000
FF80000000
FF80000000
FF80000000
FF80000000
FF80000000
FF80000000
FF80000000
FF80000000
FF80000000
FF80000000
FF80000000
FF80000000
FF80000000
FF80000000
FF80000000
FF80000000
FF80000000
FF80000000
FF80000000
FFFFFFFFE0
FFFFFFFFE0
FFFFFFFFE0
FFFFFFFFE0
FFFFFFFFE0
FFFFFFFFE0
FFFFFFFFE0
FFFFFFFFE0
ENDCHAR
STARTCHAR 00CB
ENCODING 203
SWIDTH 479 0
DWIDTH 46 0
BBX 37 79 7 0
BITMAP
00FE01FC00
00FE01FC00
00FE01FC00
00FE01FC00
00FE01FC00
00FE01FC00
00FE01FC00
0000000000
0000000000
0000000000
0000000000
0000000000
FFFFFFFFE0
FFFFFFFFE0
FFFFFFFFE0
FFFFFFFFE0
FFFFFFFFE0
FFFFFFFFE0
FFFFFFFFE0
FFFFFFFFE0
FF80000000
FF80000000
FF80000000
FF80000000
FF80000000
FF80000000
FF80000000
FF80000000
FF80000000
FF80000000
FF80000000
FF80000000
FF80000000
FF80000000
FF80000000
FF80000000
FF80000000
FF80000000
FF80000000
FF80000000
FFFFFFFC00
FFFFFFFC00
FFFFFFFC00
FFFFFFFC00
FFFFFFFC00
FFFFFFFC00
FFFFFFFC00
FFFFFFFC00
FF80000000
FF80000000
FF80000000
FF80000000
FF80000000
FF80000000
FF80000000
FF80000000
FF80000000
FF80000000
FF80000000
FF80000000
FF80000000
FF80000000
FF80000000
FF80000000
FF80000000
FF80000000
FF80000000
FF80000000
FF80000000
FF80000000
FF80000000
FFFFFFFFF8
FFFFFFFFF8
FFFFFFFFF8
FFFFFFFFF8
FFFFFFFFF8
FFFFFFFFF8
FFFFFFFFF8
FFFFFFFFF8
ENDCHAR
STARTCHAR 00CC
ENCODING 204
SWIDTH 239 0
DWIDTH 23 0
BBX 18 80 -1 0
BITMAP
FF8000
7FC000
3FE000
0FF000
07F800
03FC00
01FE00
00FF00
003F80
001FC0
000000
000000
000000
00FF80
00FF80
00FF80
00FF80
00FF80
00FF80
00FF80
00FF80
00FF80
00FF80
00FF80
00FF80
00FF80
00FF80
00FF80
00FF80
00FF80
00FF80
00FF80
00FF80
00FF80
00FF80
00FF80
00FF80
00FF80
00FF80
00FF80
00FF80
00FF80
00FF80
00FF80
00FF80
00FF80
00FF80
00FF80
00FF80
00FF80
00FF80
00FF80
00FF80
00FF80
00FF80
00FF80
00FF80
00FF80
00FF80
00FF80
00FF80
00FF80
00FF80
00FF80
00FF80
00FF80
00FF80
00FF80
00FF80
00FF80
00FF80
00FF80
00FF80
00FF80
00FF80
00FF80
00FF80
00FF80
00FF80
00FF80
ENDCHAR
STARTCHAR 00CD
ENCODING 205
SWIDTH 239 0
DWIDTH 23 0
BBX 17 80 7 0
BITMAP
007F80
00FF00
01FE00
03FC00
07F000
0FE000
1FC000
3F8000
7E0000
FC0000
000000
000000
000000
FF8000
FF8000
FF8000
FF8000
FF8000
FF8000
FF8000
FF8000
FF8000
FF8000
FF8000
FF8000
FF8000
FF8000
FF8000
FF8000
FF8000
FF8000
FF8000
FF8000
FF8000
FF8000
FF8000
FF8000
FF8000
FF8000
FF8000
FF8000
FF8000
FF8000
FF8000
FF8000
FF8000
FF8000
FF8000
FF8000
FF8000
FF8000
FF8000
FF8000
FF8000
FF8000
FF8000
FF8000
FF8000
FF8000
FF8000
FF8000
FF8000
FF8000
FF8000
FF8000
FF8000
FF8000
FF8000
FF8000
FF8000
FF8000
FF8000
FF8000
FF8000
FF8000
FF8000
FF8000
FF8000
FF8000
FF8000
ENDCHAR
STARTCHAR 00CE
ENCODING 206
SWIDTH 239 0
DWIDTH 23 0
BBX 24 80 -1 0
BITMAP
00FE00
01FF00
03FF80
07FFC0
0FFFE0
1FCFF0
3F87F8
7F01FC
FE00FE
FC007F
000000
000000
000000
01FF00
01FF00
01FF00
01FF00
01FF00
01FF00
01FF00
01FF00
01FF00
01FF00
01FF00
01FF00
01FF00
01FF00
01FF00
01FF00
01FF00
01FF00
01FF00
01FF00
01FF00
01FF00
01FF00
01FF00
01FF00
01FF00
01FF00
01FF00
01FF00
01FF00
01FF00
01FF00
01FF00
01FF00
01FF00
01FF00
01FF00
01FF00
01FF00
01FF00
01FF00
01FF00
01FF00
01FF00
01FF00
01FF00
01FF00
01FF00
01FF00
01FF00
01FF00
01FF00
01FF00
01FF00
01FF00
01FF00
01FF00
01FF00
01FF00
01FF00
01FF00
01FF00
01FF00
01FF00
01FF00
01FF00
01FF00
ENDCHAR
STARTCHAR 00CF
ENCODING 207
SWIDTH 239 0
DWIDTH 23 0
BBX 22 79 0 0
BITMAP
FE01FC
FE01FC
FE01FC
FE01FC
FE01FC
FE01FC
FE01FC
000000
000000
000000
000000
03FE00
03FE00
03FE00
03FE00
03FE00
03FE00
03FE00
03FE00
03FE00
03FE00
03FE00
03FE00
03FE00
03FE00
03FE00
03FE00
03FE00
03FE00
03FE00
03FE00
03FE00
03FE00
03FE00
03FE00
03FE00
03FE00
03FE00
03FE00
03FE00
03FE00
03FE00
03FE00
03FE00
03FE00
03FE00
03FE00
03FE00
03FE00
03FE00
03FE00
03FE00
03FE00
03FE00
03FE00
03FE00
03FE00
03FE00
03FE00
03FE00
03FE00
03FE00
03FE00
03FE00
03FE00
03FE00
03FE00
03FE00
03FE00
03FE00
03FE00
03FE00
03FE00
03FE00
03FE00
03FE00
03FE00
03FE00
03FE00
ENDCHAR
STARTCHAR 00D1
ENCODING 209
SWIDTH 562 0
DWIDTH 54 0
BBX 41 80 7 0
BITMAP
000FC001F000
003FF001F000
007FFC01F000
00FFFF01F000
00FFFFC3F000
01F83FFFF000
01F80FFFE000
01F007FFE000
01F001FFC000
01F0007F0000
000000000000
000000000000
FFC00001FF80
FFE00001FF80
FFE00001FF80
FFF00001FF80
FFF00001FF80
FFF00001FF80
FFF80001FF80
FFF80001FF80
FFFC0001FF80
FFFC0001FF80
FFFC0001FF80
FFFE0001FF80
FFFE0001FF80
FFFF0001FF80
FFFF0001FF80
FFFF0001FF80
FFFF8001FF80
FFFF8001FF80
FFFFC001FF80
FFBFC001FF80
FFBFE001FF80
FF9FE001FF80
FF9FE001FF80
FF9FF001FF80
FF8FF001FF80
FF8FF801FF80
FF87F801FF80
FF87F801FF80
FF83FC01FF80
FF83FC01FF80
FF83FE01FF80
FF81FE01FF80
FF81FE01FF80
FF80FF01FF80
FF80FF01FF80
FF807F81FF80
FF807F81FF80
FF807F81FF80
FF803FC1FF80
FF803FC1FF80
FF801FE1FF80
FF801FE1FF80
FF801FF1FF80
FF800FF1FF80
FF800FF1FF80
FF8007F9FF80
FF8007F9FF80
FF8003FDFF80
FF8003FDFF80
FF8003FDFF80
FF8001FFFF80
FF8001FFFF80
FF8000FFFF80
FF8000FFFF80
FF8000FFFF80
FF80007FFF80
FF80007FFF80
FF80003FFF80
FF80003FFF80
FF80001FFF80
FF80001FFF80
FF80001FFF80
FF80000FFF80
FF80000FFF80
FF800007FF80
FF800007FF80
FF800003FF80
FF800003FF80
ENDCHAR
STARTCHAR 00D2
ENCODING 210
SWIDTH 552 0
DWIDTH 53 0
BBX 39 79 7 1
BITMAP
00FF800000
003FC00000
001FE00000
000FF00000
0007F80000
0001FC0000
0000FE0000
00007F0000
00003F8000
0000000000
0000000000
0000000000
03FFFFFF80
0FFFFFFFE0
1FFFFFFFF0
3FFFFFFFF8
7FFFFFFFFC
7FFFFFFFFC
7FFFFFFFFC
FFFFFFFFFE
FFF0001FFE
FFC00007FE
FF800003FE
FF800003FE
FF800003FE
FF800003FE
FF800003FE
FF800003FE
FF800003FE
FF800003FE
FF800003FE
FF800003FE
FF800003FE
FF800003FE
FF800003FE
FF800003FE
FF800003FE
FF800003FE
FF800003FE
FF800003FE
FF800003FE
FF800003FE
FF800003FE
FF800003FE
FF800003FE
FF800003FE
FF800003FE
FF800003FE
FF800003FE
FF800003FE
FF800003FE
FF800003FE
FF800003FE
FF800003FE
FF800003FE
FF800003FE
FF800003FE
FF800003FE
FF800003FE
FF800003FE
FF800003FE
FF800003FE
FF800003FE
FF800003FE
FF800003FE
FF800003FE
FF800003FE
FF800003FE
FF800003FE
FFC00007FE
FFF0001FFE
FFFFFFFFFE
7FFFFFFFFC
7FFFFFFFFC
7FFFFFFFFC
3FFFFFFFF8
1FFFFFFFF0
0FFFFFFFE0
03FFFFFF80
ENDCHAR
STARTCHAR 00D3
ENCODING 211
SWIDTH 552 0
DWIDTH 53 0
BBX 39 79 7 1
BITMAP
000001FE00
000003F800
000007F000
00000FE000
00001FC000
00003F8000
00007E0000
0000FC0000
0001F80000
0000000000
0000000000
0000000000
03FFFFFF80
0FFFFFFFE0
1FFFFFFFF0
3FFFFFFFF8
7FFFFFFFFC
7FFFFFFFFC
7FFFFFFFFC
FFFFFFFFFE
FFF0001FFE
FFC00007FE
FF800003FE
FF800003FE
FF800003FE
FF800003FE
FF800003FE
FF800003FE
FF800003FE
FF800003FE
FF800003FE
FF800003FE
FF800003FE
FF800003FE
FF800003FE
FF800003FE
FF800003FE
FF800003FE
FF800003FE
FF800003FE
FF800003FE
FF800003FE
FF800003FE
FF800003FE
FF800003FE
FF800003FE
FF800003FE
FF800003FE
FF800003FE
FF800003FE
FF800003FE
FF800003FE
FF800003FE
FF800003FE
FF800003FE
FF800003FE
FF800003FE
FF800003FE
FF800003FE
FF800003FE
FF800003FE
FF800003FE
FF800003FE
FF800003FE
FF800003FE
FF800003FE
FF800003FE
FF800003FE
FF800003FE
FFC00007FE
FFF0001FFE
FFFFFFFFFE
7FFFFFFFFC
7FFFFFFFFC
7FFFFFFFFC
3FFFFFFFF8
1FFFFFFFF0
0FFFFFFFE0
03FFFFFF80
ENDCHAR
STARTCHAR 00D4
ENCODING 212
SWIDTH 552 0
DWIDTH 53 0
BBX 40 79 7 1
BITMAP
0001FF8000
0003FF8000
0003FFC000
0007FFE000
000FE7F000
001FC3F800
003F81FC00
007E00FE00
00FC007F00
0000000000
0000000000
0000000000
01FFFFFFC0
0FFFFFFFF0
1FFFFFFFF8
3FFFFFFFFC
7FFFFFFFFE
7FFFFFFFFE
7FFFFFFFFE
FFFFFFFFFF
FFF0000FFF
FFC00003FF
FF800001FF
FF800001FF
FF800001FF
FF800001FF
FF800001FF
FF800001FF
FF800001FF
FF800001FF
FF800001FF
FF800001FF
FF800001FF
FF800001FF
FF800001FF
FF800001FF
FF800001FF
FF800001FF
FF800001FF
FF800001FF
FF800001FF
FF800001FF
FF800001FF
FF800001FF
FF800001FF
FF800001FF
FF800001FF
FF800001FF
FF800001FF
FF800001FF
FF800001FF
FF800001FF
FF800001FF
FF800001FF
FF800001FF
FF800001FF
FF800001FF
FF800001FF
FF800001FF
FF800001FF
FF800001FF
FF800001FF
FF800001FF
FF800001FF
FF800001FF
FF800001FF
FF800001FF
FF800001FF
FF800001FF
FFC00003FF
FFF0000FFF
FFFFFFFFFF
7FFFFFFFFE
7FFFFFFFFE
7FFFFFFFFE
3FFFFFFFFC
1FFFFFFFF8
0FFFFFFFF0
03FFFFFF80
ENDCHAR
STARTCHAR 00D5
ENCODING 213
SWIDTH 552 0
DWIDTH 53 0
BBX 39 80 7 0
BITMAP
003F0007C0
00FFC007C0
01FFF007C0
03FFFC07C0
03FFFF0FC0
07C1FFFFC0
07C07FFF80
07801FFF80
07800FFF00
078001FC00
0000000000
0000000000
0000000000
03FFFFFF80
0FFFFFFFE0
1FFFFFFFF0
3FFFFFFFF8
7FFFFFFFFC
7FFFFFFFFC
7FFFFFFFFC
FFFFFFFFFE
FFF0003FFE
FFC0000FFE
FF800007FE
FF800007FE
FF800007FE
FF800007FE
FF800007FE
FF800007FE
FF800007FE
FF800007FE
FF800007FE
FF800007FE
FF800007FE
FF800007FE
FF800007FE
FF800007FE
FF800007FE
FF800007FE
FF800007FE
FF800007FE
FF800007FE
FF800007FE
FF800007FE
FF800007FE
FF800007FE
FF800007FE
FF800007FE
FF800007FE
FF800007FE
FF800007FE
FF800007FE
FF800007FE
FF800007FE
FF800007FE
FF800007FE
FF800007FE
FF800007FE
FF800007FE
FF800007FE
FF800007FE
FF800007FE
FF800007FE
FF800007FE
FF800007FE
FF800007FE
FF800007FE
FF800007FE
FF800007FE
FF800007FE
FFC0000FFE
FFF0003FFE
FFFFFFFFFE
7FFFFFFFFC
7FFFFFFFFC
7FFFFFFFFC
3FFFFFFFF8
1FFFFFFFF0
0FFFFFFFE0
03FFFFFF80
ENDCHAR
STARTCHAR 00D6
ENCODING 214
SWIDTH 552 0
DWIDTH 53 0
BBX 40 79 7 0
BITMAP
007F00FE00
007F00FE00
007F00FE00
007F00FE00
007F00FE00
007F00FE00
007F00FE00
0000000000
0000000000
0000000000
0000000000
0000000000
01FFFFFFC0
0FFFFFFFF0
1FFFFFFFF8
3FFFFFFFFC
7FFFFFFFFE
7FFFFFFFFE
7FFFFFFFFE
FFFFFFFFFF
FFF0000FFF
FFC00003FF
FF800001FF
FF800001FF
FF800001FF
FF800001FF
FF800001FF
FF800001FF
FF800001FF
FF800001FF
FF800001FF
FF800001FF
FF800001FF
FF800001FF
FF800001FF
FF800001FF
FF800001FF
FF800001FF
FF800001FF
FF800001FF
FF800001FF
FF800001FF
FF800001FF
FF800001FF
FF800001FF
FF800001FF
FF800001FF
FF800001FF
FF800001FF
FF800001FF
FF800001FF
FF800001FF
FF800001FF
FF800001FF
FF800001FF
FF800001FF
FF800001FF
FF800001FF
FF800001FF
FF800001FF
FF800001FF
FF800001FF
FF800001FF
FF800001FF
FF800001FF
FF800001FF
FF800001FF
FF800001FF
FF800001FF
FFC00003FF
FFF0000FFF
FFFFFFFFFF
7FFFFFFFFE
7FFFFFFFFE
7FFFFFFFFE
3FFFFFFFFC
1FFFFFFFF8
0FFFFFFFF0
03FFFFFF80
ENDCHAR
STARTCHAR 00D8
ENCODING 216
SWIDTH 562 0
DWIDTH 54 0
BBX 55 67 -1 0
BITMAP
0003FFFFFF007E
000FFFFFFFC0FC
001FFFFFFFF1F8
003FFFFFFFF1F0
007FFFFFFFFBF0
007FFFFFFFFFE0
007FFFFFFFFFC0
00FFFFFFFFFF80
00FFF0001FFF00
00FFC00007FF00
00FF800003FE00
00FF800003FE00
00FF800003FE00
00FF800003FE00
00FF800003FE00
00FF800003FE00
00FF800007FE00
00FF80000FFE00
00FF80000FFE00
00FF80001FFE00
00FF80003FFE00
00FF80003FFE00
00FF80007FFE00
00FF8000FFFE00
00FF8001FBFE00
00FF8001F3FE00
00FF8003F3FE00
00FF8007E3FE00
00FF800FC3FE00
00FF800F83FE00
00FF801F83FE00
00FF803F03FE00
00FF807E03FE00
00FF807C03FE00
00FF80FC03FE00
00FF81F803FE00
00FF81F003FE00
00FF83F003FE00
00FF87E003FE00
00FF8FC003FE00
00FF8F8003FE00
00FF9F8003FE00
00FFBF0003FE00
00FFFE0003FE00
00FFFC0003FE00
00FFFC0003FE00
00FFF80003FE00
00FFF00003FE00
00FFE00003FE00
00FFE00003FE00
00FFC00003FE00
00FF800003FE00
00FF800003FE00
00FF800003FE00
00FF800003FE00
00FF800003FE00
00FF800003FE00
01FFC00007FE00
01FFF0001FFE00
03FFFFFFFFFE00
07FFFFFFFFFC00
0FFFFFFFFFFC00
0FBFFFFFFFFC00
1F1FFFFFFFF800
3F1FFFFFFFF000
7E07FFFFFFE000
FC01FFFFFF8000
ENDCHAR
STARTCHAR 00D9
ENCODING 217
SWIDTH 552 0
DWIDTH 53 0
BBX 39 80 7 0
BITMAP
01FF000000
00FF800000
003FC00000
001FE00000
000FF00000
0007F80000
0003FC0000
0000FE0000
00007F0000
00003F8000
0000000000
0000000000
0000000000
FF800003FE
FF800003FE
FF800003FE
FF800003FE
FF800003FE
FF800003FE
FF800003FE
FF800003FE
FF800003FE
FF800003FE
FF800003FE
FF800003FE
FF800003FE
FF800003FE
FF800003FE
FF800003FE
FF800003FE
FF800003FE
FF800003FE
FF800003FE
FF800003FE
FF800003FE
FF800003FE
FF800003FE
FF800003FE
FF800003FE
FF800003FE
FF800003FE
FF800003FE
FF800003FE
FF800003FE
FF800003FE
FF800003FE
FF800003FE
FF800003FE
FF800003FE
FF800003FE
FF800003FE
FF800003FE
FF800003FE
FF800003FE
FF800003FE
FF800003FE
FF800003FE
FF800003FE
FF800003FE
FF800003FE
FF800003FE
FF800003FE
FF800003FE
FF800003FE
FF800003FE
FF800003FE
FF800003FE
FF800003FE
FF800003FE
FF800003FE
FFC00007FE
FFF0001FFE
FFFFFFFFFE
7FFFFFFFFC
7FFFFFFFFC
7FFFFFFFFC
3FFFFFFFF8
1FFFFFFFF0
0FFFFFFFE0
03FFFFFF80
ENDCHAR
STARTCHAR 00DA
ENCODING 218
SWIDTH 552 0
DWIDTH 53 0
BBX 39 80 7 0
BITMAP
000000FF00
000001FE00
000003FC00
000007F000
00000FE000
00001FC000
00003F8000
00007F0000
0000FC0000
0001F80000
0000000000
0000000000
0000000000
FF800003FE
FF800003FE
FF800003FE
FF800003FE
FF800003FE
FF800003FE
FF800003FE
FF800003FE
FF800003FE
FF800003FE
FF800003FE
FF800003FE
FF800003FE
FF800003FE
FF800003FE
FF800003FE
FF800003FE
FF800003FE
FF800003FE
FF800003FE
FF800003FE
FF800003FE
FF800003FE
FF800003FE
FF800003FE
FF800003FE
FF800003FE
FF800003FE
FF800003FE
FF800003FE
FF800003FE
FF800003FE
FF800003FE
FF800003FE
FF800003FE
FF800003FE
FF800003FE
FF800003FE
FF800003FE
FF800003FE
FF800003FE
FF800003FE
FF800003FE
FF800003FE
FF800003FE
FF800003FE
FF800003FE
FF800003FE
FF800003FE
FF800003FE
FF800003FE
FF800003FE
FF800003FE
FF800003FE
FF800003FE
FF800003FE
FF800003FE
FFC00007FE
FFF0001FFE
FFFFFFFFFE
7FFFFFFFFC
7FFFFFFFFC
7FFFFFFFFC
3FFFFFFFF8
1FFFFFFFF0
0FFFFFFFE0
03FFFFFF80
ENDCHAR
STARTCHAR 00DB
ENCODING 219
SWIDTH 552 0
DWIDTH 53 0
BBX 40 80 7 0
BITMAP
0000FF0000
0001FF8000
0003FFC000
0007FFE000
000FFFF000
001FE7F800
003F83FC00
003F01FE00
007E00FF00
00FC007F80
0000000000
0000000000
0000000000
FF800001FF
FF800001FF
FF800001FF
FF800001FF
FF800001FF
FF800001FF
FF800001FF
FF800001FF
FF800001FF
FF800001FF
FF800001FF
FF800001FF
FF800001FF
FF800001FF
FF800001FF
FF800001FF
FF800001FF
FF800001FF
FF800001FF
FF800001FF
FF800001FF
FF800001FF
FF800001FF
FF800001FF
FF800001FF
FF800001FF
FF800001FF
FF800001FF
FF800001FF
FF800001FF
FF800001FF
FF800001FF
FF800001FF
FF800001FF
FF800001FF
FF800001FF
FF800001FF
FF800001FF
FF800001FF
FF800001FF
FF800001FF
FF800001FF
FF800001FF
FF800001FF
FF800001FF
FF800001FF
FF800001FF
FF800001FF
FF800001FF
FF800001FF
FF800001FF
FF800001FF
FF800001FF
FF800001FF
FF800001FF
FF800001FF
FF800001FF
FFC00003FF
FFF0000FFF
FFFFFFFFFF
7FFFFFFFFE
7FFFFFFFFE
7FFFFFFFFE
3FFFFFFFFC
1FFFFFFFF8
0FFFFFFFF0
03FFFFFF80
ENDCHAR
STARTCHAR 00DC
ENCODING 220
SWIDTH 552 0
DWIDTH 53 0
BBX 40 79 7 0
BITMAP
007F00FE00
007F00FE00
007F00FE00
007F00FE00
007F00FE00
007F00FE00
007F00FE00
0000000000
0000000000
0000000000
0000000000
FF800001FF
FF800001FF
FF800001FF
FF800001FF
FF800001FF
FF800001FF
FF800001FF
FF800001FF
FF800001FF
FF800001FF
FF800001FF
FF800001FF
FF800001FF
FF800001FF
FF800001FF
FF800001FF
FF800001FF
FF800001FF
FF800001FF
FF800001FF
FF800001FF
FF800001FF
FF800001FF
FF800001FF
FF800001FF
FF800001FF
FF800001FF
FF800001FF
FF800001FF
FF800001FF
FF800001FF
FF800001FF
FF800001FF
FF800001FF
FF800001FF
FF800001FF
FF800001FF
FF800001FF
FF800001FF
FF800001FF
FF800001FF
FF800001FF
FF800001FF
FF800001FF
FF800001FF
FF800001FF
FF800001FF
FF800001FF
FF800001FF
FF800001FF
FF800001FF
FF800001FF
FF800001FF
FF800001FF
FF800001FF
FF800001FF
FF800001FF
FF800001FF
FFC00003FF
FFF0000FFF
FFFFFFFFFF
7FFFFFFFFE
7FFFFFFFFE
7FFFFFFFFE
3FFFFFFFFC
1FFFFFFFF8
0FFFFFFFF0
01FFFFFF80
ENDCHAR
STARTCHAR 00DD
ENCODING 221
SWIDTH 520 0
DWIDTH 50 0
BBX 50 80 0 0
BITMAP
00000003FE0000
00000007F80000
0000000FF00000
0000001FE00000
0000003FC00000
0000007F000000
000000FE000000
000001FC000000
000003F8000000
000007E0000000
00000000000000
00000000000000
00000000000000
FFE0000001FFC0
FFF0000001FF80
7FF0000003FF80
3FF8000003FF00
3FF8000007FF00
1FFC000007FE00
1FFC00000FFE00
0FFE00000FFC00
0FFE00001FFC00
07FF00001FF800
07FF00003FF800
03FF80003FF000
01FF80007FF000
01FFC0007FE000
00FFC000FFE000
00FFE000FFC000
007FE001FFC000
007FF001FF8000
003FF003FF8000
003FF803FF0000
001FF803FE0000
000FFC07FE0000
000FFC07FC0000
0007FE0FFC0000
0007FE0FF80000
0003FF1FF80000
0003FF1FF00000
0001FFBFF00000
0001FFFFE00000
0000FFFFE00000
00007FFFC00000
00007FFFC00000
00003FFF800000
00003FFF800000
00001FFF000000
00001FFF000000
00000FFE000000
00000FFE000000
000007FC000000
000007FC000000
000007FC000000
000007FC000000
000007FC000000
000007FC000000
000007FC000000
000007FC000000
000007FC000000
000007FC000000
000007FC000000
000007FC000000
000007FC000000
000007FC000000
000007FC000000
000007FC000000
000007FC000000
000007FC000000
000007FC000000
000007FC000000
000007FC000000
000007FC000000
000007FC000000
000007FC000000
000007FC000000
000007FC000000
000007FC000000
000007FC000000
000007FC000000
ENDCHAR
STARTCHAR 00DF
ENCODING 223
SWIDTH 510 0
DWIDTH 49 0
BBX 38 67 6 0
BITMAP
01FFFFFF00
0FFFFFFFC0
1FFFFFFFE0
3FFFFFFFF0
7FFFFFFFF8
7FFFFFFFF8
7FFFFFFFFC
FFFFFFFFFC
FFC0000FFC
FFC00007FC
FF800007FC
FF800007FC
FF800007FC
FF800007FC
FF800007FC
FF800007FC
FF80000FFC
FF80001FFC
FF80003FF8
FF80007FF8
FF8001FFF0
FF8003FFF0
FF8007FFE0
FF800FFF80
FF801FFF00
FF803FFE00
FF807FF800
FF807FF000
FF80FFC000
FF80FF8000
FF80FF0000
FF80FF0000
FF80FF0000
FF80FF0000
FF80FF0000
FF80FF8000
FF80FFC000
FF80FFE000
FF807FF800
FF807FFC00
FF803FFF00
FF801FFF80
FF800FFFE0
FF8007FFF0
FF8001FFF0
FF8000FFF8
FF80003FF8
FF80001FFC
FF80000FFC
FF800007FC
FF800007FC
FF800007FC
FF800007FC
FF800007FC
FF800007FC
FF800007FC
FF800007FC
FF800007FC
FF80000FFC
FF81FFFFFC
FF81FFFFF8
FF81FFFFF8
FF81FFFFF8
FF81FFFFF0
FF81FFFFE0
FF81FFFFC0
FF81FFFE00
ENDCHAR
STARTCHAR 00E0
ENCODING 224
SWIDTH 458 0
DWIDTH 44 0
BBX 33 62 5 0
BITMAP
03FFFFE000
03FFFFE000
03FFFFE000
03FFFFE000
03FFFFE000
03FFFFE000
0000000000
0000000000
0000000000
0000000000
0000000000
0000000000
0000000000
0000000000
FFFFFFC000
FFFFFFF800
FFFFFFFC00
FFFFFFFE00
FFFFFFFF00
FFFFFFFF00
FFFFFFFF00
FFFFFFFF80
000001FF80
000000FF80
000000FF80
000000FF80
000000FF80
000000FF80
000000FF80
000000FF80
000000FF80
000000FF80
01FFFFFF80
0FFFFFFF80
1FFFFFFF80
3FFFFFFF80
7FFFFFFF80
7FFFFFFF80
7FE000FF80
FFC000FF80
FF8000FF80
FF8000FF80
FF8000FF80
FF8000FF80
FF8000FF80
FF8000FF80
FF8000FF80
FF8000FF80
FF8000FF80
FF8000FF80
FF8000FF80
FF8000FF80
FF8000FF80
FFC000FF80
FFF800FF80
7FFFFFFF80
7FFFFFFF80
7FFFFFFF80
3FFFFFFF80
1FFFFFFF80
0FFFFFFF80
01FFFFFF80
ENDCHAR
STARTCHAR 00E1
ENCODING 225
SWIDTH 458 0
DWIDTH 44 0
BBX 34 67 5 1
BITMAP
0780007C00
0780007C00
0780007C00
0780007C00
0780007C00
07C000FC00
07E001FC00
07FFFFFC00
03FFFFF800
03FFFFF800
01FFFFF000
00FFFFE000
003FFF8000
0000000000
0000000000
0000000000
0000000000
0000000000
0000000000
FFFFFFE000
FFFFFFFC00
FFFFFFFE00
FFFFFFFF00
FFFFFFFF80
FFFFFFFF80
FFFFFFFF80
FFFFFFFFC0
000000FFC0
0000007FC0
0000007FC0
0000007FC0
0000007FC0
0000007FC0
0000007FC0
0000007FC0
0000007FC0
0000007FC0
03FFFFFFC0
0FFFFFFFC0
1FFFFFFFC0
3FFFFFFFC0
7FFFFFFFC0
7FFFFFFFC0
7FE0007FC0
FFC0007FC0
FF80007FC0
FF80007FC0
FF80007FC0
FF80007FC0
FF80007FC0
FF80007FC0
FF80007FC0
FF80007FC0
FF80007FC0
FF80007FC0
FF80007FC0
FF80007FC0
FF80007FC0
FFC0007FC0
FFF8007FC0
7FFFFFFFC0
7FFFFFFFC0
7FFFFFFFC0
3FFFFFFFC0
1FFFFFFFC0
0FFFFFFFC0
01FFFFFFC0
ENDCHAR
STARTCHAR 00E2
ENCODING 226
SWIDTH 458 0
DWIDTH 44 0
BBX 34 65 5 0
BITMAP
03F807F000
03F807F000
03F807F000
03F807F000
03F807F000
03F807F000
03F807F000
03F807F000
03F807F000
0000000000
0000000000
0000000000
0000000000
0000000000
0000000000
0000000000
0000000000
FFFFFFE000
FFFFFFFC00
FFFFFFFE00
FFFFFFFF00
FFFFFFFF80
FFFFFFFF80
FFFFFFFF80
FFFFFFFFC0
000000FFC0
0000007FC0
0000007FC0
0000007FC0
0000007FC0
0000007FC0
0000007FC0
0000007FC0
0000007FC0
0000007FC0
01FFFFFFC0
07FFFFFFC0
1FFFFFFFC0
3FFFFFFFC0
7FFFFFFFC0
7FFFFFFFC0
7FE0007FC0
FFC0007FC0
FF80007FC0
FF80007FC0
FF80007FC0
FF80007FC0
FF80007FC0
FF80007FC0
FF80007FC0
FF80007FC0
FF80007FC0
FF80007FC0
FF80007FC0
FF80007FC0
FF80007FC0
FFC0007FC0
FFF8007FC0
7FFFFFFFC0
7FFFFFFFC0
7FFFFFFFC0
3FFFFFFFC0
1FFFFFFFC0
0FFFFFFFC0
01FFFFFFC0
ENDCHAR
STARTCHAR 00E3
ENCODING 227
SWIDTH 500 0
DWIDTH 48 0
BBX 48 80 0 1
BITMAP
0000001FF000
0000003FC000
0000007F8000
000000FF0000
000001FE0000
000003F80000
000007F00000
00000FE00000
00001FC00000
000000000000
000000000000
000000000000
00003FFC0000
00003FFE0000
00003FFE0000
00003FFE0000
00007FFF0000
00007FFF0000
00007FFF0000
00007FFF0000
0000FFFF8000
0000FFFF8000
0000FFFF8000
0001FFFF8000
0001FFFFC000
0001FF7FC000
0001FE7FC000
0003FE7FC000
0003FE7FE000
0003FE3FE000
0003FC3FE000
0007FC3FE000
0007FC3FF000
0007F81FF000
000FF81FF000
000FF81FF000
000FF81FF800
000FF00FF800
001FF00FF800
001FF00FF800
001FF00FFC00
001FE007FC00
003FE007FC00
003FE007FE00
003FE007FE00
007FC003FE00
007FC003FE00
007FC003FF00
007FC003FF00
00FF8001FF00
00FF8001FF00
00FF8001FF80
00FF0001FF80
01FF0000FF80
01FF0000FF80
01FF0000FFC0
03FE0000FFC0
03FFFFFFFFC0
03FFFFFFFFC0
03FFFFFFFFE0
07FFFFFFFFE0
07FFFFFFFFE0
07FFFFFFFFE0
07FFFFFFFFF0
0FFC00003FF0
0FFC00003FF0
0FFC00003FF8
1FF800003FF8
1FF800001FF8
1FF800001FF8
1FF800001FFC
3FF000001FFC
3FF000000FFC
3FF000000FFC
3FF000000FFE
7FE000000FFE
7FE0000007FE
7FE0000007FE
FFE0000007FF
FFC0000007FF
ENDCHAR
STARTCHAR 00E4
ENCODING 228
SWIDTH 458 0
DWIDTH 44 0
BBX 34 67 5 1
BITMAP
07F8000000
03FC000000
03FE000000
01FF000000
00FF800000
007F800000
003FC00000
001FE00000
000FF00000
0007F00000
0003F80000
0003FC0000
0001FE0000
0000FF0000
0000000000
0000000000
0000000000
0000000000
0000000000
FFFFFFE000
FFFFFFFC00
FFFFFFFE00
FFFFFFFF00
FFFFFFFF80
FFFFFFFF80
FFFFFFFF80
FFFFFFFFC0
000000FFC0
0000007FC0
0000007FC0
0000007FC0
0000007FC0
0000007FC0
0000007FC0
0000007FC0
0000007FC0
0000007FC0
01FFFFFFC0
0FFFFFFFC0
1FFFFFFFC0
3FFFFFFFC0
7FFFFFFFC0
7FFFFFFFC0
7FE0007FC0
FFC0007FC0
FF80007FC0
FF80007FC0
FF80007FC0
FF80007FC0
FF80007FC0
FF80007FC0
FF80007FC0
FF80007FC0
FF80007FC0
FF80007FC0
FF80007FC0
FF80007FC0
FF80007FC0
FFC0007FC0
FFF8007FC0
7FFFFFFFC0
7FFFFFFFC0
7FFFFFFFC0
3FFFFFFFC0
1FFFFFFFC0
0FFFFFFFC0
01FFFFFFC0
ENDCHAR
STARTCHAR 00E5
ENCODING 229
SWIDTH 458 0
DWIDTH 44 0
BBX 32 67 5 0
BITMAP
03F0001F
0FFC001F
1FFF001F
3FFF801F
7FFFC01F
7FFFF03F
7FFFF87F
FFC3FFFF
FFC0FFFE
FF807FFE
FF803FFE
FF801FFC
FF800FF8
FF8003F0
00000000
00000000
00000000
00000000
00000000
FFFFFF80
FFFFFFF0
FFFFFFF8
FFFFFFFC
FFFFFFFE
FFFFFFFE
FFFFFFFE
FFFFFFFF
0000003F
0000001F
0000001F
0000001F
0000001F
0000001F
0000001F
0000001F
0000001F
0000001F
01FFFFFF
07FFFFFF
1FFFFFFF
3FFFFFFF
7FFFFFFF
7FFFFFFF
7FE0001F
FFC0001F
FF80001F
FF80001F
FF80001F
FF80001F
FF80001F
FF80001F
FF80001F
FF80001F
FF80001F
FF80001F
FF80001F
FF80001F
FF80001F
FFC0001F
FFF8001F
7FFFFFFF
7FFFFFFF
7FFFFFFF
3FFFFFFF
1FFFFFFF
0FFFFFFF
03FFFFFF
ENDCHAR
STARTCHAR 00E6
ENCODING 230
SWIDTH 697 0
DWIDTH 67 0
BBX 57 48 5 0
BITMAP
FFFFFF803FFFE000
FFFFFFE0FFFFF800
FFFFFFF9FFFFFC00
FFFFFFFFFFFFFE00
FFFFFFFFFFFFFF00
FFFFFFFFFFFFFF00
FFFFFFFFFFFFFF80
FFFFFFFFFFFFFF80
000000FFE000FF80
0000007FC0007F80
0000007FC0007F80
0000007FC0007F80
0000007FC0007F80
0000007FC0007F80
0000007FC0007F80
0000007FC0007F80
0000007FC0007F80
0000007FC0007F80
01FFFFFFFFFFFF80
0FFFFFFFFFFFFF80
1FFFFFFFFFFFFF80
3FFFFFFFFFFFFF80
7FFFFFFFFFFFFF80
7FFFFFFFFFFFFF80
7FE0007FC0000000
FFC0007FC0000000
FF80007FC0000000
FF80007FC0000000
FF80007FC0000000
FF80007FC0000000
FF80007FC0000000
FF80007FC0000000
FF80007FC0000000
FF80007FC0000000
FF80007FC0000000
FF80007FC0000000
FF80007FC0000000
FF80007FC0000000
FF80007FC0000000
FFC000FFE0000000
FFF807FFF8000780
7FFFFFFFFFFFFF80
7FFFFFFFFFFFFF80
7FFFFFFFFFFFFF80
3FFFFFFFFFFFFF80
1FFFFFF9FFFFFF80
0FFFFFF0FFFFFF80
01FFFF803FFFFF80
ENDCHAR
STARTCHAR 00E7
ENCODING 231
SWIDTH 375 0
DWIDTH 36 0
BBX 27 67 6 1
BITMAP
000FE000
001FF000
003FF000
003FF800
007FFC00
00FFFC00
01FCFE00
01FC7E00
03F87F00
07F03F80
07F01F80
0FE00FC0
1FC00FE0
1FC007E0
00000000
00000000
00000000
00000000
00000000
03FFFFE0
0FFFFFE0
1FFFFFE0
3FFFFFE0
7FFFFFE0
7FFFFFE0
7FFFFFE0
FFFFFFE0
FFC00000
FFC00000
FF800000
FF800000
FF800000
FF800000
FF800000
FF800000
FF800000
FF800000
FF800000
FF800000
FF800000
FF800000
FF800000
FF800000
FF800000
FF800000
FF800000
FF800000
FF800000
FF800000
FF800000
FF800000
FF800000
FF800000
FF800000
FF800000
FF800000
FF800000
FFC00000
FFC00000
FFFFFFE0
7FFFFFE0
7FFFFFE0
7FFFFFE0
3FFFFFE0
1FFFFFE0
0FFFFFE0
03FFFFE0
ENDCHAR
STARTCHAR 00E8
ENCODING 232
SWIDTH 458 0
DWIDTH 44 0
BBX 33 67 6 1
BITMAP
07FC000000
03FE000000
01FF000000
00FF800000
007F800000
003FC00000
001FE00000
000FF00000
0007F00000
0007F80000
0003FC0000
0001FE0000
0000FE0000
00007F0000
0000000000
0000000000
0000000000
0000000000
0000000000
01FFFFC000
0FFFFFF800
1FFFFFFC00
3FFFFFFE00
7FFFFFFF00
7FFFFFFF00
7FFFFFFF00
FFF003FF80
FFC000FF80
FF80007F80
FF80007F80
FF80007F80
FF80007F80
FF80007F80
FF80007F80
FF80007F80
FF80007F80
FFFFFFFF80
FFFFFFFF80
FFFFFFFF80
FFFFFFFF80
FFFFFFFF80
FFFFFFFF80
FFFFFFFF80
FF80000000
FF80000000
FF80000000
FF80000000
FF80000000
FF80000000
FF80000000
FF80000000
FF80000000
FF80000000
FF80000000
FF80000000
FF80000000
FF80000000
FF80000000
FFC0000000
FFFFFFFF80
7FFFFFFF80
7FFFFFFF80
7FFFFFFF80
3FFFFFFF80
1FFFFFFF80
0FFFFFFF80
01FFFFFF80
ENDCHAR
STARTCHAR 00E9
ENCODING 233
SWIDTH 458 0
DWIDTH 44 0
BBX 32 67 6 1
BITMAP
00001FF0
00001FE0
00003FE0
00007FC0
0000FF80
0000FF00
0001FE00
0003FC00
0007F800
0007F000
000FE000
001FE000
003FC000
003F8000
00000000
00000000
00000000
00000000
00000000
01FFFFC0
0FFFFFF0
1FFFFFF8
3FFFFFFC
7FFFFFFE
7FFFFFFE
7FFFFFFF
FFF007FF
FFC001FF
FF8000FF
FF8000FF
FF8000FF
FF8000FF
FF8000FF
FF8000FF
FF8000FF
FF8000FF
FFFFFFFF
FFFFFFFF
FFFFFFFF
FFFFFFFF
FFFFFFFF
FFFFFFFF
FFFFFFFF
FF800000
FF800000
FF800000
FF800000
FF800000
FF800000
FF800000
FF800000
FF800000
FF800000
FF800000
FF800000
FF800000
FF800000
FF800000
FFC00000
FFFFFFFF
7FFFFFFF
7FFFFFFF
7FFFFFFF
3FFFFFFF
1FFFFFFF
0FFFFFFF
01FFFFFF
ENDCHAR
STARTCHAR 00EA
ENCODING 234
SWIDTH 458 0
DWIDTH 44 0
BBX 31 67 6 1
BITMAP
000FF000
000FF800
001FF800
003FFC00
003FFE00
007FFE00
00FE7F00
00FE3F80
01FC3F80
03F81FC0
03F00FE0
07F007E0
0FE007F0
0FC003F8
00000000
00000000
00000000
00000000
00000000
03FFFF80
0FFFFFE0
1FFFFFF0
3FFFFFF8
7FFFFFFC
7FFFFFFC
7FFFFFFE
FFF007FE
FFC001FE
FF8000FE
FF8000FE
FF8000FE
FF8000FE
FF8000FE
FF8000FE
FF8000FE
FF8000FE
FFFFFFFE
FFFFFFFE
FFFFFFFE
FFFFFFFE
FFFFFFFE
FFFFFFFE
FFFFFFFE
FF800000
FF800000
FF800000
FF800000
FF800000
FF800000
FF800000
FF800000
FF800000
FF800000
FF800000
FF800000
FF800000
FF800000
FF800000
FFC00000
FFFFFFFE
7FFFFFFE
7FFFFFFE
7FFFFFFE
3FFFFFFE
1FFFFFFE
0FFFFFFE
03FFFFFE
ENDCHAR
STARTCHAR 00EB
ENCODING 235
SWIDTH 458 0
DWIDTH 44 0
BBX 32 65 6 0
BITMAP
03F807F0
03F807F0
03F807F0
03F807F0
03F807F0
03F807F0
03F807F0
03F807F0
03F807F0
00000000
00000000
00000000
00000000
00000000
00000000
00000000
00000000
01FFFFC0
0FFFFFF0
1FFFFFF8
3FFFFFFC
7FFFFFFE
7FFFFFFE
7FFFFFFF
FFF007FF
FFC001FF
FF8000FF
FF8000FF
FF8000FF
FF8000FF
FF8000FF
FF8000FF
FF8000FF
FF8000FF
FFFFFFFF
FFFFFFFF
FFFFFFFF
FFFFFFFF
FFFFFFFF
FFFFFFFF
FFFFFFFF
FF800000
FF800000
FF800000
FF800000
FF800000
FF800000
FF800000
FF800000
FF800000
FF800000
FF800000
FF800000
FF800000
FF800000
FF800000
FFC00000
FFFFFFFF
7FFFFFFF
7FFFFFFF
7FFFFFFF
3FFFFFFF
1FFFFFFF
0FFFFFFF
01FFFFFF
ENDCHAR
STARTCHAR 00EC
ENCODING 236
SWIDTH 218 0
DWIDTH 21 0
BBX 20 67 -4 1
BITMAP
FF8000
7F8000
3FC000
1FE000
0FF000
0FF800
07FC00
03FE00
01FF00
00FF80
007F80
003FC0
001FE0
000FF0
000000
000000
000000
000000
000000
00FFE0
00FFE0
00FFE0
00FFE0
00FFE0
00FFE0
00FFE0
00FFE0
00FFE0
00FFE0
00FFE0
00FFE0
00FFE0
00FFE0
00FFE0
00FFE0
00FFE0
00FFE0
00FFE0
00FFE0
00FFE0
00FFE0
00FFE0
00FFE0
00FFE0
00FFE0
00FFE0
00FFE0
00FFE0
00FFE0
00FFE0
00FFE0
00FFE0
00FFE0
00FFE0
00FFE0
00FFE0
00FFE0
00FFE0
00FFE0
00FFE0
00FFE0
00FFE0
00FFE0
00FFE0
00FFE0
00FFE0
00FFE0
ENDCHAR
STARTCHAR 00ED
ENCODING 237
SWIDTH 218 0
DWIDTH 21 0
BBX 18 67 4 1
BITMAP
003FC0
007F80
00FF80
00FF00
01FE00
03FC00
07F800
07F000
0FE000
1FC000
3FC000
3F8000
7F0000
FE0000
000000
000000
000000
000000
000000
3FE000
3FE000
3FE000
3FE000
3FE000
3FE000
3FE000
3FE000
3FE000
3FE000
3FE000
3FE000
3FE000
3FE000
3FE000
3FE000
3FE000
3FE000
3FE000
3FE000
3FE000
3FE000
3FE000
3FE000
3FE000
3FE000
3FE000
3FE000
3FE000
3FE000
3FE000
3FE000
3FE000
3FE000
3FE000
3FE000
3FE000
3FE000
3FE000
3FE000
3FE000
3FE000
3FE000
3FE000
3FE000
3FE000
3FE000
3FE000
ENDCHAR
STARTCHAR 00EE
ENCODING 238
SWIDTH 218 0
DWIDTH 21 0
BBX 26 67 -2 1
BITMAP
007F8000
007FC000
00FFE000
01FFE000
01FFF000
03FBF800
07F3F800
0FF1FC00
0FE0FE00
1FC07E00
3F807F00
3F803F80
7F001F80
FE001FC0
00000000
00000000
00000000
00000000
00000000
007FC000
007FC000
007FC000
007FC000
007FC000
007FC000
007FC000
007FC000
007FC000
007FC000
007FC000
007FC000
007FC000
007FC000
007FC000
007FC000
007FC000
007FC000
007FC000
007FC000
007FC000
007FC000
007FC000
007FC000
007FC000
007FC000
007FC000
007FC000
007FC000
007FC000
007FC000
007FC000
007FC000
007FC000
007FC000
007FC000
007FC000
007FC000
007FC000
007FC000
007FC000
007FC000
007FC000
007FC000
007FC000
007FC000
007FC000
007FC000
ENDCHAR
STARTCHAR 00EF
ENCODING 239
SWIDTH 218 0
DWIDTH 21 0
BBX 23 65 -1 0
BITMAP
FE00FE
FE00FE
FE00FE
FE00FE
FE00FE
FE00FE
FE00FE
FE00FE
FE00FE
000000
000000
000000
000000
000000
000000
000000
000000
01FF00
01FF00
01FF00
01FF00
01FF00
01FF00
01FF00
01FF00
01FF00
01FF00
01FF00
01FF00
01FF00
01FF00
01FF00
01FF00
01FF00
01FF00
01FF00
01FF00
01FF00
01FF00
01FF00
01FF00
01FF00
01FF00
01FF00
01FF00
01FF00
01FF00
01FF00
01FF00
01FF00
01FF00
01FF00
01FF00
01FF00
01FF00
01FF00
01FF00
01FF00
01FF00
01FF00
01FF00
01FF00
01FF00
01FF00
01FF00
ENDCHAR
STARTCHAR 00F0
ENCODING 240
SWIDTH 520 0
DWIDTH 50 0
BBX 36 67 7 1
BITMAP
7FF0000000
3FF8000000
1FFC030000
0FFE0F8000
07FF1FC000
03FFFFC000
01FFFF8000
00FFFF0000
00FFFC0000
007FF80000
003FF80000
00FFFC0000
01FFFE0000
03FFFF0000
0FFBFF8000
07F1FFC000
03C0FFE000
01807FF000
00003FF800
00001FFC00
00000FFE00
000007FF00
000003FF80
000001FFC0
000000FFC0
0000007FE0
0000003FE0
0000001FF0
03FFFFFFF0
0FFFFFFFF0
1FFFFFFFF0
3FFFFFFFF0
7FFFFFFFF0
7FFFFFFFF0
7FFFFFFFF0
FFFFFFFFF0
FFE0001FF0
FFC0001FF0
FF80001FF0
FF80001FF0
FF80001FF0
FF80001FF0
FF80001FF0
FF80001FF0
FF80001FF0
FF80001FF0
FF80001FF0
FF80001FF0
FF80001FF0
FF80001FF0
FF80001FF0
FF80001FF0
FF80001FF0
FF80001FF0
FF80001FF0
FF80001FF0
FF80001FF0
FFC0003FF0
FFF000FFF0
FFFFFFFFF0
7FFFFFFFE0
7FFFFFFFE0
7FFFFFFFE0
3FFFFFFFC0
1FFFFFFF80
0FFFFFFF00
03FFFFF800
ENDCHAR
STARTCHAR 00F1
ENCODING 241
SWIDTH 468 0
DWIDTH 45 0
BBX 33 67 6 0
BITMAP
07C000FF80
1FF000FF80
3FFC00FF80
3FFE00FF80
7FFF00FF80
7FFF81FF80
7FFFE1FF80
FFC1FFFF80
FFC0FFFF00
FF807FFF00
FF803FFF00
FF800FFE00
FF8007FC00
FF8001F000
0000000000
0000000000
0000000000
0000000000
0000000000
FFFFFFE000
FFFFFFF800
FFFFFFFC00
FFFFFFFE00
FFFFFFFF00
FFFFFFFF00
FFFFFFFF00
FFFFFFFF80
FF8001FF80
FF8000FF80
FF8000FF80
FF8000FF80
FF8000FF80
FF8000FF80
FF8000FF80
FF8000FF80
FF8000FF80
FF8000FF80
FF8000FF80
FF8000FF80
FF8000FF80
FF8000FF80
FF8000FF80
FF8000FF80
FF8000FF80
FF8000FF80
FF8000FF80
FF8000FF80
FF8000FF80
FF8000FF80
FF8000FF80
FF8000FF80
FF8000FF80
FF8000FF80
FF8000FF80
FF8000FF80
FF8000FF80
FF8000FF80
FF8000FF80
FF8000FF80
FF8000FF80
FF8000FF80
FF8000FF80
FF8000FF80
FF8000FF80
FF8000FF80
FF8000FF80
FF8000FF80
ENDCHAR
STARTCHAR 00F2
ENCODING 242
SWIDTH 468 0
DWIDTH 45 0
BBX 33 67 6 1
BITMAP
0FF8000000
07F8000000
03FC000000
01FE000000
00FF000000
00FF000000
007F800000
003FC00000
001FE00000
000FE00000
0007F00000
0003F80000
0003F80000
0001FC0000
0000000000
0000000000
0000000000
0000000000
0000000000
01FFFFE000
0FFFFFF800
1FFFFFFC00
3FFFFFFE00
7FFFFFFF00
7FFFFFFF00
7FFFFFFF00
FFFFFFFF80
FFC001FF80
FF8000FF80
FF8000FF80
FF8000FF80
FF8000FF80
FF8000FF80
FF8000FF80
FF8000FF80
FF8000FF80
FF8000FF80
FF8000FF80
FF8000FF80
FF8000FF80
FF8000FF80
FF8000FF80
FF8000FF80
FF8000FF80
FF8000FF80
FF8000FF80
FF8000FF80
FF8000FF80
FF8000FF80
FF8000FF80
FF8000FF80
FF8000FF80
FF8000FF80
FF8000FF80
FF8000FF80
FF8000FF80
FF8000FF80
FF8000FF80
FFC001FF80
FFFFFFFF80
7FFFFFFF00
7FFFFFFF00
7FFFFFFF00
3FFFFFFE00
1FFFFFFC00
0FFFFFF800
03FFFFC000
ENDCHAR
STARTCHAR 00F3
ENCODING 243
SWIDTH 468 0
DWIDTH 45 0
BBX 33 67 6 1
BITMAP
00000FF800
00001FF000
00001FE000
00003FC000
00007F8000
0000FF8000
0000FF0000
0001FE0000
0003FC0000
0007F80000
0007F00000
000FE00000
001FC00000
003F800000
0000000000
0000000000
0000000000
0000000000
0000000000
01FFFFE000
0FFFFFF800
1FFFFFFC00
3FFFFFFE00
7FFFFFFF00
7FFFFFFF00
7FFFFFFF00
FFFFFFFF80
FFC001FF80
FF8000FF80
FF8000FF80
FF8000FF80
FF8000FF80
FF8000FF80
FF8000FF80
FF8000FF80
FF8000FF80
FF8000FF80
FF8000FF80
FF8000FF80
FF8000FF80
FF8000FF80
FF8000FF80
FF8000FF80
FF8000FF80
FF8000FF80
FF8000FF80
FF8000FF80
FF8000FF80
FF8000FF80
FF8000FF80
FF8000FF80
FF8000FF80
FF8000FF80
FF8000FF80
FF8000FF80
FF8000FF80
FF8000FF80
FF8000FF80
FFC001FF80
FFFFFFFF80
7FFFFFFF00
7FFFFFFF00
7FFFFFFF00
3FFFFFFE00
1FFFFFFC00
0FFFFFF800
03FFFFC000
ENDCHAR
STARTCHAR 00F4
ENCODING 244
SWIDTH 468 0
DWIDTH 45 0
BBX 34 67 6 1
BITMAP
0007F80000
000FFC0000
000FFC0000
001FFE0000
003FFF0000
003FFF8000
007F3F8000
00FE1FC000
01FC1FE000
01FC0FE000
03F807F000
07F003F800
07E003F800
0FC001FC00
0000000000
0000000000
0000000000
0000000000
0000000000
01FFFFE000
0FFFFFFC00
1FFFFFFE00
3FFFFFFF00
7FFFFFFF80
7FFFFFFF80
7FFFFFFF80
FFFFFFFFC0
FFC000FFC0
FF80007FC0
FF80007FC0
FF80007FC0
FF80007FC0
FF80007FC0
FF80007FC0
FF80007FC0
FF80007FC0
FF80007FC0
FF80007FC0
FF80007FC0
FF80007FC0
FF80007FC0
FF80007FC0
FF80007FC0
FF80007FC0
FF80007FC0
FF80007FC0
FF80007FC0
FF80007FC0
FF80007FC0
FF80007FC0
FF80007FC0
FF80007FC0
FF80007FC0
FF80007FC0
FF80007FC0
FF80007FC0
FF80007FC0
FF80007FC0
FFC000FFC0
FFFFFFFFC0
7FFFFFFF80
7FFFFFFF80
7FFFFFFF80
3FFFFFFF00
1FFFFFFE00
0FFFFFFC00
01FFFFE000
ENDCHAR
STARTCHAR 00F5
ENCODING 245
SWIDTH 468 0
DWIDTH 45 0
BBX 33 67 6 0
BITMAP
07C000FF80
1FF000FF80
3FFC00FF80
3FFE00FF80
7FFF00FF80
7FFF81FF80
7FFFE1FF80
FFC1FFFF80
FFC0FFFF00
FF807FFF00
FF803FFF00
FF800FFE00
FF8007FC00
FF8001F000
0000000000
0000000000
0000000000
0000000000
0000000000
01FFFFE000
0FFFFFF800
1FFFFFFC00
3FFFFFFE00
7FFFFFFF00
7FFFFFFF00
7FFFFFFF00
FFFFFFFF80
FFC001FF80
FF8000FF80
FF8000FF80
FF8000FF80
FF8000FF80
FF8000FF80
FF8000FF80
FF8000FF80
FF8000FF80
FF8000FF80
FF8000FF80
FF8000FF80
FF8000FF80
FF8000FF80
FF8000FF80
FF8000FF80
FF8000FF80
FF8000FF80
FF8000FF80
FF8000FF80
FF8000FF80
FF8000FF80
FF8000FF80
FF8000FF80
FF8000FF80
FF8000FF80
FF8000FF80
FF8000FF80
FF8000FF80
FF8000FF80
FF8000FF80
FFC001FF80
FFFFFFFF80
7FFFFFFF00
7FFFFFFF00
7FFFFFFF00
3FFFFFFE00
1FFFFFFC00
0FFFFFF800
03FFFFC000
ENDCHAR
STARTCHAR 00F6
ENCODING 246
SWIDTH 468 0
DWIDTH 45 0
BBX 33 65 6 0
BITMAP
03F80FE000
03F80FE000
03F80FE000
03F80FE000
03F80FE000
03F80FE000
03F80FE000
03F80FE000
03F80FE000
0000000000
0000000000
0000000000
0000000000
0000000000
0000000000
0000000000
0000000000
01FFFFE000
0FFFFFF800
1FFFFFFC00
3FFFFFFE00
7FFFFFFF00
7FFFFFFF00
7FFFFFFF00
FFFFFFFF80
FFC001FF80
FF8000FF80
FF8000FF80
FF8000FF80
FF8000FF80
FF8000FF80
FF8000FF80
FF8000FF80
FF8000FF80
FF8000FF80
FF8000FF80
FF8000FF80
FF8000FF80
FF8000FF80
FF8000FF80
FF8000FF80
FF8000FF80
FF8000FF80
FF8000FF80
FF8000FF80
FF8000FF80
FF8000FF80
FF8000FF80
FF8000FF80
FF8000FF80
FF8000FF80
FF8000FF80
FF8000FF80
FF8000FF80
FF8000FF80
FF8000FF80
FFC001FF80
FFFFFFFF80
7FFFFFFF00
7FFFFFFF00
7FFFFFFF00
3FFFFFFE00
1FFFFFFC00
0FFFFFF800
03FFFFC000
ENDCHAR
STARTCHAR 00F7
ENCODING 247
SWIDTH 468 0
DWIDTH 45 0
BBX 34 42 5 7
BITMAP
0007F00000
0007F00000
0007F00000
0007F00000
0007F00000
0007F00000
0007F00000
0007F00000
0000000000
0000000000
0000000000
0000000000
0000000000
0000000000
0000000000
0000000000
0000000000
0000000000
FFFFFFFFC0
FFFFFFFFC0
FFFFFFFFC0
FFFFFFFFC0
FFFFFFFFC0
FFFFFFFFC0
FFFFFFFFC0
0000000000
0000000000
0000000000
0000000000
0000000000
0000000000
0000000000
0000000000
0000000000
0007F00000
0007F00000
0007F00000
0007F00000
0007F00000
0007F00000
0007F00000
0007F00000
ENDCHAR
STARTCHAR 00F8
ENCODING 248
SWIDTH 468 0
DWIDTH 45 0
BBX 44 48 1 0
BITMAP
000FFFFE03F0
007FFFFF87E0
00FFFFFFEFC0
01FFFFFFFF80
03FFFFFFFF00
03FFFFFFFF00
03FFFFFFFE00
07FFFFFFFC00
07FE000FFC00
07FC0007FC00
07FC0007FC00
07FC0007FC00
07FC000FFC00
07FC001FFC00
07FC003FFC00
07FC003FFC00
07FC007FFC00
07FC00FFFC00
07FC01FFFC00
07FC03F7FC00
07FC03E7FC00
07FC07C7FC00
07FC0FC7FC00
07FC1F87FC00
07FC1F07FC00
07FC3E07FC00
07FC7C07FC00
07FCFC07FC00
07FDF807FC00
07FDF007FC00
07FFE007FC00
07FFE007FC00
07FFC007FC00
07FF8007FC00
07FF0007FC00
07FE0007FC00
07FE0007FC00
07FC0007FC00
07FC0007FC00
07FE000FFC00
07FFFFFFFC00
0FFFFFFFF800
0FFFFFFFF800
1FFFFFFFF800
3FFFFFFFF000
7EFFFFFFE000
FC3FFFFFC000
FC0FFFFE0000
ENDCHAR
STARTCHAR 00F9
ENCODING 249
SWIDTH 468 0
DWIDTH 45 0
BBX 33 67 6 1
BITMAP
07F8000000
03FC000000
01FE000000
01FF000000
00FF000000
007F800000
003FC00000
001FC00000
000FE00000
0007F00000
0007F80000
0003F80000
0001FC0000
0000FE0000
0000000000
0000000000
0000000000
0000000000
0000000000
FF8000FF80
FF8000FF80
FF8000FF80
FF8000FF80
FF8000FF80
FF8000FF80
FF8000FF80
FF8000FF80
FF8000FF80
FF8000FF80
FF8000FF80
FF8000FF80
FF8000FF80
FF8000FF80
FF8000FF80
FF8000FF80
FF8000FF80
FF8000FF80
FF8000FF80
FF8000FF80
FF8000FF80
FF8000FF80
FF8000FF80
FF8000FF80
FF8000FF80
FF8000FF80
FF8000FF80
FF8000FF80
FF8000FF80
FF8000FF80
FF8000FF80
FF8000FF80
FF8000FF80
FF8000FF80
FF8000FF80
FF8000FF80
FF8000FF80
FF8000FF80
FF8000FF80
FFC000FF80
FFFFFFFF80
7FFFFFFF80
7FFFFFFF80
7FFFFFFF80
3FFFFFFF80
1FFFFFFF80
0FFFFFFF80
03FFFFFF80
ENDCHAR
STARTCHAR 00FA
ENCODING 250
SWIDTH 468 0
DWIDTH 45 0
BBX 33 67 6 1
BITMAP
00000FF000
00001FE000
00003FC000
00007FC000
0000FF8000
0000FF0000
0001FE0000
0003FC0000
0007F80000
0007F00000
000FE00000
001FE00000
003FC00000
003F800000
0000000000
0000000000
0000000000
0000000000
0000000000
FF8000FF80
FF8000FF80
FF8000FF80
FF8000FF80
FF8000FF80
FF8000FF80
FF8000FF80
FF8000FF80
FF8000FF80
FF8000FF80
FF8000FF80
FF8000FF80
FF8000FF80
FF8000FF80
FF8000FF80
FF8000FF80
FF8000FF80
FF8000FF80
FF8000FF80
FF8000FF80
FF8000FF80
FF8000FF80
FF8000FF80
FF8000FF80
FF8000FF80
FF8000FF80
FF8000FF80
FF8000FF80
FF8000FF80
FF8000FF80
FF8000FF80
FF8000FF80
FF8000FF80
FF8000FF80
FF8000FF80
FF8000FF80
FF8000FF80
FF8000FF80
FF8000FF80
FFC000FF80
FFFFFFFF80
7FFFFFFF80
7FFFFFFF80
7FFFFFFF80
3FFFFFFF80
1FFFFFFF80
0FFFFFFF80
03FFFFFF80
ENDCHAR
STARTCHAR 00FB
ENCODING 251
SWIDTH 468 0
DWIDTH 45 0
BBX 34 67 6 1
BITMAP
0007F80000
000FFC0000
000FFC0000
001FFE0000
003FFF0000
003FFF8000
007F3F8000
00FE1FC000
01FC1FE000
01FC0FE000
03F807F000
07F003F800
07E003F800
0FC001FC00
0000000000
0000000000
0000000000
0000000000
0000000000
FF80007FC0
FF80007FC0
FF80007FC0
FF80007FC0
FF80007FC0
FF80007FC0
FF80007FC0
FF80007FC0
FF80007FC0
FF80007FC0
FF80007FC0
FF80007FC0
FF80007FC0
FF80007FC0
FF80007FC0
FF80007FC0
FF80007FC0
FF80007FC0
FF80007FC0
FF80007FC0
FF80007FC0
FF80007FC0
FF80007FC0
FF80007FC0
FF80007FC0
FF80007FC0
FF80007FC0
FF80007FC0
FF80007FC0
FF80007FC0
FF80007FC0
FF80007FC0
FF80007FC0
FF80007FC0
FF80007FC0
FF80007FC0
FF80007FC0
FF80007FC0
FF80007FC0
FFC0007FC0
FFFFFFFFC0
7FFFFFFFC0
7FFFFFFFC0
7FFFFFFFC0
3FFFFFFFC0
1FFFFFFFC0
0FFFFFFFC0
01FFFFFFC0
ENDCHAR
STARTCHAR 00FC
ENCODING 252
SWIDTH 468 0
DWIDTH 45 0
BBX 33 65 6 0
BITMAP
03F80FE000
03F80FE000
03F80FE000
03F80FE000
03F80FE000
03F80FE000
03F80FE000
03F80FE000
03F80FE000
0000000000
0000000000
0000000000
0000000000
0000000000
0000000000
0000000000
0000000000
FF8000FF80
FF8000FF80
FF8000FF80
FF8000FF80
FF8000FF80
FF8000FF80
FF8000FF80
FF8000FF80
FF8000FF80
FF8000FF80
FF8000FF80
FF8000FF80
FF8000FF80
FF8000FF80
FF8000FF80
FF8000FF80
FF8000FF80
FF8000FF80
FF8000FF80
FF8000FF80
FF8000FF80
FF8000FF80
FF8000FF80
FF8000FF80
FF8000FF80
FF8000FF80
FF8000FF80
FF8000FF80
FF8000FF80
FF8000FF80
FF8000FF80
FF8000FF80
FF8000FF80
FF8000FF80
FF8000FF80
FF8000FF80
FF8000FF80
FF8000FF80
FF8000FF80
FFC000FF80
FFFFFFFF80
7FFFFFFF80
7FFFFFFF80
7FFFFFFF80
3FFFFFFF80
1FFFFFFF80
0FFFFFFF80
03FFFFFF80
ENDCHAR
STARTCHAR 00FD
ENCODING 253
SWIDTH 416 0
DWIDTH 40 0
BBX 39 86 1 -19
BITMAP
0000007F80
000000FF80
000001FF00
000001FE00
000003FC00
000007F800
00000FF000
00000FE000
00001FE000
00003FC000
00007F8000
0000FF0000
0000FE0000
0001FC0000
0000000000
0000000000
0000000000
0000000000
0000000000
FFC00007FE
FFC00007FE
7FE00007FC
7FE00007FC
7FE0000FFC
3FF0000FF8
3FF0000FF8
3FF0000FF8
3FF0001FF8
1FF8001FF0
1FF8001FF0
1FF8001FF0
0FF8001FE0
0FFC003FE0
0FFC003FE0
0FFC003FC0
07FC003FC0
07FE007FC0
07FE007FC0
03FE007F80
03FE007F80
03FF00FF80
01FF00FF00
01FF00FF00
01FF00FF00
01FF81FF00
00FF81FE00
00FF81FE00
00FF81FE00
007FC3FC00
007FC3FC00
007FC3FC00
007FC3FC00
003FE3F800
003FE7F800
003FE7F800
001FE7F000
001FF7F000
001FFFF000
001FFFE000
000FFFE000
000FFFE000
000FFFE000
0007FFC000
0007FFC000
0007FFC000
0003FF8000
0003FF8000
0000FF8000
0001FF8000
0001FF0000
0001FF0000
0003FF0000
0003FE0000
0003FE0000
0007FE0000
0007FE0000
000FFC0000
000FFC0000
000FFC0000
001FF80000
001FF80000
003FF80000
003FF00000
003FF00000
007FF00000
007FF00000
ENDCHAR
STARTCHAR 00FF
ENCODING 255
SWIDTH 416 0
DWIDTH 40 0
BBX 39 84 1 -20
BITMAP
007F00FE00
007F00FE00
007F00FE00
007F00FE00
007F00FE00
007F00FE00
007F00FE00
007F00FE00
007F00FE00
0000000000
0000000000
0000000000
0000000000
0000000000
0000000000
0000000000
0000000000
FFE00003FE
FFE00007FE
7FE00007FC
7FF00007FC
7FF00007FC
3FF0000FF8
3FF0000FF8
3FF8000FF8
1FF8000FF8
1FF8001FF0
1FF8001FF0
1FF8001FF0
0FFC001FE0
0FFC003FE0
0FFC003FE0
07FC003FC0
07FE003FC0
07FE007FC0
03FE007FC0
03FE007F80
03FF007F80
01FF00FF80
01FF00FF00
01FF00FF00
01FF80FF00
00FF81FF00
00FF81FE00
00FF81FE00
007FC1FE00
007FC3FC00
007FC3FC00
003FC3FC00
003FE3FC00
003FE3F800
003FE7F800
001FE7F800
001FF7F000
001FF7F000
000FFFF000
000FFFE000
000FFFE000
0007FFE000
0007FFE000
0007FFC000
0003FFC000
0003FFC000
0003FF8000
0003FF8000
0000FF8000
0001FF8000
0001FF0000
0001FF0000
0003FF0000
0003FE0000
0003FE0000
0007FE0000
0007FE0000
0007FC0000
000FFC0000
000FFC0000
000FF80000
001FF80000
001FF80000
001FF00000
003FF00000
003FF00000
007FF00000
ENDCHAR
STARTCHAR 0100
ENCODING 256
SWIDTH 500 0
DWIDTH 48 0
BBX 48 87 0 -19
BITMAP
00003FFC0000
00003FFC0000
00003FFC0000
00007FFE0000
00007FFE0000
00007FFE0000
0000FFFE0000
0000FFFF0000
0000FFFF0000
0000FFFF0000
0001FFFF0000
0001FEFF8000
0001FEFF8000
0001FEFF8000
0003FEFF8000
0003FC7FC000
0003FC7FC000
0003FC7FC000
0007FC7FE000
0007FC3FE000
0007F83FE000
0007F83FE000
000FF83FF000
000FF81FF000
000FF01FF000
000FF01FF000
001FF01FF800
001FF00FF800
001FE00FF800
001FE00FF800
003FE00FFC00
003FE00FFC00
003FC007FC00
007FC007FC00
007FC007FE00
007FC007FE00
007F8003FE00
00FF8003FE00
00FF8003FF00
00FF8003FF00
00FF0001FF00
01FF0001FF80
01FF0001FF80
01FF0001FF80
01FE0000FF80
03FFFFFFFFC0
03FFFFFFFFC0
03FFFFFFFFC0
03FFFFFFFFC0
07FFFFFFFFE0
07FFFFFFFFE0
07FFFFFFFFE0
07FC00007FE0
0FFC00007FF0
0FFC00007FF0
0FF800003FF0
1FF800003FF0
1FF800003FF8
1FF800003FF8
1FF800001FF8
3FF000001FFC
3FF000001FFC
3FF000001FFC
3FF000000FFC
7FE000000FFE
7FE000000FFE
7FE000000FFE
7FE000000FFE
FFE0000007FF
FFC0000007FF
0000000000FC
0000000007F0
000000001F80
000000007E00
00000001FC00
00000003F000
00000007E000
0000000FE000
0000000FE000
0000000FE000
0000000FF000
0000000FFE00
0000000FFFFF
0000000FFFFF
00000007FFFF
00000003FFFF
00000000FFFF
ENDCHAR
STARTCHAR 0101
ENCODING 257
SWIDTH 458 0
DWIDTH 44 0
BBX 34 67 5 -19
BITMAP
FFFFFFE000
FFFFFFF800
FFFFFFFE00
FFFFFFFF00
FFFFFFFF00
FFFFFFFF80
FFFFFFFF80
FFFFFFFFC0
000000FFC0
0000007FC0
0000007FC0
0000007FC0
0000007FC0
0000007FC0
0000007FC0
0000007FC0
0000007FC0
0000007FC0
01FFFFFFC0
07FFFFFFC0
1FFFFFFFC0
3FFFFFFFC0
3FFFFFFFC0
7FFFFFFFC0
7FE0007FC0
FFC0007FC0
FF80007FC0
FF80007FC0
FF80007FC0
FF80007FC0
FF80007FC0
FF80007FC0
FF80007FC0
FF80007FC0
FF80007FC0
FF80007FC0
FF80007FC0
FF80007FC0
FF80007FC0
FFC0007FC0
FFF8007FC0
FFFFFFFFC0
FFFFFFFFC0
7FFFFFFFC0
7FFFFFFFC0
3FFFFFFFC0
3FFFFFFFC0
1FFFFFFFC0
07FFFFFFC0
01FFFFFFC0
000000FF00
000007FC00
00001FE000
00003F8000
0000FE0000
0001FC0000
0003F80000
0003F80000
0003F80000
0003F80000
0003FC0000
0003FF0000
0003FFFFC0
0003FFFFC0
0001FFFFC0
0000FFFFC0
00003FFFC0
ENDCHAR
STARTCHAR 0102
ENCODING 258
SWIDTH 500 0
DWIDTH 48 0
BBX 48 80 0 1
BITMAP
00000FF00000
00001FF80000
00003FFC0000
00007FFE0000
0000FEFF0000
0001FC3F8000
0003F81FC000
0007F00FE000
000FE007F000
000000000000
000000000000
000000000000
00003FFE0000
00003FFE0000
00003FFE0000
00003FFE0000
00007FFF0000
00007FFF0000
00007FFF0000
00007FFF0000
0000FFFF8000
0000FFFF8000
0000FFFF8000
0001FFFF8000
0001FFFFC000
0001FF7FC000
0001FE7FC000
0003FE7FC000
0003FE7FE000
0003FE3FE000
0003FC3FE000
0007FC3FF000
0007FC3FF000
0007FC1FF000
000FF81FF000
000FF81FF800
000FF81FF800
000FF80FF800
001FF00FF800
001FF00FFC00
001FF00FFC00
001FF007FC00
003FE007FC00
003FE007FE00
003FE007FE00
007FE003FE00
007FC003FE00
007FC003FF00
007FC003FF00
00FFC001FF00
00FF8001FF00
00FF8001FF80
00FF8001FF80
01FF8000FF80
01FF0000FF80
01FF0000FFC0
03FF0000FFC0
03FFFFFFFFC0
03FFFFFFFFC0
03FFFFFFFFE0
07FFFFFFFFE0
07FFFFFFFFE0
07FFFFFFFFF0
07FFFFFFFFF0
0FFC00003FF0
0FFC00003FF0
0FFC00003FF8
1FFC00001FF8
1FF800001FF8
1FF800001FF8
1FF800001FFC
3FF800000FFC
3FF000000FFC
3FF000000FFC
3FF000000FFE
7FF0000007FE
7FE0000007FE
7FE0000007FE
FFE0000007FF
FFE0000003FF
ENDCHAR
STARTCHAR 0103
ENCODING 259
SWIDTH 458 0
DWIDTH 44 0
BBX 34 67 5 1
BITMAP
0007F80000
000FFC0000
000FFE0000
001FFE0000
003FFF0000
007FFF8000
007F3F8000
00FE1FC000
01FC1FE000
01FC0FE000
03F807F000
07F003F800
07E001FC00
0FE001FC00
0000000000
0000000000
0000000000
0000000000
0000000000
FFFFFFE000
FFFFFFFC00
FFFFFFFE00
FFFFFFFF00
FFFFFFFF80
FFFFFFFF80
FFFFFFFF80
FFFFFFFFC0
000000FFC0
0000007FC0
0000007FC0
0000007FC0
0000007FC0
0000007FC0
0000007FC0
0000007FC0
0000007FC0
0000007FC0
01FFFFFFC0
0FFFFFFFC0
1FFFFFFFC0
3FFFFFFFC0
7FFFFFFFC0
7FFFFFFFC0
7FE0007FC0
FFC0007FC0
FF80007FC0
FF80007FC0
FF80007FC0
FF80007FC0
FF80007FC0
FF80007FC0
FF80007FC0
FF80007FC0
FF80007FC0
FF80007FC0
FF80007FC0
FF80007FC0
FF80007FC0
FFC0007FC0
FFF8007FC0
7FFFFFFFC0
7FFFFFFFC0
7FFFFFFFC0
3FFFFFFFC0
1FFFFFFFC0
0FFFFFFFC0
01FFFFFFC0
ENDCHAR
STARTCHAR 0104
ENCODING 260
SWIDTH 500 0
DWIDTH 48 0
BBX 48 81 0 0
BITMAP
00007FFE0000
0001FFFF8000
0003FFFFC000
0007FFFFE000
0007F00FE000
0007E007E000
0007E007E000
0007F00FE000
0007FFFFE000
0003FFFFC000
0001FFFF8000
00007FFE0000
000000000000
000000000000
00003FFC0000
00003FFC0000
00003FFE0000
00003FFE0000
00007FFE0000
00007FFF0000
00007FFF0000
0000FFFF0000
0000FFFF0000
0000FFFF8000
0000FFFF8000
0001FFFF8000
0001FEFF8000
0001FE7FC000
0001FE7FC000
0003FE7FC000
0003FC7FE000
0003FC3FE000
0007FC3FE000
0007FC3FE000
0007F83FF000
0007F81FF000
000FF81FF000
000FF81FF000
000FF01FF800
001FF00FF800
001FF00FF800
001FF00FF800
001FE00FFC00
003FE007FC00
003FE007FC00
003FE007FE00
003FC007FE00
007FC003FE00
007FC003FE00
007FC003FF00
00FF8003FF00
00FF8001FF00
00FF8001FF00
00FF8001FF80
01FF0001FF80
01FF0000FF80
01FF0000FF80
03FF0000FFC0
03FFFFFFFFC0
03FFFFFFFFC0
03FFFFFFFFE0
07FFFFFFFFE0
07FFFFFFFFE0
07FFFFFFFFE0
07FFFFFFFFF0
0FFC00007FF0
0FFC00003FF0
0FFC00003FF0
1FF800003FF8
1FF800003FF8
1FF800001FF8
1FF800001FF8
3FF000001FFC
3FF000001FFC
3FF000000FFC
3FF000000FFE
7FE000000FFE
7FE000000FFE
7FE0000007FE
FFE0000007FF
FFC0000007FF
ENDCHAR
STARTCHAR 0105
ENCODING 261
SWIDTH 458 0
DWIDTH 44 0
BBX 34 69 5 0
BITMAP
003FFF0000
00FFFFC000
01FFFFE000
01FFFFE000
03FFFFF000
03E001F000
0380007000
0380007000
0380007000
0380007000
0380007000
03E000F000
03FFFFE000
01FFFFE000
00FFFFC000
003FFF0000
0000000000
0000000000
0000000000
0000000000
0000000000
FFFFFFE000
FFFFFFFC00
FFFFFFFE00
FFFFFFFF00
FFFFFFFF80
FFFFFFFF80
FFFFFFFF80
FFFFFFFFC0
000000FFC0
0000007FC0
0000007FC0
0000007FC0
0000007FC0
0000007FC0
0000007FC0
0000007FC0
0000007FC0
0000007FC0
03FFFFFFC0
0FFFFFFFC0
1FFFFFFFC0
3FFFFFFFC0
7FFFFFFFC0
7FFFFFFFC0
7FE0007FC0
FFC0007FC0
FF80007FC0
FF80007FC0
FF80007FC0
FF80007FC0
FF80007FC0
FF80007FC0
FF80007FC0
FF80007FC0
FF80007FC0
FF80007FC0
FF80007FC0
FF80007FC0
FF80007FC0
FFC0007FC0
FFF8007FC0
7FFFFFFFC0
7FFFFFFFC0
7FFFFFFFC0
3FFFFFFFC0
1FFFFFFFC0
0FFFFFFFC0
01FFFFFFC0
ENDCHAR
STARTCHAR 0106
ENCODING 262
SWIDTH 468 0
DWIDTH 45 0
BBX 36 79 7 1
BITMAP
007F003F80
003F807F00
001FC0FE00
000FE1FC00
0007F3F800
0003FFF000
0001FFE000
0000FFC000
00007F8000
0000000000
0000000000
0000000000
01FFFFFFF0
0FFFFFFFF0
1FFFFFFFF0
3FFFFFFFF0
7FFFFFFFF0
7FFFFFFFF0
7FFFFFFFF0
FFFFFFFFF0
FFF0000070
FFC0000000
FF80000000
FF80000000
FF80000000
FF80000000
FF80000000
FF80000000
FF80000000
FF80000000
FF80000000
FF80000000
FF80000000
FF80000000
FF80000000
FF80000000
FF80000000
FF80000000
FF80000000
FF80000000
FF80000000
FF80000000
FF80000000
FF80000000
FF80000000
FF80000000
FF80000000
FF80000000
FF80000000
FF80000000
FF80000000
FF80000000
FF80000000
FF80000000
FF80000000
FF80000000
FF80000000
FF80000000
FF80000000
FF80000000
FF80000000
FF80000000
FF80000000
FF80000000
FF80000000
FF80000000
FF80000000
FF80000000
FF80000000
FFC0000000
FFF0000070
FFFFFFFFF0
7FFFFFFFF0
7FFFFFFFF0
7FFFFFFFF0
3FFFFFFFF0
1FFFFFFFF0
0FFFFFFFF0
03FFFFFFF0
ENDCHAR
STARTCHAR 0107
ENCODING 263
SWIDTH 375 0
DWIDTH 36 0
BBX 30 67 6 1
BITMAP
0FE000FC
07F001F8
03F803F0
03F807F0
01FC0FE0
00FE0FC0
007F1FC0
007FBF80
003FFF00
001FFF00
001FFE00
000FFC00
0007FC00
0007F800
00000000
00000000
00000000
00000000
00000000
01FFFFFC
07FFFFFC
1FFFFFFC
3FFFFFFC
3FFFFFFC
7FFFFFFC
7FFFFFFC
FFFFFFFC
FFE00000
FFC00000
FF800000
FF800000
FF800000
FF800000
FF800000
FF800000
FF800000
FF800000
FF800000
FF800000
FF800000
FF800000
FF800000
FF800000
FF800000
FF800000
FF800000
FF800000
FF800000
FF800000
FF800000
FF800000
FF800000
FF800000
FF800000
FF800000
FF800000
FF800000
FFC00000
FFC00000
FFFFFFFC
7FFFFFFC
7FFFFFFC
7FFFFFFC
3FFFFFFC
1FFFFFFC
0FFFFFFC
01FFFFFC
ENDCHAR
STARTCHAR 0108
ENCODING 264
SWIDTH 468 0
DWIDTH 45 0
BBX 34 78 7 0
BITMAP
0003FC0000
0003FC0000
0003FC0000
0003FC0000
0003FC0000
0003FC0000
0003FC0000
0000000000
0000000000
0000000000
0000000000
03FFFFFFC0
0FFFFFFFC0
1FFFFFFFC0
3FFFFFFFC0
7FFFFFFFC0
7FFFFFFFC0
7FFFFFFFC0
FFFFFFFFC0
FFF00001C0
FFC0000000
FF80000000
FF80000000
FF80000000
FF80000000
FF80000000
FF80000000
FF80000000
FF80000000
FF80000000
FF80000000
FF80000000
FF80000000
FF80000000
FF80000000
FF80000000
FF80000000
FF80000000
FF80000000
FF80000000
FF80000000
FF80000000
FF80000000
FF80000000
FF80000000
FF80000000
FF80000000
FF80000000
FF80000000
FF80000000
FF80000000
FF80000000
FF80000000
FF80000000
FF80000000
FF80000000
FF80000000
FF80000000
FF80000000
FF80000000
FF80000000
FF80000000
FF80000000
FF80000000
FF80000000
FF80000000
FF80000000
FF80000000
FFC0000000
FFF00001C0
FFFFFFFFC0
7FFFFFFFC0
7FFFFFFFC0
7FFFFFFFC0
3FFFFFFFC0
1FFFFFFFC0
0FFFFFFFC0
03FFFFFFC0
ENDCHAR
STARTCHAR 0109
ENCODING 265
SWIDTH 375 0
DWIDTH 36 0
BBX 27 63 6 0
BITMAP
003FE000
003FE000
003FE000
003FE000
003FE000
003FE000
003FE000
003FE000
003FE000
00000000
00000000
00000000
00000000
00000000
00000000
03FFFFE0
0FFFFFE0
1FFFFFE0
3FFFFFE0
7FFFFFE0
7FFFFFE0
7FFFFFE0
FFFFFFE0
FFC00020
FFC00000
FF800000
FF800000
FF800000
FF800000
FF800000
FF800000
FF800000
FF800000
FF800000
FF800000
FF800000
FF800000
FF800000
FF800000
FF800000
FF800000
FF800000
FF800000
FF800000
FF800000
FF800000
FF800000
FF800000
FF800000
FF800000
FF800000
FF800000
FF800000
FF800000
FFC00000
FFFFFFE0
7FFFFFE0
7FFFFFE0
7FFFFFE0
3FFFFFE0
1FFFFFE0
0FFFFFE0
03FFFFE0
ENDCHAR
STARTCHAR 010A
ENCODING 266
SWIDTH 552 0
DWIDTH 53 0
BBX 39 79 7 1
BITMAP
01FC00FE00
00FE01FC00
007F03F800
003F87F000
001FCFE000
000FFFC000
0007FF8000
0003FF0000
0001FE0000
0000000000
0000000000
0000000000
FFFFFFFF80
FFFFFFFFE0
FFFFFFFFF0
FFFFFFFFF8
FFFFFFFFFC
FFFFFFFFFC
FFFFFFFFFC
FFFFFFFFFE
FF80001FFE
FF800007FE
FF800003FE
FF800003FE
FF800003FE
FF800003FE
FF800003FE
FF800003FE
FF800003FE
FF800003FE
FF800003FE
FF800003FE
FF800003FE
FF800003FE
FF800003FE
FF800003FE
FF800003FE
FF800003FE
FF800003FE
FF800003FE
FF800003FE
FF800003FE
FF800003FE
FF800003FE
FF800003FE
FF800003FE
FF800003FE
FF800003FE
FF800003FE
FF800003FE
FF800003FE
FF800003FE
FF800003FE
FF800003FE
FF800003FE
FF800003FE
FF800003FE
FF800003FE
FF800003FE
FF800003FE
FF800003FE
FF800003FE
FF800003FE
FF800003FE
FF800003FE
FF800003FE
FF800003FE
FF800003FE
FF800003FE
FF800007FE
FF80001FFE
FFFFFFFFFE
FFFFFFFFFC
FFFFFFFFFC
FFFFFFFFFC
FFFFFFFFF8
FFFFFFFFF0
FFFFFFFFE0
FFFFFFFF80
ENDCHAR
STARTCHAR 010B
ENCODING 267
SWIDTH 468 0
DWIDTH 45 0
BBX 37 79 7 1
BITMAP
000000FF00
000001FE00
000003F800
000007F000
00000FE000
00001FC000
00003F8000
00007E0000
0001FC0000
0000000000
0000000000
0000000000
01FFFFFFF8
0FFFFFFFF8
1FFFFFFFF8
3FFFFFFFF8
7FFFFFFFF8
7FFFFFFFF8
7FFFFFFFF8
FFFFFFFFF8
FFF0000078
FFC0000000
FF80000000
FF80000000
FF80000000
FF80000000
FF80000000
FF80000000
FF80000000
FF80000000
FF80000000
FF80000000
FF80000000
FF80000000
FF80000000
FF80000000
FF80000000
FF80000000
FF80000000
FF80000000
FF80000000
FF80000000
FF80000000
FF80000000
FF80000000
FF80000000
FF80000000
FF80000000
FF80000000
FF80000000
FF80000000
FF80000000
FF80000000
FF80000000
FF80000000
FF80000000
FF80000000
FF80000000
FF80000000
FF80000000
FF80000000
FF80000000
FF80000000
FF80000000
FF80000000
FF80000000
FF80000000
FF80000000
FF80000000
FFC0000000
FFF0000078
FFFFFFFFF8
7FFFFFFFF8
7FFFFFFFF8
7FFFFFFFF8
3FFFFFFFF8
1FFFFFFFF8
0FFFFFFFF8
03FFFFFFF8
ENDCHAR
STARTCHAR 010C
ENCODING 268
SWIDTH 468 0
DWIDTH 45 0
BBX 36 86 7 -19
BITMAP
01FFFFFFF0
0FFFFFFFF0
1FFFFFFFF0
3FFFFFFFF0
7FFFFFFFF0
7FFFFFFFF0
7FFFFFFFF0
FFFFFFFFF0
FFF00000F0
FFC0000000
FF80000000
FF80000000
FF80000000
FF80000000
FF80000000
FF80000000
FF80000000
FF80000000
FF80000000
FF80000000
FF80000000
FF80000000
FF80000000
FF80000000
FF80000000
FF80000000
FF80000000
FF80000000
FF80000000
FF80000000
FF80000000
FF80000000
FF80000000
FF80000000
FF80000000
FF80000000
FF80000000
FF80000000
FF80000000
FF80000000
FF80000000
FF80000000
FF80000000
FF80000000
FF80000000
FF80000000
FF80000000
FF80000000
FF80000000
FF80000000
FF80000000
FF80000000
FF80000000
FF80000000
FF80000000
FF80000000
FF80000000
FFC0000000
FFF00000F0
FFFFFFFFF0
7FFFFFFFF0
7FFFFFFFF0
7FFFFFFFF0
3FFFFFFFF0
1FFFFFFFF0
0FFFFFFFF0
03FFFFFFF0
00003E0000
00003E0000
00007E0000
00007FF000
00007FF800
0000FFFC00
0000FFFE00
000000FE00
0000007E00
0000007E00
0000007E00
0000007E00
0000007E00
000000FE00
0007FFFE00
0007FFFC00
000FFFFC00
000FFFF800
000FFFE000
ENDCHAR
STARTCHAR 010D
ENCODING 269
SWIDTH 375 0
DWIDTH 36 0
BBX 25 67 6 -19
BITMAP
03FFFF80
0FFFFF80
1FFFFF80
3FFFFF80
7FFFFF80
7FFFFF80
7FFFFF80
FFFFFF80
FFC00000
FF800000
FF800000
FF800000
FF800000
FF800000
FF800000
FF800000
FF800000
FF800000
FF800000
FF800000
FF800000
FF800000
FF800000
FF800000
FF800000
FF800000
FF800000
FF800000
FF800000
FF800000
FF800000
FF800000
FF800000
FF800000
FF800000
FF800000
FF800000
FF800000
FF800000
FFC00000
FFFFFF80
7FFFFF80
7FFFFF80
7FFFFF80
3FFFFF80
1FFFFF80
0FFFFF80
03FFFF80
000F8000
000F0000
000F0000
000FF800
001FFC00
001FFE00
001FFF00
00007F00
00003F00
00003F00
00003F00
00003F00
00003F00
00007F00
00FFFF00
00FFFE00
00FFFE00
01FFFC00
01FFF800
ENDCHAR
STARTCHAR 010E
ENCODING 270
SWIDTH 552 0
DWIDTH 53 0
BBX 39 78 7 0
BITMAP
00FFFFF800
00FFFFF800
00FFFFF800
00FFFFF800
00FFFFF800
00FFFFF800
0000000000
0000000000
0000000000
0000000000
0000000000
FFFFFFFF80
FFFFFFFFE0
FFFFFFFFF0
FFFFFFFFF8
FFFFFFFFFC
FFFFFFFFFC
FFFFFFFFFC
FFFFFFFFFE
FF80001FFE
FF800007FE
FF800003FE
FF800003FE
FF800003FE
FF800003FE
FF800003FE
FF800003FE
FF800003FE
FF800003FE
FF800003FE
FF800003FE
FF800003FE
FF800003FE
FF800003FE
FF800003FE
FF800003FE
FF800003FE
FF800003FE
FF800003FE
FF800003FE
FF800003FE
FF800003FE
FF800003FE
FF800003FE
FF800003FE
FF800003FE
FF800003FE
FF800003FE
FF800003FE
FF800003FE
FF800003FE
FF800003FE
FF800003FE
FF800003FE
FF800003FE
FF800003FE
FF800003FE
FF800003FE
FF800003FE
FF800003FE
FF800003FE
FF800003FE
FF800003FE
FF800003FE
FF800003FE
FF800003FE
FF800003FE
FF800003FE
FF800007FE
FF80001FFE
FFFFFFFFFE
FFFFFFFFFC
FFFFFFFFFC
FFFFFFFFFC
FFFFFFFFF8
FFFFFFFFF0
FFFFFFFFE0
FFFFFFFF80
ENDCHAR
STARTCHAR 010F
ENCODING 271
SWIDTH 468 0
DWIDTH 45 0
BBX 37 67 6 0
BITMAP
000000FF80
000000FF80
000000FF80
000000FF80
000000FF80
0001FFFFF8
0001FFFFF8
0001FFFFF8
0001FFFFF8
0001FFFFF8
0001FFFFF8
000000FF80
000000FF80
000000FF80
000000FF80
000000FF80
000000FF80
000000FF80
000000FF80
01FFFFFF80
0FFFFFFF80
1FFFFFFF80
3FFFFFFF80
7FFFFFFF80
7FFFFFFF80
7FFFFFFF80
FFFFFFFF80
FFC000FF80
FF8000FF80
FF8000FF80
FF8000FF80
FF8000FF80
FF8000FF80
FF8000FF80
FF8000FF80
FF8000FF80
FF8000FF80
FF8000FF80
FF8000FF80
FF8000FF80
FF8000FF80
FF8000FF80
FF8000FF80
FF8000FF80
FF8000FF80
FF8000FF80
FF8000FF80
FF8000FF80
FF8000FF80
FF8000FF80
FF8000FF80
FF8000FF80
FF8000FF80
FF8000FF80
FF8000FF80
FF8000FF80
FF8000FF80
FF8000FF80
FFC000FF80
FFFFFFFF80
7FFFFFFF80
7FFFFFFF80
7FFFFFFF80
3FFFFFFF80
1FFFFFFF80
0FFFFFFF80
03FFFFFF80
ENDCHAR
STARTCHAR 0111
ENCODING 273
SWIDTH 468 0
DWIDTH 45 0
BBX 34 67 6 0
BITMAP
0000007FC0
0000007FC0
0000007FC0
0000007FC0
0000007FC0
07FFFFFFC0
07FFFFFFC0
07FFFFFFC0
07FFFFFFC0
07FFFFFFC0
07FFFFFFC0
0000007FC0
0000007FC0
0000007FC0
0000007FC0
0000007FC0
0000007FC0
0000007FC0
0000007FC0
01FFFFFFC0
0FFFFFFFC0
1FFFFFFFC0
3FFFFFFFC0
7FFFFFFFC0
7FFFFFFFC0
7FFFFFFFC0
FFFFFFFFC0
FFC0007FC0
FF80007FC0
FF80007FC0
FF80007FC0
FF80007FC0
FF80007FC0
FF80007FC0
FF80007FC0
FF80007FC0
FF80007FC0
FF80007FC0
FF80007FC0
FF80007FC0
FF80007FC0
FF80007FC0
FF80007FC0
FF80007FC0
FF80007FC0
FF80007FC0
FF80007FC0
FF80007FC0
FF80007FC0
FF80007FC0
FF80007FC0
FF80007FC0
FF80007FC0
FF80007FC0
FF80007FC0
FF80007FC0
FF80007FC0
FF80007FC0
FFC0007FC0
FFFFFFFFC0
7FFFFFFFC0
7FFFFFFFC0
7FFFFFFFC0
3FFFFFFFC0
1FFFFFFFC0
0FFFFFFFC0
01FFFFFFC0
ENDCHAR
STARTCHAR 0112
ENCODING 274
SWIDTH 479 0
DWIDTH 46 0
BBX 37 78 7 0
BITMAP
007FFFFC00
007FFFFC00
007FFFFC00
007FFFFC00
007FFFFC00
007FFFFC00
0000000000
0000000000
0000000000
0000000000
0000000000
FFFFFFFFE0
FFFFFFFFE0
FFFFFFFFE0
FFFFFFFFE0
FFFFFFFFE0
FFFFFFFFE0
FFFFFFFFE0
FFFFFFFFE0
FF80000000
FF80000000
FF80000000
FF80000000
FF80000000
FF80000000
FF80000000
FF80000000
FF80000000
FF80000000
FF80000000
FF80000000
FF80000000
FF80000000
FF80000000
FF80000000
FF80000000
FF80000000
FF80000000
FF80000000
FFFFFFFC00
FFFFFFFC00
FFFFFFFC00
FFFFFFFC00
FFFFFFFC00
FFFFFFFC00
FFFFFFFC00
FFFFFFFC00
FF80000000
FF80000000
FF80000000
FF80000000
FF80000000
FF80000000
FF80000000
FF80000000
FF80000000
FF80000000
FF80000000
FF80000000
FF80000000
FF80000000
FF80000000
FF80000000
FF80000000
FF80000000
FF80000000
FF80000000
FF80000000
FF80000000
FF80000000
FFFFFFFFF8
FFFFFFFFF8
FFFFFFFFF8
FFFFFFFFF8
FFFFFFFFF8
FFFFFFFFF8
FFFFFFFFF8
FFFFFFFFF8
ENDCHAR
STARTCHAR 0113
ENCODING 275
SWIDTH 458 0
DWIDTH 44 0
BBX 32 62 6 0
BITMAP
01FFFFF0
01FFFFF0
01FFFFF0
01FFFFF0
01FFFFF0
01FFFFF0
00000000
00000000
00000000
00000000
00000000
00000000
00000000
00000000
01FFFFC0
0FFFFFF0
1FFFFFF8
3FFFFFFC
7FFFFFFE
7FFFFFFE
7FFFFFFF
FFF007FF
FFC001FF
FF8000FF
FF8000FF
FF8000FF
FF8000FF
FF8000FF
FF8000FF
FF8000FF
FF8000FF
FFFFFFFF
FFFFFFFF
FFFFFFFF
FFFFFFFF
FFFFFFFF
FFFFFFFF
FFFFFFFF
FF800000
FF800000
FF800000
FF800000
FF800000
FF800000
FF800000
FF800000
FF800000
FF800000
FF800000
FF800000
FF800000
FF800000
FF800000
FFC00000
FFFFFFFF
7FFFFFFF
7FFFFFFF
7FFFFFFF
3FFFFFFF
1FFFFFFF
0FFFFFFF
01FFFFFF
ENDCHAR
STARTCHAR 0114
ENCODING 276
SWIDTH 479 0
DWIDTH 46 0
BBX 36 80 7 0
BITMAP
03F000FC00
03F000FC00
03F000FC00
03F000FC00
03F801FC00
03FFFFFC00
01FFFFF800
01FFFFF800
00FFFFF000
003FFFC000
0000000000
0000000000
0000000000
FFFFFFFFE0
FFFFFFFFE0
FFFFFFFFE0
FFFFFFFFE0
FFFFFFFFE0
FFFFFFFFE0
FFFFFFFFE0
FFFFFFFFE0
FF80000000
FF80000000
FF80000000
FF80000000
FF80000000
FF80000000
FF80000000
FF80000000
FF80000000
FF80000000
FF80000000
FF80000000
FF80000000
FF80000000
FF80000000
FF80000000
FF80000000
FF80000000
FF80000000
FF80000000
FFFFFFFC00
FFFFFFFC00
FFFFFFFC00
FFFFFFFC00
FFFFFFFC00
FFFFFFFC00
FFFFFFFC00
FFFFFFFC00
FF80000000
FF80000000
FF80000000
FF80000000
FF80000000
FF80000000
FF80000000
FF80000000
FF80000000
FF80000000
FF80000000
FF80000000
FF80000000
FF80000000
FF80000000
FF80000000
FF80000000
FF80000000
FF80000000
FF80000000
FF80000000
FF80000000
FF80000000
FFFFFFFFF0
FFFFFFFFF0
FFFFFFFFF0
FFFFFFFFF0
FFFFFFFFF0
FFFFFFFFF0
FFFFFFFFF0
FFFFFFFFF0
ENDCHAR
STARTCHAR 0115
ENCODING 277
SWIDTH 458 0
DWIDTH 44 0
BBX 32 67 6 1
BITMAP
0F8000F0
0F8000F0
0F8000F0
0F8000F0
0F8000F0
0FC001F0
0FE003F0
0FFFFFF0
07FFFFE0
07FFFFE0
03FFFFC0
01FFFF80
007FFE00
00000000
00000000
00000000
00000000
00000000
00000000
01FFFFC0
0FFFFFF0
1FFFFFF8
3FFFFFFC
7FFFFFFE
7FFFFFFE
7FFFFFFF
FFF007FF
FFC001FF
FF8000FF
FF8000FF
FF8000FF
FF8000FF
FF8000FF
FF8000FF
FF8000FF
FF8000FF
FFFFFFFF
FFFFFFFF
FFFFFFFF
FFFFFFFF
FFFFFFFF
FFFFFFFF
FFFFFFFF
FF800000
FF800000
FF800000
FF800000
FF800000
FF800000
FF800000
FF800000
FF800000
FF800000
FF800000
FF800000
FF800000
FF800000
FF800000
FFC00000
FFFFFFFF
7FFFFFFF
7FFFFFFF
7FFFFFFF
3FFFFFFF
1FFFFFFF
0FFFFFFF
01FFFFFF
ENDCHAR
STARTCHAR 0116
ENCODING 278
SWIDTH 479 0
DWIDTH 46 0
BBX 37 78 7 0
BITMAP
0001FE0000
0001FE0000
0001FE0000
0001FE0000
0001FE0000
0001FE0000
0001FE0000
0000000000
0000000000
0000000000
0000000000
FFFFFFFFE0
FFFFFFFFE0
FFFFFFFFE0
FFFFFFFFE0
FFFFFFFFE0
FFFFFFFFE0
FFFFFFFFE0
FFFFFFFFE0
FF80000000
FF80000000
FF80000000
FF80000000
FF80000000
FF80000000
FF80000000
FF80000000
FF80000000
FF80000000
FF80000000
FF80000000
FF80000000
FF80000000
FF80000000
FF80000000
FF80000000
FF80000000
FF80000000
FF80000000
FFFFFFFC00
FFFFFFFC00
FFFFFFFC00
FFFFFFFC00
FFFFFFFC00
FFFFFFFC00
FFFFFFFC00
FFFFFFFC00
FF80000000
FF80000000
FF80000000
FF80000000
FF80000000
FF80000000
FF80000000
FF80000000
FF80000000
FF80000000
FF80000000
FF80000000
FF80000000
FF80000000
FF80000000
FF80000000
FF80000000
FF80000000
FF80000000
FF80000000
FF80000000
FF80000000
FF80000000
FFFFFFFFF8
FFFFFFFFF8
FFFFFFFFF8
FFFFFFFFF8
FFFFFFFFF8
FFFFFFFFF8
FFFFFFFFF8
FFFFFFFFF8
ENDCHAR
STARTCHAR 0117
ENCODING 279
SWIDTH 458 0
DWIDTH 44 0
BBX 32 63 6 0
BITMAP
0003FE00
0003FE00
0003FE00
0003FE00
0003FE00
0003FE00
0003FE00
0003FE00
0003FE00
00000000
00000000
00000000
00000000
00000000
00000000
01FFFFC0
0FFFFFF0
1FFFFFF8
3FFFFFFC
7FFFFFFE
7FFFFFFE
7FFFFFFF
FFF007FF
FFC001FF
FF8000FF
FF8000FF
FF8000FF
FF8000FF
FF8000FF
FF8000FF
FF8000FF
FF8000FF
FFFFFFFF
FFFFFFFF
FFFFFFFF
FFFFFFFF
FFFFFFFF
FFFFFFFF
FFFFFFFF
FF800000
FF800000
FF800000
FF800000
FF800000
FF800000
FF800000
FF800000
FF800000
FF800000
FF800000
FF800000
FF800000
FF800000
FF800000
FFC00000
FFFFFFFF
7FFFFFFF
7FFFFFFF
7FFFFFFF
3FFFFFFF
1FFFFFFF
0FFFFFFF
01FFFFFF
ENDCHAR
STARTCHAR 0118
ENCODING 280
SWIDTH 479 0
DWIDTH 46 0
BBX 36 86 7 -19
BITMAP
FFFFFFFFE0
FFFFFFFFE0
FFFFFFFFE0
FFFFFFFFE0
FFFFFFFFE0
FFFFFFFFE0
FFFFFFFFE0
FFFFFFFFE0
FF80000000
FF80000000
FF80000000
FF80000000
FF80000000
FF80000000
FF80000000
FF80000000
FF80000000
FF80000000
FF80000000
FF80000000
FF80000000
FF80000000
FF80000000
FF80000000
FF80000000
FF80000000
FF80000000
FF80000000
FFFFFFFC00
FFFFFFFC00
FFFFFFFC00
FFFFFFFC00
FFFFFFFC00
FFFFFFFC00
FFFFFFFC00
FFFFFFFC00
FF80000000
FF80000000
FF80000000
FF80000000
FF80000000
FF80000000
FF80000000
FF80000000
FF80000000
FF80000000
FF80000000
FF80000000
FF80000000
FF80000000
FF80000000
FF80000000
FF80000000
FF80000000
FF80000000
FF80000000
FF80000000
FF80000000
FF80000000
FFFFFFFFF0
FFFFFFFFF0
FFFFFFFFF0
FFFFFFFFF0
FFFFFFFFF0
FFFFFFFFF0
FFFFFFFFF0
FFFFFFFFF0
FFFFFFFFF0
FFFFFFFFF0
0000001FC0
0000007E00
000003F800
000007E000
00001F8000
00003F0000
00007E0000
00007E0000
0000FE0000
0000FE0000
0000FF0000
0000FFC000
0000FFFFE0
00007FFFE0
00007FFFE0
00003FFFE0
00000FFFE0
ENDCHAR
STARTCHAR 0119
ENCODING 281
SWIDTH 458 0
DWIDTH 44 0
BBX 32 67 6 -19
BITMAP
01FFFFC0
0FFFFFF0
1FFFFFF8
3FFFFFFC
3FFFFFFE
7FFFFFFE
7FFFFFFF
FFF007FF
FFC001FF
FF8000FF
FF8000FF
FF8000FF
FF8000FF
FF8000FF
FF8000FF
FF8000FF
FF8000FF
FFFFFFFF
FFFFFFFF
FFFFFFFF
FFFFFFFF
FFFFFFFF
FFFFFFFF
FFFFFFFF
FF800000
FF800000
FF800000
FF800000
FF800000
FF800000
FF800000
FF800000
FF800000
FF800000
FF800000
FF800000
FF800000
FF800000
FF800000
FFC00000
FFFFFFFF
FFFFFFFF
FFFFFFFF
7FFFFFFF
7FFFFFFF
7FFFFFFF
3FFFFFFF
1FFFFFFF
0FFFFFFF
03FFFFFF
000003FC
00000FE0
00007F00
0001FC00
0007F000
000FC000
001F8000
003F8000
003F8000
003F8000
003FC000
003FF800
003FFFFF
003FFFFF
001FFFFF
000FFFFF
0003FFFF
ENDCHAR
STARTCHAR 011A
ENCODING 282
SWIDTH 479 0
DWIDTH 46 0
BBX 37 79 7 1
BITMAP
01FC007E00
00FE00FC00
007F01F800
003FC3F000
001FEFE000
000FFFE000
0007FFC000
0003FF8000
0001FF0000
0000000000
0000000000
0000000000
FFFFFFFFE0
FFFFFFFFE0
FFFFFFFFE0
FFFFFFFFE0
FFFFFFFFE0
FFFFFFFFE0
FFFFFFFFE0
FFFFFFFFE0
FF80000000
FF80000000
FF80000000
FF80000000
FF80000000
FF80000000
FF80000000
FF80000000
FF80000000
FF80000000
FF80000000
FF80000000
FF80000000
FF80000000
FF80000000
FF80000000
FF80000000
FF80000000
FF80000000
FF80000000
FFFFFFFF00
FFFFFFFF00
FFFFFFFF00
FFFFFFFF00
FFFFFFFF00
FFFFFFFF00
FFFFFFFF00
FFFFFFFF00
FF80000000
FF80000000
FF80000000
FF80000000
FF80000000
FF80000000
FF80000000
FF80000000
FF80000000
FF80000000
FF80000000
FF80000000
FF80000000
FF80000000
FF80000000
FF80000000
FF80000000
FF80000000
FF80000000
FF80000000
FF80000000
FF80000000
FF80000000
FFFFFFFFF8
FFFFFFFFF8
FFFFFFFFF8
FFFFFFFFF8
FFFFFFFFF8
FFFFFFFFF8
FFFFFFFFF8
FFFFFFFFF8
ENDCHAR
STARTCHAR 011B
ENCODING 283
SWIDTH 458 0
DWIDTH 44 0
BBX 32 67 6 1
BITMAP
07F001FC
07F001F8
03F803F8
01FC07F0
01FE0FE0
00FE0FE0
007F1FC0
007FBF80
003FFF80
001FFF00
000FFE00
000FFC00
0007FC00
0003F800
00000000
00000000
00000000
00000000
00000000
01FFFFC0
0FFFFFF0
1FFFFFF8
3FFFFFFC
7FFFFFFE
7FFFFFFE
7FFFFFFF
FFF003FF
FFC000FF
FF80007F
FF80007F
FF80007F
FF80007F
FF80007F
FF80007F
FF80007F
FF80007F
FFFFFFFF
FFFFFFFF
FFFFFFFF
FFFFFFFF
FFFFFFFF
FFFFFFFF
FFFFFFFF
FF800000
FF800000
FF800000
FF800000
FF800000
FF800000
FF800000
FF800000
FF800000
FF800000
FF800000
FF800000
FF800000
FF800000
FF800000
FFC00000
FFFFFFFF
7FFFFFFF
7FFFFFFF
7FFFFFFF
3FFFFFFF
1FFFFFFF
0FFFFFFF
01FFFFFF
ENDCHAR
STARTCHAR 011C
ENCODING 284
SWIDTH 552 0
DWIDTH 53 0
BBX 40 79 7 1
BITMAP
00007FC000
0000FFE000
0001FFF000
0003FFF800
0007F3F800
000FE1FC00
001FC0FE00
003F807F00
007E003F80
0000000000
0000000000
0000000000
01FFFFFFFF
07FFFFFFFF
1FFFFFFFFF
3FFFFFFFFF
3FFFFFFFFF
7FFFFFFFFF
7FFFFFFFFF
FFFFFFFFFF
FFF800000F
FFC0000000
FF80000000
FF80000000
FF80000000
FF80000000
FF80000000
FF80000000
FF80000000
FF80000000
FF80000000
FF80000000
FF80000000
FF80000000
FF80000000
FF80000000
FF80000000
FF80000000
FF80000000
FF80000000
FF801FFFFF
FF801FFFFF
FF801FFFFF
FF801FFFFF
FF801FFFFF
FF801FFFFF
FF801FFFFF
FF801FFFFF
FF800001FF
FF800001FF
FF800001FF
FF800001FF
FF800001FF
FF800001FF
FF800001FF
FF800001FF
FF800001FF
FF800001FF
FF800001FF
FF800001FF
FF800001FF
FF800001FF
FF800001FF
FF800001FF
FF800001FF
FF800001FF
FF800001FF
FF800001FF
FF800001FF
FFC00003FF
FFF0000FFF
FFFFFFFFFF
7FFFFFFFFE
7FFFFFFFFE
7FFFFFFFFE
3FFFFFFFFC
1FFFFFFFF8
0FFFFFFFF0
03FFFFFF80
ENDCHAR
STARTCHAR 011D
ENCODING 285
SWIDTH 468 0
DWIDTH 45 0
BBX 34 86 6 -18
BITMAP
0003FC0000
0003FE0000
0007FF0000
000FFF8000
000FFF8000
001FFFC000
003F9FE000
003F8FE000
007F07F000
00FE03F800
00FC03F800
01F801FC00
03F800FE00
07F0007F00
0000000000
0000000000
0000000000
0000000000
0000000000
01FFFFFFC0
0FFFFFFFC0
1FFFFFFFC0
3FFFFFFFC0
7FFFFFFFC0
7FFFFFFFC0
7FFFFFFFC0
FFFFFFFFC0
FFC0007FC0
FF80007FC0
FF80007FC0
FF80007FC0
FF80007FC0
FF80007FC0
FF80007FC0
FF80007FC0
FF80007FC0
FF80007FC0
FF80007FC0
FF80007FC0
FF80007FC0
FF80007FC0
FF80007FC0
FF80007FC0
FF80007FC0
FF80007FC0
FF80007FC0
FF80007FC0
FF80007FC0
FF80007FC0
FF80007FC0
FF80007FC0
FF80007FC0
FF80007FC0
FF80007FC0
FF80007FC0
FF80007FC0
FF80007FC0
FF80007FC0
FFC0007FC0
FFFFFFFFC0
7FFFFFFFC0
7FFFFFFFC0
7FFFFFFFC0
3FFFFFFFC0
1FFFFFFFC0
0FFFFFFFC0
01FFFFFFC0
0000007FC0
0000007FC0
0000007FC0
0000007FC0
0000007FC0
0000007FC0
0000007FC0
0000007FC0
0000007FC0
0000007FC0
000000FFC0
FFFFFFFFC0
FFFFFFFF80
FFFFFFFF80
FFFFFFFF80
FFFFFFFF00
FFFFFFFE00
FFFFFFF800
FFFFFFE000
ENDCHAR
STARTCHAR 011E
ENCODING 286
SWIDTH 552 0
DWIDTH 53 0
BBX 39 80 7 0
BITMAP
00FC003F00
00FC003F00
00FC003F00
00FC003F00
00FE007F00
00FFFFFF00
007FFFFE00
007FFFFE00
003FFFFC00
000FFFF000
0000000000
0000000000
0000000000
01FFFFFFFE
0FFFFFFFFE
1FFFFFFFFE
3FFFFFFFFE
7FFFFFFFFE
7FFFFFFFFE
7FFFFFFFFE
FFFFFFFFFE
FFF000001E
FFC0000000
FF80000000
FF80000000
FF80000000
FF80000000
FF80000000
FF80000000
FF80000000
FF80000000
FF80000000
FF80000000
FF80000000
FF80000000
FF80000000
FF80000000
FF80000000
FF80000000
FF80000000
FF80000000
FF801FFFFE
FF801FFFFE
FF801FFFFE
FF801FFFFE
FF801FFFFE
FF801FFFFE
FF801FFFFE
FF801FFFFE
FF800003FE
FF800003FE
FF800003FE
FF800003FE
FF800003FE
FF800003FE
FF800003FE
FF800003FE
FF800003FE
FF800003FE
FF800003FE
FF800003FE
FF800003FE
FF800003FE
FF800003FE
FF800003FE
FF800003FE
FF800003FE
FF800003FE
FF800003FE
FF800003FE
FFC00007FE
FFF0001FFE
FFFFFFFFFE
7FFFFFFFFC
7FFFFFFFFC
7FFFFFFFFC
3FFFFFFFF8
1FFFFFFFF0
0FFFFFFFE0
03FFFFFF80
ENDCHAR
STARTCHAR 011F
ENCODING 287
SWIDTH 468 0
DWIDTH 45 0
BBX 33 86 6 -18
BITMAP
0F8000F000
0F8000F000
0F8000F000
0F8000F000
0F8000F000
0FC001F000
0FE003F000
0FFFFFF000
07FFFFE000
07FFFFE000
03FFFFC000
01FFFF8000
007FFE0000
0000000000
0000000000
0000000000
0000000000
0000000000
0000000000
01FFFFFF80
0FFFFFFF80
1FFFFFFF80
3FFFFFFF80
7FFFFFFF80
7FFFFFFF80
7FFFFFFF80
FFFFFFFF80
FFC000FF80
FF8000FF80
FF8000FF80
FF8000FF80
FF8000FF80
FF8000FF80
FF8000FF80
FF8000FF80
FF8000FF80
FF8000FF80
FF8000FF80
FF8000FF80
FF8000FF80
FF8000FF80
FF8000FF80
FF8000FF80
FF8000FF80
FF8000FF80
FF8000FF80
FF8000FF80
FF8000FF80
FF8000FF80
FF8000FF80
FF8000FF80
FF8000FF80
FF8000FF80
FF8000FF80
FF8000FF80
FF8000FF80
FF8000FF80
FF8000FF80
FFC000FF80
FFFFFFFF80
FFFFFFFF80
7FFFFFFF80
7FFFFFFF80
3FFFFFFF80
1FFFFFFF80
0FFFFFFF80
03FFFFFF80
000000FF80
000000FF80
000000FF80
000000FF80
000000FF80
000000FF80
000000FF80
000000FF80
000000FF80
000000FF80
000001FF80
FFFFFFFF80
FFFFFFFF00
FFFFFFFF00
FFFFFFFF00
FFFFFFFE00
FFFFFFFC00
FFFFFFF800
FFFFFFC000
ENDCHAR
STARTCHAR 0120
ENCODING 288
SWIDTH 552 0
DWIDTH 53 0
BBX 39 78 7 0
BITMAP
0000FF0000
0000FF0000
0000FF0000
0000FF0000
0000FF0000
0000FF0000
0000FF0000
0000000000
0000000000
0000000000
0000000000
01FFFFFFFE
0FFFFFFFFE
1FFFFFFFFE
3FFFFFFFFE
7FFFFFFFFE
7FFFFFFFFE
7FFFFFFFFE
FFFFFFFFFE
FFF000001E
FFC0000000
FF80000000
FF80000000
FF80000000
FF80000000
FF80000000
FF80000000
FF80000000
FF80000000
FF80000000
FF80000000
FF80000000
FF80000000
FF80000000
FF80000000
FF80000000
FF80000000
FF80000000
FF80000000
FF803FFFFE
FF803FFFFE
FF803FFFFE
FF803FFFFE
FF803FFFFE
FF803FFFFE
FF803FFFFE
FF803FFFFE
FF800003FE
FF800003FE
FF800003FE
FF800003FE
FF800003FE
FF800003FE
FF800003FE
FF800003FE
FF800003FE
FF800003FE
FF800003FE
FF800003FE
FF800003FE
FF800003FE
FF800003FE
FF800003FE
FF800003FE
FF800003FE
FF800003FE
FF800003FE
FF800003FE
FFC00007FE
FFF0001FFE
FFFFFFFFFE
7FFFFFFFFC
7FFFFFFFFC
7FFFFFFFFC
3FFFFFFFF8
1FFFFFFFF0
0FFFFFFFE0
03FFFFFF80
ENDCHAR
STARTCHAR 0121
ENCODING 289
SWIDTH 468 0
DWIDTH 45 0
BBX 33 82 6 -19
BITMAP
000FF80000
000FF80000
000FF80000
000FF80000
000FF80000
000FF80000
000FF80000
000FF80000
000FF80000
0000000000
0000000000
0000000000
0000000000
0000000000
0000000000
01FFFFFF80
0FFFFFFF80
1FFFFFFF80
3FFFFFFF80
7FFFFFFF80
7FFFFFFF80
7FFFFFFF80
FFFFFFFF80
FFC000FF80
FF8000FF80
FF8000FF80
FF8000FF80
FF8000FF80
FF8000FF80
FF8000FF80
FF8000FF80
FF8000FF80
FF8000FF80
FF8000FF80
FF8000FF80
FF8000FF80
FF8000FF80
FF8000FF80
FF8000FF80
FF8000FF80
FF8000FF80
FF8000FF80
FF8000FF80
FF8000FF80
FF8000FF80
FF8000FF80
FF8000FF80
FF8000FF80
FF8000FF80
FF8000FF80
FF8000FF80
FF8000FF80
FF8000FF80
FF8000FF80
FFC000FF80
FFFFFFFF80
7FFFFFFF80
7FFFFFFF80
7FFFFFFF80
3FFFFFFF80
1FFFFFFF80
0FFFFFFF80
03FFFFFF80
000000FF80
000000FF80
000000FF80
000000FF80
000000FF80
000000FF80
000000FF80
000000FF80
000000FF80
000000FF80
000001FF80
FFFFFFFF80
FFFFFFFF00
FFFFFFFF00
FFFFFFFF00
FFFFFFFE00
FFFFFFFC00
FFFFFFF800
FFFFFFC000
ENDCHAR
STARTCHAR 0122
ENCODING 290
SWIDTH 552 0
DWIDTH 53 0
BBX 39 89 7 -22
BITMAP
01FFFFFFFE
0FFFFFFFFE
1FFFFFFFFE
3FFFFFFFFE
7FFFFFFFFE
7FFFFFFFFE
7FFFFFFFFE
FFFFFFFFFE
FFF000001E
FFC0000000
FF80000000
FF80000000
FF80000000
FF80000000
FF80000000
FF80000000
FF80000000
FF80000000
FF80000000
FF80000000
FF80000000
FF80000000
FF80000000
FF80000000
FF80000000
FF80000000
FF80000000
FF80000000
FF801FFFFE
FF801FFFFE
FF801FFFFE
FF801FFFFE
FF801FFFFE
FF801FFFFE
FF801FFFFE
FF801FFFFE
FF800003FE
FF800003FE
FF800003FE
FF800003FE
FF800003FE
FF800003FE
FF800003FE
FF800003FE
FF800003FE
FF800003FE
FF800003FE
FF800003FE
FF800003FE
FF800003FE
FF800003FE
FF800003FE
FF800003FE
FF800003FE
FF800003FE
FF800003FE
FF800003FE
FFC00007FE
FFF0001FFE
FFFFFFFFFE
7FFFFFFFFC
7FFFFFFFFC
7FFFFFFFFC
3FFFFFFFF8
1FFFFFFFF0
0FFFFFFFE0
03FFFFFF80
0000000000
0000000000
0000000000
0000000000
0000000000
00001FE000
00001FE000
00001FE000
00001FE000
00001FE000
00001FE000
00001FE000
00001FE000
00003FC000
00003FC000
00007F8000
00007F0000
00007F0000
0000FE0000
0000FE0000
0001FC0000
0001FC0000
ENDCHAR
STARTCHAR 0123
ENCODING 291
SWIDTH 468 0
DWIDTH 45 0
BBX 33 92 6 -22
BITMAP
00000F8000
00000F8000
00001F8000
00001F8000
00003F0000
00003F0000
00003F0000
00007F0000
00007F0000
0000FF0000
0000FF0000
0000FF0000
0000FF0000
0000FF0000
0000FF0000
0000FF0000
0000FF0000
0000000000
0000000000
0000000000
0000000000
0000000000
01FFFFFF80
0FFFFFFF80
1FFFFFFF80
3FFFFFFF80
7FFFFFFF80
7FFFFFFF80
7FFFFFFF80
FFFFFFFF80
FFC000FF80
FF8000FF80
FF8000FF80
FF8000FF80
FF8000FF80
FF8000FF80
FF8000FF80
FF8000FF80
FF8000FF80
FF8000FF80
FF8000FF80
FF8000FF80
FF8000FF80
FF8000FF80
FF8000FF80
FF8000FF80
FF8000FF80
FF8000FF80
FF8000FF80
FF8000FF80
FF8000FF80
FF8000FF80
FF8000FF80
FF8000FF80
FF8000FF80
FF8000FF80
FF8000FF80
FF8000FF80
FF8000FF80
FF8000FF80
FF8000FF80
FFC000FF80
FFFFFFFF80
7FFFFFFF80
7FFFFFFF80
7FFFFFFF80
3FFFFFFF80
1FFFFFFF80
07FFFFFF80
01FFFFFF80
000000FF80
000000FF80
000000FF80
000000FF80
000000FF80
000000FF80
000000FF80
000000FF80
000000FF80
000000FF80
000001FF80
FFFFFFFF80
FFFFFFFF80
FFFFFFFF80
FFFFFFFF80
FFFFFFFF00
FFFFFFFF00
FFFFFFFE00
FFFFFFFE00
FFFFFFFC00
FFFFFFF000
FFFFFFC000
ENDCHAR
STARTCHAR 0124
ENCODING 292
SWIDTH 552 0
DWIDTH 53 0
BBX 40 80 7 0
BITMAP
0000FF0000
0001FF8000
0003FFC000
0007FFE000
0007FFE000
000FE7F000
001FC3F800
003F81FC00
007E00FE00
00FC007F00
0000000000
0000000000
0000000000
FF800001FF
FF800001FF
FF800001FF
FF800001FF
FF800001FF
FF800001FF
FF800001FF
FF800001FF
FF800001FF
FF800001FF
FF800001FF
FF800001FF
FF800001FF
FF800001FF
FF800001FF
FF800001FF
FF800001FF
FF800001FF
FF800001FF
FF800001FF
FF800001FF
FF800001FF
FF800001FF
FF800001FF
FF800001FF
FF800001FF
FF800001FF
FF800001FF
FFFFFFFFFF
FFFFFFFFFF
FFFFFFFFFF
FFFFFFFFFF
FFFFFFFFFF
FFFFFFFFFF
FFFFFFFFFF
FFFFFFFFFF
FF800001FF
FF800001FF
FF800001FF
FF800001FF
FF800001FF
FF800001FF
FF800001FF
FF800001FF
FF800001FF
FF800001FF
FF800001FF
FF800001FF
FF800001FF
FF800001FF
FF800001FF
FF800001FF
FF800001FF
FF800001FF
FF800001FF
FF800001FF
FF800001FF
FF800001FF
FF800001FF
FF800001FF
FF800001FF
FF800001FF
FF800001FF
FF800001FF
FF800001FF
FF800001FF
FF800001FF
ENDCHAR
STARTCHAR 0125
ENCODING 293
SWIDTH 468 0
DWIDTH 45 0
BBX 36 80 3 0
BITMAP
007F000000
00FF800000
01FFC00000
03FFE00000
07FFF00000
0FE7F80000
1FC3FC0000
3F81FC0000
7F007E0000
FE003F0000
0000000000
0000000000
0000000000
1FF0000000
1FF0000000
1FF0000000
1FF0000000
1FF0000000
1FF0000000
1FF0000000
1FF0000000
1FF0000000
1FF0000000
1FF0000000
1FF0000000
1FF0000000
1FF0000000
1FF0000000
1FF0000000
1FF0000000
1FF0000000
1FF0000000
1FFFFFF800
1FFFFFFF00
1FFFFFFF80
1FFFFFFFC0
1FFFFFFFE0
1FFFFFFFE0
1FFFFFFFE0
1FFFFFFFF0
1FF0003FF0
1FF0001FF0
1FF0001FF0
1FF0001FF0
1FF0001FF0
1FF0001FF0
1FF0001FF0
1FF0001FF0
1FF0001FF0
1FF0001FF0
1FF0001FF0
1FF0001FF0
1FF0001FF0
1FF0001FF0
1FF0001FF0
1FF0001FF0
1FF0001FF0
1FF0001FF0
1FF0001FF0
1FF0001FF0
1FF0001FF0
1FF0001FF0
1FF0001FF0
1FF0001FF0
1FF0001FF0
1FF0001FF0
1FF0001FF0
1FF0001FF0
1FF0001FF0
1FF0001FF0
1FF0001FF0
1FF0001FF0
1FF0001FF0
1FF0001FF0
1FF0001FF0
1FF0001FF0
1FF0001FF0
1FF0001FF0
1FF0001FF0
1FF0001FF0
ENDCHAR
STARTCHAR 0126
ENCODING 294
SWIDTH 552 0
DWIDTH 53 0
BBX 49 67 2 0
BITMAP
07FC00001FF000
07FC00001FF000
07FC00001FF000
07FC00001FF000
07FC00001FF000
FFFFFFFFFFFF80
FFFFFFFFFFFF80
FFFFFFFFFFFF80
FFFFFFFFFFFF80
FFFFFFFFFFFF80
FFFFFFFFFFFF80
07FC00001FF000
07FC00001FF000
07FC00001FF000
07FC00001FF000
07FC00001FF000
07FC00001FF000
07FC00001FF000
07FC00001FF000
07FC00001FF000
07FC00001FF000
07FC00001FF000
07FC00001FF000
07FC00001FF000
07FC00001FF000
07FC00001FF000
07FC00001FF000
07FC00001FF000
07FFFFFFFFF000
07FFFFFFFFF000
07FFFFFFFFF000
07FFFFFFFFF000
07FFFFFFFFF000
07FFFFFFFFF000
07FFFFFFFFF000
07FFFFFFFFF000
07FC00001FF000
07FC00001FF000
07FC00001FF000
07FC00001FF000
07FC00001FF000
07FC00001FF000
07FC00001FF000
07FC00001FF000
07FC00001FF000
07FC00001FF000
07FC00001FF000
07FC00001FF000
07FC00001FF000
07FC00001FF000
07FC00001FF000
07FC00001FF000
07FC00001FF000
07FC00001FF000
07FC00001FF000
07FC00001FF000
07FC00001FF000
07FC00001FF000
07FC00001FF000
07FC00001FF000
07FC00001FF000
07FC00001FF000
07FC00001FF000
07FC00001FF000
07FC00001FF000
07FC00001FF000
07FC00001FF000
ENDCHAR
STARTCHAR 0127
ENCODING 295
SWIDTH 468 0
DWIDTH 45 0
BBX 37 67 2 0
BITMAP
0FF8000000
0FF8000000
0FF8000000
0FF8000000
0FF8000000
FFFFF80000
FFFFF80000
FFFFF80000
FFFFF80000
FFFFF80000
FFFFF80000
0FF8000000
0FF8000000
0FF8000000
0FF8000000
0FF8000000
0FF8000000
0FF8000000
0FF8000000
0FFFFFFC00
0FFFFFFF80
0FFFFFFFC0
0FFFFFFFE0
0FFFFFFFF0
0FFFFFFFF0
0FFFFFFFF0
0FFFFFFFF8
0FF8001FF8
0FF8000FF8
0FF8000FF8
0FF8000FF8
0FF8000FF8
0FF8000FF8
0FF8000FF8
0FF8000FF8
0FF8000FF8
0FF8000FF8
0FF8000FF8
0FF8000FF8
0FF8000FF8
0FF8000FF8
0FF8000FF8
0FF8000FF8
0FF8000FF8
0FF8000FF8
0FF8000FF8
0FF8000FF8
0FF8000FF8
0FF8000FF8
0FF8000FF8
0FF8000FF8
0FF8000FF8
0FF8000FF8
0FF8000FF8
0FF8000FF8
0FF8000FF8
0FF8000FF8
0FF8000FF8
0FF8000FF8
0FF8000FF8
0FF8000FF8
0FF8000FF8
0FF8000FF8
0FF8000FF8
0FF8000FF8
0FF8000FF8
0FF8000FF8
ENDCHAR
STARTCHAR 0128
ENCODING 296
SWIDTH 239 0
DWIDTH 23 0
BBX 29 80 -3 0
BITMAP
07E000F8
1FF800F8
3FFE00F8
7FFF80F8
7FFFE1F8
FC1FFFF8
FC07FFF0
F803FFF0
F800FFE0
F8003F80
00000000
00000000
003FE000
003FE000
003FE000
003FE000
003FE000
003FE000
003FE000
003FE000
003FE000
003FE000
003FE000
003FE000
003FE000
003FE000
003FE000
003FE000
003FE000
003FE000
003FE000
003FE000
003FE000
003FE000
003FE000
003FE000
003FE000
003FE000
003FE000
003FE000
003FE000
003FE000
003FE000
003FE000
003FE000
003FE000
003FE000
003FE000
003FE000
003FE000
003FE000
003FE000
003FE000
003FE000
003FE000
003FE000
003FE000
003FE000
003FE000
003FE000
003FE000
003FE000
003FE000
003FE000
003FE000
003FE000
003FE000
003FE000
003FE000
003FE000
003FE000
003FE000
003FE000
003FE000
003FE000
003FE000
003FE000
003FE000
003FE000
003FE000
ENDCHAR
STARTCHAR 0129
ENCODING 297
SWIDTH 218 0
DWIDTH 21 0
BBX 29 67 -4 0
BITMAP
07C000F8
1FF000F8
3FFC00F8
3FFE00F8
7FFF00F8
7FFF81F8
7FFFE1F8
FC1FFFF8
FC0FFFF0
F807FFF0
F803FFF0
F800FFE0
F8007FC0
F8001F00
00000000
00000000
00000000
00000000
00000000
003FE000
003FE000
003FE000
003FE000
003FE000
003FE000
003FE000
003FE000
003FE000
003FE000
003FE000
003FE000
003FE000
003FE000
003FE000
003FE000
003FE000
003FE000
003FE000
003FE000
003FE000
003FE000
003FE000
003FE000
003FE000
003FE000
003FE000
003FE000
003FE000
003FE000
003FE000
003FE000
003FE000
003FE000
003FE000
003FE000
003FE000
003FE000
003FE000
003FE000
003FE000
003FE000
003FE000
003FE000
003FE000
003FE000
003FE000
003FE000
ENDCHAR
STARTCHAR 012A
ENCODING 298
SWIDTH 239 0
DWIDTH 23 0
BBX 21 78 1 0
BITMAP
FFFFF8
FFFFF8
FFFFF8
FFFFF8
FFFFF8
FFFFF8
000000
000000
000000
000000
000000
03FE00
03FE00
03FE00
03FE00
03FE00
03FE00
03FE00
03FE00
03FE00
03FE00
03FE00
03FE00
03FE00
03FE00
03FE00
03FE00
03FE00
03FE00
03FE00
03FE00
03FE00
03FE00
03FE00
03FE00
03FE00
03FE00
03FE00
03FE00
03FE00
03FE00
03FE00
03FE00
03FE00
03FE00
03FE00
03FE00
03FE00
03FE00
03FE00
03FE00
03FE00
03FE00
03FE00
03FE00
03FE00
03FE00
03FE00
03FE00
03FE00
03FE00
03FE00
03FE00
03FE00
03FE00
03FE00
03FE00
03FE00
03FE00
03FE00
03FE00
03FE00
03FE00
03FE00
03FE00
03FE00
03FE00
03FE00
ENDCHAR
STARTCHAR 012B
ENCODING 299
SWIDTH 218 0
DWIDTH 21 0
BBX 21 62 0 0
BITMAP
FFFFF8
FFFFF8
FFFFF8
FFFFF8
FFFFF8
FFFFF8
000000
000000
000000
000000
000000
000000
000000
000000
03FE00
03FE00
03FE00
03FE00
03FE00
03FE00
03FE00
03FE00
03FE00
03FE00
03FE00
03FE00
03FE00
03FE00
03FE00
03FE00
03FE00
03FE00
03FE00
03FE00
03FE00
03FE00
03FE00
03FE00
03FE00
03FE00
03FE00
03FE00
03FE00
03FE00
03FE00
03FE00
03FE00
03FE00
03FE00
03FE00
03FE00
03FE00
03FE00
03FE00
03FE00
03FE00
03FE00
03FE00
03FE00
03FE00
03FE00
03FE00
ENDCHAR
STARTCHAR 012C
ENCODING 300
SWIDTH 239 0
DWIDTH 23 0
BBX 24 80 -1 0
BITMAP
FC003F
FC003F
FC003F
FC003F
FE007F
FFFFFF
7FFFFE
7FFFFE
3FFFFC
0FFFF0
000000
000000
000000
00FF80
00FF80
00FF80
00FF80
00FF80
00FF80
00FF80
00FF80
00FF80
00FF80
00FF80
00FF80
00FF80
00FF80
00FF80
00FF80
00FF80
00FF80
00FF80
00FF80
00FF80
00FF80
00FF80
00FF80
00FF80
00FF80
00FF80
00FF80
00FF80
00FF80
00FF80
00FF80
00FF80
00FF80
00FF80
00FF80
00FF80
00FF80
00FF80
00FF80
00FF80
00FF80
00FF80
00FF80
00FF80
00FF80
00FF80
00FF80
00FF80
00FF80
00FF80
00FF80
00FF80
00FF80
00FF80
00FF80
00FF80
00FF80
00FF80
00FF80
00FF80
00FF80
00FF80
00FF80
00FF80
00FF80
00FF80
ENDCHAR
STARTCHAR 012D
ENCODING 301
SWIDTH 218 0
DWIDTH 21 0
BBX 24 67 -2 1
BITMAP
FC003F
FC003F
FC003F
FC003F
FC003F
FE007F
FF007F
FFFFFF
7FFFFE
7FFFFE
3FFFFC
1FFFF8
07FFE0
000000
000000
000000
000000
000000
000000
00FF80
00FF80
00FF80
00FF80
00FF80
00FF80
00FF80
00FF80
00FF80
00FF80
00FF80
00FF80
00FF80
00FF80
00FF80
00FF80
00FF80
00FF80
00FF80
00FF80
00FF80
00FF80
00FF80
00FF80
00FF80
00FF80
00FF80
00FF80
00FF80
00FF80
00FF80
00FF80
00FF80
00FF80
00FF80
00FF80
00FF80
00FF80
00FF80
00FF80
00FF80
00FF80
00FF80
00FF80
00FF80
00FF80
00FF80
00FF80
ENDCHAR
STARTCHAR 012E
ENCODING 302
SWIDTH 239 0
DWIDTH 23 0
BBX 17 84 -1 -18
BITMAP
00FF80
00FF80
00FF80
00FF80
00FF80
00FF80
00FF80
00FF80
00FF80
00FF80
00FF80
00FF80
00FF80
00FF80
00FF80
00FF80
00FF80
00FF80
00FF80
00FF80
00FF80
00FF80
00FF80
00FF80
00FF80
00FF80
00FF80
00FF80
00FF80
00FF80
00FF80
00FF80
00FF80
00FF80
00FF80
00FF80
00FF80
00FF80
00FF80
00FF80
00FF80
00FF80
00FF80
00FF80
00FF80
00FF80
00FF80
00FF80
00FF80
00FF80
00FF80
00FF80
00FF80
00FF80
00FF80
00FF80
00FF80
00FF80
00FF80
00FF80
00FF80
00FF80
00FF80
00FF80
00FF80
00FF80
00FF80
01FE00
03F800
0FE000
1FC000
3F8000
7F0000
7E0000
FE0000
FE0000
FE0000
FF0000
FFC000
FFFF80
FFFF80
7FFF80
3FFF80
1FFF80
ENDCHAR
STARTCHAR 012F
ENCODING 303
SWIDTH 218 0
DWIDTH 21 0
BBX 18 82 1 -19
BITMAP
07FC00
07FC00
07FC00
07FC00
07FC00
07FC00
07FC00
07FC00
07FC00
000000
000000
000000
000000
000000
000000
07FC00
07FC00
07FC00
07FC00
07FC00
07FC00
07FC00
07FC00
07FC00
07FC00
07FC00
07FC00
07FC00
07FC00
07FC00
07FC00
07FC00
07FC00
07FC00
07FC00
07FC00
07FC00
07FC00
07FC00
07FC00
07FC00
07FC00
07FC00
07FC00
07FC00
07FC00
07FC00
07FC00
07FC00
07FC00
07FC00
07FC00
07FC00
07FC00
07FC00
07FC00
07FC00
07FC00
07FC00
07FC00
07FC00
07FC00
07FC00
07FC00
07FC00
07F000
0FC000
1F8000
3F0000
7C0000
7C0000
F80000
F80000
F80000
F80000
FC0000
FF8000
FFFFC0
FFFFC0
7FFFC0
7FFFC0
1FFFC0
ENDCHAR
STARTCHAR 0130
ENCODING 304
SWIDTH 239 0
DWIDTH 23 0
BBX 8 78 8 0
BITMAP
FF
FF
FF
FF
FF
FF
FF
00
00
00
00
FF
FF
FF
FF
FF
FF
FF
FF
FF
FF
FF
FF
FF
FF
FF
FF
FF
FF
FF
FF
FF
FF
FF
FF
FF
FF
FF
FF
FF
FF
FF
FF
FF
FF
FF
FF
FF
FF
FF
FF
FF
FF
FF
FF
FF
FF
FF
FF
FF
FF
FF
FF
FF
FF
FF
FF
FF
FF
FF
FF
FF
FF
FF
FF
FF
FF
FF
ENDCHAR
STARTCHAR 0131
ENCODING 305
SWIDTH 218 0
DWIDTH 21 0
BBX 9 48 6 0
BITMAP
FF80
FF80
FF80
FF80
FF80
FF80
FF80
FF80
FF80
FF80
FF80
FF80
FF80
FF80
FF80
FF80
FF80
FF80
FF80
FF80
FF80
FF80
FF80
FF80
FF80
FF80
FF80
FF80
FF80
FF80
FF80
FF80
FF80
FF80
FF80
FF80
FF80
FF80
FF80
FF80
FF80
FF80
FF80
FF80
FF80
FF80
FF80
FF80
ENDCHAR
STARTCHAR 0132
ENCODING 306
SWIDTH 510 0
DWIDTH 49 0
BBX 36 67 7 1
BITMAP
FF80003FF0
FF80003FF0
FF80003FF0
FF80003FF0
FF80003FF0
FF80003FF0
FF80003FF0
FF80003FF0
FF80003FF0
FF80003FF0
FF80003FF0
FF80003FF0
FF80003FF0
FF80003FF0
FF80003FF0
FF80003FF0
FF80003FF0
FF80003FF0
FF80003FF0
FF80003FF0
FF80003FF0
FF80003FF0
FF80003FF0
FF80003FF0
FF80003FF0
FF80003FF0
FF80003FF0
FF80003FF0
FF80003FF0
FF80003FF0
FF80003FF0
FF80003FF0
FF80003FF0
FF80003FF0
FF80003FF0
FF80003FF0
FF80003FF0
FF80003FF0
FF80003FF0
FF80003FF0
FF80003FF0
FF80003FF0
FF80003FF0
FF80003FF0
FF80003FF0
FF80003FF0
FF80003FF0
FF80003FF0
FF80003FF0
FF80003FF0
FF80003FF0
FF80003FF0
FF80003FF0
FF80003FF0
FF80003FF0
FF80003FF0
FF80003FF0
FF80007FF0
FF8C01FFE0
FF8FFFFFE0
FF8FFFFFE0
FF8FFFFFE0
FF8FFFFFC0
FF8FFFFFC0
FF8FFFFF80
FF8FFFFE00
FF8FFFF800
ENDCHAR
STARTCHAR 0133
ENCODING 307
SWIDTH 427 0
DWIDTH 41 0
BBX 29 82 6 -20
BITMAP
FF800FF8
FF800FF8
FF800FF8
FF800FF8
FF800FF8
FF800FF8
FF800FF8
FF800FF8
FF800FF8
00000000
00000000
00000000
00000000
00000000
00000000
FF800FF8
FF800FF8
FF800FF8
FF800FF8
FF800FF8
FF800FF8
FF800FF8
FF800FF8
FF800FF8
FF800FF8
FF800FF8
FF800FF8
FF800FF8
FF800FF8
FF800FF8
FF800FF8
FF800FF8
FF800FF8
FF800FF8
FF800FF8
FF800FF8
FF800FF8
FF800FF8
FF800FF8
FF800FF8
FF800FF8
FF800FF8
FF800FF8
FF800FF8
FF800FF8
FF800FF8
FF800FF8
FF800FF8
FF800FF8
FF800FF8
FF800FF8
FF800FF8
FF800FF8
FF800FF8
FF800FF8
FF800FF8
FF800FF8
FF800FF8
FF800FF8
FF800FF8
FF800FF8
FF800FF8
FF800FF8
00000FF8
00000FF8
00000FF8
00000FF8
00000FF8
00000FF8
00000FF8
00000FF8
00000FF8
00001FF0
00001FF0
00001FF0
00001FF0
00001FF0
00003FE0
00003FE0
00003FE0
00007FE0
00007FC0
ENDCHAR
STARTCHAR 0134
ENCODING 308
SWIDTH 333 0
DWIDTH 32 0
BBX 32 80 0 0
BITMAP
0000FF00
0001FF00
0003FF80
0007FFC0
000FFFE0
001FE7F0
003FC3F8
007F81FC
00FE00FE
01FC007F
00000000
00000000
00000000
0000FF80
0000FF80
0000FF80
0000FF80
0000FF80
0000FF80
0000FF80
0000FF80
0000FF80
0000FF80
0000FF80
0000FF80
0000FF80
0000FF80
0000FF80
0000FF80
0000FF80
0000FF80
0000FF80
0000FF80
0000FF80
0000FF80
0000FF80
0000FF80
0000FF80
0000FF80
0000FF80
0000FF80
0000FF80
0000FF80
0000FF80
0000FF80
0000FF80
0000FF80
0000FF80
0000FF80
0000FF80
0000FF80
0000FF80
0000FF80
0000FF80
0000FF80
0000FF80
0000FF80
0000FF80
0000FF80
0000FF80
0000FF80
0000FF80
0000FF80
0000FF80
0000FF80
0000FF80
0000FF80
0000FF80
0000FF80
0000FF80
0001FF80
E00FFF80
FFFFFF80
FFFFFF00
FFFFFF00
FFFFFF00
FFFFFE00
FFFFFC00
FFFFF800
FFFFC000
ENDCHAR
STARTCHAR 0135
ENCODING 309
SWIDTH 218 0
DWIDTH 21 0
BBX 25 85 -2 -19
BITMAP
007F0000
00FF8000
00FFC000
01FFE000
03FFE000
07FFF000
07F7F800
0FE3FC00
1FC1FC00
1F80FE00
3F807F00
7F003F80
FE003F80
00000000
00000000
00000000
00000000
00000000
00FF8000
00FF8000
00FF8000
00FF8000
00FF8000
00FF8000
00FF8000
00FF8000
00FF8000
00FF8000
00FF8000
00FF8000
00FF8000
00FF8000
00FF8000
00FF8000
00FF8000
00FF8000
00FF8000
00FF8000
00FF8000
00FF8000
00FF8000
00FF8000
00FF8000
00FF8000
00FF8000
00FF8000
00FF8000
00FF8000
00FF8000
00FF8000
00FF8000
00FF8000
00FF8000
00FF8000
00FF8000
00FF8000
00FF8000
00FF8000
00FF8000
00FF8000
00FF8000
00FF8000
00FF8000
00FF8000
00FF8000
00FF8000
00FF8000
00FF8000
00FF8000
00FF8000
00FF8000
00FF8000
00FF8000
00FF8000
01FF0000
01FF0000
01FF0000
01FF0000
01FF0000
01FF0000
03FE0000
03FE0000
03FE0000
07FE0000
07FC0000
ENDCHAR
STARTCHAR 0136
ENCODING 310
SWIDTH 541 0
DWIDTH 52 0
BBX 45 89 7 -21
BITMAP
FF8000007FE0
FF8000007FE0
FF800000FFE0
FF800000FFC0
FF800001FFC0
FF800001FF80
FF800003FF80
FF800003FF00
FF800007FF00
FF800007FF00
FF80000FFE00
FF80000FFE00
FF80000FFC00
FF80001FFC00
FF80001FF800
FF80003FF800
FF80003FF800
FF80007FF000
FF80007FF000
FF8000FFE000
FF8000FFE000
FF8001FFC000
FF8001FFC000
FF8001FFC000
FF8003FF8000
FF8003FF8000
FF8007FF0000
FF801FFF0000
FFFFFFFE0000
FFFFFFFC0000
FFFFFFF80000
FFFFFFF00000
FFFFFFF80000
FFFFFFFC0000
FFFFFFFE0000
FFFFFFFF0000
FF801FFF0000
FF8007FF8000
FF8003FF8000
FF8003FF8000
FF8003FFC000
FF8001FFC000
FF8001FFE000
FF8000FFE000
FF8000FFF000
FF80007FF000
FF80007FF000
FF80003FF800
FF80003FF800
FF80003FFC00
FF80001FFC00
FF80001FFC00
FF80000FFE00
FF80000FFE00
FF800007FF00
FF800007FF00
FF800003FF80
FF800003FF80
FF800003FF80
FF800001FFC0
FF800001FFC0
FF800000FFE0
FF800000FFE0
FF8000007FF0
FF8000007FF0
FF8000003FF0
FF8000003FF8
000000000000
000000000000
000000000000
000000000000
000000000000
00001FE00000
00001FE00000
00001FE00000
00001FE00000
00001FE00000
00001FE00000
00001FE00000
00001FE00000
00003FC00000
00003FC00000
00007F800000
00007F800000
00007F800000
0000FF000000
0000FF000000
0001FE000000
0001FE000000
ENDCHAR
STARTCHAR 0137
ENCODING 311
SWIDTH 447 0
DWIDTH 43 0
BBX 35 89 6 -21
BITMAP
FF80000000
FF80000000
FF80000000
FF80000000
FF80000000
FF80000000
FF80000000
FF80000000
FF80000000
FF80000000
FF80000000
FF80000000
FF80000000
FF80000000
FF80000000
FF80000000
FF80000000
FF80000000
FF80000000
FF80007FC0
FF8000FFC0
FF8000FF80
FF8001FF80
FF8001FF00
FF8001FF00
FF8003FE00
FF8003FE00
FF8007FC00
FF8007FC00
FF800FFC00
FF800FF800
FF800FF800
FF801FF000
FF801FF000
FF803FE000
FF803FE000
FF807FE000
FFFFFFC000
FFFFFF8000
FFFFFF0000
FFFFFF0000
FFFFFF8000
FFFFFFC000
FFFFFFC000
FF807FE000
FF803FE000
FF803FE000
FF801FF000
FF801FF000
FF801FF800
FF800FF800
FF800FF800
FF800FFC00
FF8007FC00
FF8007FE00
FF8007FE00
FF8003FE00
FF8003FF00
FF8003FF00
FF8001FF00
FF8001FF80
FF8001FF80
FF8000FFC0
FF8000FFC0
FF8000FFC0
FF80007FE0
FF80007FE0
0000000000
0000000000
0000000000
0000000000
0000000000
0001FE0000
0001FE0000
0001FE0000
0001FE0000
0001FE0000
0001FE0000
0001FE0000
0001FE0000
0003FC0000
0003FC0000
0007F80000
0007F80000
000FF80000
000FF00000
000FF00000
001FE00000
001FE00000
ENDCHAR
STARTCHAR 0139
ENCODING 313
SWIDTH 447 0
DWIDTH 43 0
BBX 36 80 7 0
BITMAP
0003FC0000
000FF00000
001FE00000
003FC00000
007F800000
00FE000000
01FC000000
03F8000000
07F0000000
0FE0000000
0000000000
0000000000
0000000000
FF80000000
FF80000000
FF80000000
FF80000000
FF80000000
FF80000000
FF80000000
FF80000000
FF80000000
FF80000000
FF80000000
FF80000000
FF80000000
FF80000000
FF80000000
FF80000000
FF80000000
FF80000000
FF80000000
FF80000000
FF80000000
FF80000000
FF80000000
FF80000000
FF80000000
FF80000000
FF80000000
FF80000000
FF80000000
FF80000000
FF80000000
FF80000000
FF80000000
FF80000000
FF80000000
FF80000000
FF80000000
FF80000000
FF80000000
FF80000000
FF80000000
FF80000000
FF80000000
FF80000000
FF80000000
FF80000000
FF80000000
FF80000000
FF80000000
FF80000000
FF80000000
FF80000000
FF80000000
FF80000000
FF80000000
FF80000000
FF80000000
FF80000000
FF80000000
FFFFFFFFF0
FFFFFFFFF0
FFFFFFFFF0
FFFFFFFFF0
FFFFFFFFF0
FFFFFFFFF0
FFFFFFFFF0
FFFFFFFFF0
ENDCHAR
STARTCHAR 013A
ENCODING 314
SWIDTH 218 0
DWIDTH 21 0
BBX 18 80 6 0
BITMAP
003FC0
007F80
00FF00
01FE00
03F800
07F000
0FE000
1FC000
3F0000
7E0000
000000
000000
000000
FF8000
FF8000
FF8000
FF8000
FF8000
FF8000
FF8000
FF8000
FF8000
FF8000
FF8000
FF8000
FF8000
FF8000
FF8000
FF8000
FF8000
FF8000
FF8000
FF8000
FF8000
FF8000
FF8000
FF8000
FF8000
FF8000
FF8000
FF8000
FF8000
FF8000
FF8000
FF8000
FF8000
FF8000
FF8000
FF8000
FF8000
FF8000
FF8000
FF8000
FF8000
FF8000
FF8000
FF8000
FF8000
FF8000
FF8000
FF8000
FF8000
FF8000
FF8000
FF8000
FF8000
FF8000
FF8000
FF8000
FF8000
FF8000
FF8000
FF8000
FF8000
FF8000
FF8000
FF8000
FF8000
FF8000
FF8000
ENDCHAR
STARTCHAR 013B
ENCODING 315
SWIDTH 447 0
DWIDTH 43 0
BBX 36 89 7 -21
BITMAP
FF80000000
FF80000000
FF80000000
FF80000000
FF80000000
FF80000000
FF80000000
FF80000000
FF80000000
FF80000000
FF80000000
FF80000000
FF80000000
FF80000000
FF80000000
FF80000000
FF80000000
FF80000000
FF80000000
FF80000000
FF80000000
FF80000000
FF80000000
FF80000000
FF80000000
FF80000000
FF80000000
FF80000000
FF80000000
FF80000000
FF80000000
FF80000000
FF80000000
FF80000000
FF80000000
FF80000000
FF80000000
FF80000000
FF80000000
FF80000000
FF80000000
FF80000000
FF80000000
FF80000000
FF80000000
FF80000000
FF80000000
FF80000000
FF80000000
FF80000000
FF80000000
FF80000000
FF80000000
FF80000000
FF80000000
FF80000000
FF80000000
FF80000000
FF80000000
FFFFFFFFF0
FFFFFFFFF0
FFFFFFFFF0
FFFFFFFFF0
FFFFFFFFF0
FFFFFFFFF0
FFFFFFFFF0
FFFFFFFFF0
0000000000
0000000000
0000000000
0000000000
0000000000
0001FE0000
0001FE0000
0001FE0000
0001FE0000
0001FE0000
0001FE0000
0001FE0000
0001FE0000
0003FC0000
0003FC0000
0003F80000
0007F80000
0007F80000
0007F00000
0007F00000
000FE00000
000FE00000
ENDCHAR
STARTCHAR 013C
ENCODING 316
SWIDTH 218 0
DWIDTH 21 0
BBX 11 89 4 -21
BITMAP
3FE0
3FE0
3FE0
3FE0
3FE0
3FE0
3FE0
3FE0
3FE0
3FE0
3FE0
3FE0
3FE0
3FE0
3FE0
3FE0
3FE0
3FE0
3FE0
3FE0
3FE0
3FE0
3FE0
3FE0
3FE0
3FE0
3FE0
3FE0
3FE0
3FE0
3FE0
3FE0
3FE0
3FE0
3FE0
3FE0
3FE0
3FE0
3FE0
3FE0
3FE0
3FE0
3FE0
3FE0
3FE0
3FE0
3FE0
3FE0
3FE0
3FE0
3FE0
3FE0
3FE0
3FE0
3FE0
3FE0
3FE0
3FE0
3FE0
3FE0
3FE0
3FE0
3FE0
3FE0
3FE0
3FE0
3FE0
0000
0000
0000
0000
0000
3FE0
3FE0
3FE0
3FE0
3FE0
3FE0
3FE0
3FE0
3FC0
7FC0
7F80
7F80
7F00
FF00
FE00
FE00
FC00
ENDCHAR
STARTCHAR 013D
ENCODING 317
SWIDTH 447 0
DWIDTH 43 0
BBX 37 67 7 0
BITMAP
FF801F8000
FF801F8000
FF801F8000
FF801F8000
FF801F8000
FF801F8000
FF801F8000
FF801F0000
FF801F0000
FF801F0000
FF801F0000
FF801F0000
FF801F0000
FF801F0000
FF801F0000
FF801E0000
FF80000000
FF80000000
FF80000000
FF80000000
FF80000000
FF80000000
FF80000000
FF80000000
FF80000000
FF80000000
FF80000000
FF80000000
FF80000000
FF80000000
FF80000000
FF80000000
FF80000000
FF80000000
FF80000000
FF80000000
FF80000000
FF80000000
FF80000000
FF80000000
FF80000000
FF80000000
FF80000000
FF80000000
FF80000000
FF80000000
FF80000000
FF80000000
FF80000000
FF80000000
FF80000000
FF80000000
FF80000000
FF80000000
FF80000000
FF80000000
FF80000000
FF80000000
FF80000000
FFFFFFFFF8
FFFFFFFFF8
FFFFFFFFF8
FFFFFFFFF8
FFFFFFFFF8
FFFFFFFFF8
FFFFFFFFF8
FFFFFFFFF8
ENDCHAR
STARTCHAR 013E
ENCODING 318
SWIDTH 239 0
DWIDTH 23 0
BBX 21 67 6 0
BITMAP
FF83F8
FF83F0
FF83F0
FF83F0
FF83F0
FF83F0
FF83F0
FF87F0
FF87F0
FF87E0
FF87E0
FF87E0
FF87E0
FF87E0
FF87E0
FF87E0
FF8000
FF8000
FF8000
FF8000
FF8000
FF8000
FF8000
FF8000
FF8000
FF8000
FF8000
FF8000
FF8000
FF8000
FF8000
FF8000
FF8000
FF8000
FF8000
FF8000
FF8000
FF8000
FF8000
FF8000
FF8000
FF8000
FF8000
FF8000
FF8000
FF8000
FF8000
FF8000
FF8000
FF8000
FF8000
FF8000
FF8000
FF8000
FF8000
FF8000
FF8000
FF8000
FF8000
FF8000
FF8000
FF8000
FF8000
FF8000
FF8000
FF8000
FF8000
ENDCHAR
STARTCHAR 013F
ENCODING 319
SWIDTH 447 0
DWIDTH 43 0
BBX 36 67 7 1
BITMAP
FF80000000
FF80000000
FF80000000
FF80000000
FF80000000
FF80000000
FF80000000
FF80000000
FF80000000
FF80000000
FF80000000
FF80000000
FF80000000
FF80000000
FF80000000
FF80000000
FF80000000
FF80000000
FF80000000
FF80000000
FF80000000
FF80000000
FF80000000
FF80000000
FF807FC000
FF807FC000
FF807FC000
FF807FC000
FF807FC000
FF807FC000
FF807FC000
FF807FC000
FF807FC000
FF80000000
FF80000000
FF80000000
FF80000000
FF80000000
FF80000000
FF80000000
FF80000000
FF80000000
FF80000000
FF80000000
FF80000000
FF80000000
FF80000000
FF80000000
FF80000000
FF80000000
FF80000000
FF80000000
FF80000000
FF80000000
FF80000000
FF80000000
FF80000000
FF80000000
FF80000000
FFFFFFFFF0
FFFFFFFFF0
FFFFFFFFF0
FFFFFFFFF0
FFFFFFFFF0
FFFFFFFFF0
FFFFFFFFF0
FFFFFFFFF0
ENDCHAR
STARTCHAR 0140
ENCODING 320
SWIDTH 260 0
DWIDTH 25 0
BBX 23 67 6 1
BITMAP
FF8000
FF8000
FF8000
FF8000
FF8000
FF8000
FF8000
FF8000
FF8000
FF8000
FF8000
FF8000
FF8000
FF8000
FF8000
FF8000
FF8000
FF8000
FF8000
FF8000
FF8000
FF8000
FF8000
FF8000
FF8000
FF8000
FF83FE
FF83FE
FF83FE
FF83FE
FF83FE
FF83FE
FF83FE
FF83FE
FF83FE
FF8000
FF8000
FF8000
FF8000
FF8000
FF8000
FF8000
FF8000
FF8000
FF8000
FF8000
FF8000
FF8000
FF8000
FF8000
FF8000
FF8000
FF8000
FF8000
FF8000
FF8000
FF8000
FF8000
FF8000
FF8000
FF8000
FF8000
FF8000
FF8000
FF8000
FF8000
FF8000
ENDCHAR
STARTCHAR 0141
ENCODING 321
SWIDTH 458 0
DWIDTH 44 0
BBX 41 67 2 1
BITMAP
07FE00000000
07FE00000000
07FE00000000
07FE00000000
07FE00000000
07FE00000000
07FE00000000
07FE00000000
07FE00000000
07FE00000000
07FE00000000
07FE00000000
07FE00000000
07FE00000000
07FE00000000
07FE00080000
07FE00180000
07FE00380000
07FE00F80000
07FE01F80000
07FE03F80000
07FE07F80000
07FE0FF80000
07FE1FE00000
07FE7FC00000
07FEFF800000
07FFFF000000
07FFFE000000
07FFFC000000
07FFF0000000
07FFE0000000
07FFC0000000
07FF80000000
07FF00000000
07FE00000000
0FFE00000000
1FFE00000000
3FFE00000000
7FFE00000000
FFFE00000000
FFFE00000000
FFFE00000000
FFFE00000000
F7FE00000000
E7FE00000000
87FE00000000
07FE00000000
07FE00000000
07FE00000000
07FE00000000
07FE00000000
07FE00000000
07FE00000000
07FE00000000
07FE00000000
07FE00000000
07FE00000000
07FE00000000
07FE00000000
07FFFFFFFF80
07FFFFFFFF80
07FFFFFFFF80
07FFFFFFFF80
07FFFFFFFF80
07FFFFFFFF80
07FFFFFFFF80
07FFFFFFFF80
ENDCHAR
STARTCHAR 0142
ENCODING 322
SWIDTH 229 0
DWIDTH 22 0
BBX 18 67 2 1
BITMAP
0FF800
0FF800
0FF800
0FF800
0FF800
0FF800
0FF800
0FF800
0FF800
0FF800
0FF800
0FF800
0FF800
0FF800
0FF800
0FF800
0FF800
0FF840
0FF8C0
0FF8C0
0FF9C0
0FFBC0
0FFFC0
0FFFC0
0FFFC0
0FFF80
0FFF00
0FFF00
0FFE00
0FFC00
0FF800
0FF800
0FF800
0FF800
1FF800
3FF800
3FF800
7FF800
FFF800
FFF800
FFF800
FFF800
EFF800
CFF800
8FF800
8FF800
0FF800
0FF800
0FF800
0FF800
0FF800
0FF800
0FF800
0FF800
0FF800
0FF800
0FF800
0FF800
0FF800
0FF800
0FF800
0FF800
0FF800
0FF800
0FF800
0FF800
0FF800
ENDCHAR
STARTCHAR 0143
ENCODING 323
SWIDTH 562 0
DWIDTH 54 0
BBX 41 80 7 0
BITMAP
0000003FC000
0000007F8000
000000FF0000
000001FC0000
000007F80000
00000FF00000
00001FE00000
00003F800000
00007F000000
0000FE000000
000000000000
000000000000
000000000000
FFE00000FF80
FFE00000FF80
FFE00000FF80
FFF00000FF80
FFF00000FF80
FFF80000FF80
FFF80000FF80
FFFC0000FF80
FFFC0000FF80
FFFC0000FF80
FFFE0000FF80
FFFE0000FF80
FFFF0000FF80
FFFF0000FF80
FFFF8000FF80
FFFF8000FF80
FFFF8000FF80
FFFFC000FF80
FFBFC000FF80
FFBFE000FF80
FF9FE000FF80
FF9FF000FF80
FF9FF000FF80
FF8FF800FF80
FF8FF800FF80
FF87F800FF80
FF87FC00FF80
FF83FC00FF80
FF83FE00FF80
FF81FE00FF80
FF81FF00FF80
FF81FF00FF80
FF80FF00FF80
FF80FF80FF80
FF807F80FF80
FF807FC0FF80
FF803FC0FF80
FF803FE0FF80
FF803FE0FF80
FF801FE0FF80
FF801FF0FF80
FF800FF0FF80
FF800FF8FF80
FF8007F8FF80
FF8007FCFF80
FF8007FCFF80
FF8003FCFF80
FF8003FEFF80
FF8001FEFF80
FF8001FFFF80
FF8000FFFF80
FF8000FFFF80
FF8000FFFF80
FF80007FFF80
FF80007FFF80
FF80003FFF80
FF80003FFF80
FF80001FFF80
FF80001FFF80
FF80001FFF80
FF80000FFF80
FF80000FFF80
FF800007FF80
FF800007FF80
FF800003FF80
FF800003FF80
FF800003FF80
ENDCHAR
STARTCHAR 0144
ENCODING 324
SWIDTH 468 0
DWIDTH 45 0
BBX 33 67 6 1
BITMAP
00000FF800
00001FF000
00001FE000
00003FC000
00007F8000
0000FF0000
0000FE0000
0001FC0000
0003FC0000
0007F80000
0007F00000
000FE00000
001FC00000
001F800000
0000000000
0000000000
0000000000
0000000000
0000000000
FFFFFFE000
FFFFFFF800
FFFFFFFC00
FFFFFFFE00
FFFFFFFF00
FFFFFFFF00
FFFFFFFF00
FFFFFFFF80
FF8001FF80
FF8000FF80
FF8000FF80
FF8000FF80
FF8000FF80
FF8000FF80
FF8000FF80
FF8000FF80
FF8000FF80
FF8000FF80
FF8000FF80
FF8000FF80
FF8000FF80
FF8000FF80
FF8000FF80
FF8000FF80
FF8000FF80
FF8000FF80
FF8000FF80
FF8000FF80
FF8000FF80
FF8000FF80
FF8000FF80
FF8000FF80
FF8000FF80
FF8000FF80
FF8000FF80
FF8000FF80
FF8000FF80
FF8000FF80
FF8000FF80
FF8000FF80
FF8000FF80
FF8000FF80
FF8000FF80
FF8000FF80
FF8000FF80
FF8000FF80
FF8000FF80
FF8000FF80
ENDCHAR
STARTCHAR 0145
ENCODING 325
SWIDTH 562 0
DWIDTH 54 0
BBX 40 89 7 -21
BITMAP
FFE00001FF
FFE00001FF
FFF00001FF
FFF00001FF
FFF00001FF
FFF80001FF
FFF80001FF
FFFC0001FF
FFFC0001FF
FFFC0001FF
FFFE0001FF
FFFE0001FF
FFFF0001FF
FFFF0001FF
FFFF0001FF
FFFF8001FF
FFFF8001FF
FFFFC001FF
FFBFC001FF
FFBFE001FF
FF9FE001FF
FF9FE001FF
FF9FF001FF
FF8FF001FF
FF8FF801FF
FF87F801FF
FF87F801FF
FF83FC01FF
FF83FC01FF
FF83FE01FF
FF81FE01FF
FF81FE01FF
FF80FF01FF
FF80FF01FF
FF807F81FF
FF807F81FF
FF807F81FF
FF803FC1FF
FF803FC1FF
FF801FE1FF
FF801FE1FF
FF801FF1FF
FF800FF1FF
FF800FF1FF
FF8007F9FF
FF8007F9FF
FF8003FDFF
FF8003FDFF
FF8003FDFF
FF8001FFFF
FF8001FFFF
FF8000FFFF
FF8000FFFF
FF80007FFF
FF80007FFF
FF80007FFF
FF80003FFF
FF80003FFF
FF80001FFF
FF80001FFF
FF80000FFF
FF80000FFF
FF80000FFF
FF800007FF
FF800007FF
FF800003FF
FF800003FF
0000000000
0000000000
0000000000
0000000000
0000000000
00000FF000
00000FF000
00000FF000
00000FF000
00000FF000
00000FF000
00000FF000
00000FF000
00001FE000
00001FE000
00001FC000
00003FC000
00003FC000
00007F8000
00007F8000
00007F0000
0000FF0000
ENDCHAR
STARTCHAR 0146
ENCODING 326
SWIDTH 468 0
DWIDTH 45 0
BBX 33 70 6 -22
BITMAP
FFFFFFE000
FFFFFFF800
FFFFFFFC00
FFFFFFFE00
FFFFFFFF00
FFFFFFFF00
FFFFFFFF00
FFFFFFFF80
FF8001FF80
FF8000FF80
FF8000FF80
FF8000FF80
FF8000FF80
FF8000FF80
FF8000FF80
FF8000FF80
FF8000FF80
FF8000FF80
FF8000FF80
FF8000FF80
FF8000FF80
FF8000FF80
FF8000FF80
FF8000FF80
FF8000FF80
FF8000FF80
FF8000FF80
FF8000FF80
FF8000FF80
FF8000FF80
FF8000FF80
FF8000FF80
FF8000FF80
FF8000FF80
FF8000FF80
FF8000FF80
FF8000FF80
FF8000FF80
FF8000FF80
FF8000FF80
FF8000FF80
FF8000FF80
FF8000FF80
FF8000FF80
FF8000FF80
FF8000FF80
FF8000FF80
FF8000FF80
0000000000
0000000000
0000000000
0000000000
0000000000
0003FC0000
0003FC0000
0003FC0000
0003FC0000
0003FC0000
0003FC0000
0003FC0000
0003FC0000
0007F80000
0007F80000
0007F00000
000FF00000
000FF00000
001FE00000
001FE00000
001FC00000
003FC00000
ENDCHAR
STARTCHAR 0147
ENCODING 327
SWIDTH 562 0
DWIDTH 54 0
BBX 41 80 7 0
BITMAP
00FE001FC000
007F003F8000
003F807F0000
001FC0FE0000
000FE3FC0000
0007F7F80000
0003FFF00000
0001FFE00000
0000FFC00000
00007F800000
000000000000
000000000000
000000000000
FFE00000FF80
FFE00000FF80
FFE00000FF80
FFF00000FF80
FFF00000FF80
FFF80000FF80
FFF80000FF80
FFFC0000FF80
FFFC0000FF80
FFFC0000FF80
FFFE0000FF80
FFFE0000FF80
FFFF0000FF80
FFFF0000FF80
FFFF8000FF80
FFFF8000FF80
FFFF8000FF80
FFFFC000FF80
FFBFC000FF80
FFBFE000FF80
FF9FE000FF80
FF9FF000FF80
FF9FF000FF80
FF8FF800FF80
FF8FF800FF80
FF87F800FF80
FF87FC00FF80
FF83FC00FF80
FF83FE00FF80
FF81FE00FF80
FF81FF00FF80
FF81FF00FF80
FF80FF00FF80
FF80FF80FF80
FF807F80FF80
FF807FC0FF80
FF803FC0FF80
FF803FE0FF80
FF803FE0FF80
FF801FE0FF80
FF801FF0FF80
FF800FF0FF80
FF800FF8FF80
FF8007F8FF80
FF8007FCFF80
FF8007FCFF80
FF8003FCFF80
FF8003FEFF80
FF8001FEFF80
FF8001FFFF80
FF8000FFFF80
FF8000FFFF80
FF8000FFFF80
FF80007FFF80
FF80007FFF80
FF80003FFF80
FF80003FFF80
FF80001FFF80
FF80001FFF80
FF80001FFF80
FF80000FFF80
FF80000FFF80
FF800007FF80
FF800007FF80
FF800003FF80
FF800003FF80
FF800001FF80
ENDCHAR
STARTCHAR 0148
ENCODING 328
SWIDTH 468 0
DWIDTH 45 0
BBX 33 67 6 1
BITMAP
1FE003F000
0FE007F000
07F00FE000
03F80FC000
03F81FC000
01FC3F8000
00FE7F0000
00FF7F0000
007FFE0000
003FFC0000
003FFC0000
001FF80000
000FF00000
0007F00000
0000000000
0000000000
0000000000
0000000000
0000000000
FFFFFFE000
FFFFFFF800
FFFFFFFC00
FFFFFFFE00
FFFFFFFF00
FFFFFFFF00
FFFFFFFF00
FFFFFFFF80
FF8001FF80
FF8000FF80
FF8000FF80
FF8000FF80
FF8000FF80
FF8000FF80
FF8000FF80
FF8000FF80
FF8000FF80
FF8000FF80
FF8000FF80
FF8000FF80
FF8000FF80
FF8000FF80
FF8000FF80
FF8000FF80
FF8000FF80
FF8000FF80
FF8000FF80
FF8000FF80
FF8000FF80
FF8000FF80
FF8000FF80
FF8000FF80
FF8000FF80
FF8000FF80
FF8000FF80
FF8000FF80
FF8000FF80
FF8000FF80
FF8000FF80
FF8000FF80
FF8000FF80
FF8000FF80
FF8000FF80
FF8000FF80
FF8000FF80
FF8000FF80
FF8000FF80
FF8000FF80
ENDCHAR
STARTCHAR 0149
ENCODING 329
SWIDTH 468 0
DWIDTH 45 0
BBX 33 67 6 0
BITMAP
FF00000000
FE00000000
FE00000000
FE00000000
FE00000000
FE00000000
FE00000000
FE00000000
FC00000000
FC00000000
FC00000000
FC00000000
FC00000000
FC00000000
F800000000
F800000000
0000000000
0000000000
0000000000
FFFFFFE000
FFFFFFF800
FFFFFFFC00
FFFFFFFE00
FFFFFFFF00
FFFFFFFF00
FFFFFFFF00
FFFFFFFF80
FF0001FF80
FF0000FF80
FF0000FF80
FF0000FF80
FF0000FF80
FF0000FF80
FF0000FF80
FF0000FF80
FF0000FF80
FF0000FF80
FF0000FF80
FF0000FF80
FF0000FF80
FF0000FF80
FF0000FF80
FF0000FF80
FF0000FF80
FF0000FF80
FF0000FF80
FF0000FF80
FF0000FF80
FF0000FF80
FF0000FF80
FF0000FF80
FF0000FF80
FF0000FF80
FF0000FF80
FF0000FF80
FF0000FF80
FF0000FF80
FF0000FF80
FF0000FF80
FF0000FF80
FF0000FF80
FF0000FF80
FF0000FF80
FF0000FF80
FF0000FF80
FF0000FF80
FF0000FF80
ENDCHAR
STARTCHAR 014A
ENCODING 330
SWIDTH 562 0
DWIDTH 54 0
BBX 40 81 7 -13
BITMAP
FFE00001FF
FFE00001FF
FFE00001FF
FFF00001FF
FFF00001FF
FFF80001FF
FFF80001FF
FFF80001FF
FFFC0001FF
FFFC0001FF
FFFE0001FF
FFFE0001FF
FFFF0001FF
FFFF0001FF
FFFF0001FF
FFFF8001FF
FFFF8001FF
FFFFC001FF
FFBFC001FF
FFBFC001FF
FF9FE001FF
FF9FE001FF
FF8FF001FF
FF8FF001FF
FF8FF001FF
FF87F801FF
FF87F801FF
FF83FC01FF
FF83FC01FF
FF81FE01FF
FF81FE01FF
FF81FE01FF
FF80FF01FF
FF80FF01FF
FF807F81FF
FF807F81FF
FF803F81FF
FF803FC1FF
FF801FC1FF
FF801FE1FF
FF801FE1FF
FF800FE1FF
FF800FF1FF
FF8007F1FF
FF8007F9FF
FF8003F9FF
FF8003FDFF
FF8003FDFF
FF8001FDFF
FF8001FFFF
FF8000FFFF
FF8000FFFF
FF80007FFF
FF80007FFF
FF80003FFF
FF80003FFF
FF80003FFF
FF80001FFF
FF80001FFF
FF80000FFF
FF80000FFF
FF800007FF
FF800007FF
FF800007FF
FF800003FF
FF800003FF
FF800001FF
00000001FF
00000001FE
00000003FE
00000003FE
00000003FC
00000003FC
00000003FC
00000007F8
00000007F8
00000007F0
00000007F0
00000007F0
0000000FE0
0000000FE0
ENDCHAR
STARTCHAR 014B
ENCODING 331
SWIDTH 468 0
DWIDTH 45 0
BBX 33 62 6 -14
BITMAP
FFFFFFE000
FFFFFFF800
FFFFFFFC00
FFFFFFFE00
FFFFFFFF00
FFFFFFFF00
FFFFFFFF00
FFFFFFFF80
FF8001FF80
FF8000FF80
FF8000FF80
FF8000FF80
FF8000FF80
FF8000FF80
FF8000FF80
FF8000FF80
FF8000FF80
FF8000FF80
FF8000FF80
FF8000FF80
FF8000FF80
FF8000FF80
FF8000FF80
FF8000FF80
FF8000FF80
FF8000FF80
FF8000FF80
FF8000FF80
FF8000FF80
FF8000FF80
FF8000FF80
FF8000FF80
FF8000FF80
FF8000FF80
FF8000FF80
FF8000FF80
FF8000FF80
FF8000FF80
FF8000FF80
FF8000FF80
FF8000FF80
FF8000FF80
FF8000FF80
FF8000FF80
FF8000FF80
FF8000FF80
FF8000FF80
FF8000FF80
000000FF80
000000FF00
000001FF00
000001FF00
000001FE00
000001FE00
000003FE00
000003FC00
000003FC00
000003FC00
000007F800
000007F800
000007F800
000007F000
ENDCHAR
STARTCHAR 014C
ENCODING 332
SWIDTH 552 0
DWIDTH 53 0
BBX 39 78 7 0
BITMAP
007FFFFC00
007FFFFC00
007FFFFC00
007FFFFC00
007FFFFC00
007FFFFC00
0000000000
0000000000
0000000000
0000000000
0000000000
03FFFFFF80
0FFFFFFFE0
1FFFFFFFF0
3FFFFFFFF8
7FFFFFFFFC
7FFFFFFFFC
7FFFFFFFFC
FFFFFFFFFE
FFF0001FFE
FFC00007FE
FF800003FE
FF800003FE
FF800003FE
FF800003FE
FF800003FE
FF800003FE
FF800003FE
FF800003FE
FF800003FE
FF800003FE
FF800003FE
FF800003FE
FF800003FE
FF800003FE
FF800003FE
FF800003FE
FF800003FE
FF800003FE
FF800003FE
FF800003FE
FF800003FE
FF800003FE
FF800003FE
FF800003FE
FF800003FE
FF800003FE
FF800003FE
FF800003FE
FF800003FE
FF800003FE
FF800003FE
FF800003FE
FF800003FE
FF800003FE
FF800003FE
FF800003FE
FF800003FE
FF800003FE
FF800003FE
FF800003FE
FF800003FE
FF800003FE
FF800003FE
FF800003FE
FF800003FE
FF800003FE
FF800003FE
FFC00007FE
FFF0001FFE
FFFFFFFFFE
7FFFFFFFFC
7FFFFFFFFC
7FFFFFFFFC
3FFFFFFFF8
1FFFFFFFF0
0FFFFFFFE0
03FFFFFF80
ENDCHAR
STARTCHAR 014D
ENCODING 333
SWIDTH 468 0
DWIDTH 45 0
BBX 33 62 6 0
BITMAP
03FFFFE000
03FFFFE000
03FFFFE000
03FFFFE000
03FFFFE000
03FFFFE000
0000000000
0000000000
0000000000
0000000000
0000000000
0000000000
0000000000
0000000000
01FFFFE000
0FFFFFF800
1FFFFFFC00
3FFFFFFE00
7FFFFFFF00
7FFFFFFF00
7FFFFFFF00
FFFFFFFF80
FFC001FF80
FF8000FF80
FF8000FF80
FF8000FF80
FF8000FF80
FF8000FF80
FF8000FF80
FF8000FF80
FF8000FF80
FF8000FF80
FF8000FF80
FF8000FF80
FF8000FF80
FF8000FF80
FF8000FF80
FF8000FF80
FF8000FF80
FF8000FF80
FF8000FF80
FF8000FF80
FF8000FF80
FF8000FF80
FF8000FF80
FF8000FF80
FF8000FF80
FF8000FF80
FF8000FF80
FF8000FF80
FF8000FF80
FF8000FF80
FF8000FF80
FFC001FF80
FFFFFFFF80
7FFFFFFF00
7FFFFFFF00
7FFFFFFF00
3FFFFFFE00
1FFFFFFC00
0FFFFFF800
03FFFFC000
ENDCHAR
STARTCHAR 014E
ENCODING 334
SWIDTH 552 0
DWIDTH 53 0
BBX 39 80 7 0
BITMAP
00FC003F00
00FC003F00
00FC003F00
00FC003F00
00FE007F00
00FFFFFF00
007FFFFE00
007FFFFE00
003FFFFC00
000FFFF000
0000000000
0000000000
0000000000
03FFFFFF80
0FFFFFFFE0
1FFFFFFFF0
3FFFFFFFF8
7FFFFFFFFC
7FFFFFFFFC
7FFFFFFFFC
FFFFFFFFFE
FFF0001FFE
FFC00007FE
FF800003FE
FF800003FE
FF800003FE
FF800003FE
FF800003FE
FF800003FE
FF800003FE
FF800003FE
FF800003FE
FF800003FE
FF800003FE
FF800003FE
FF800003FE
FF800003FE
FF800003FE
FF800003FE
FF800003FE
FF800003FE
FF800003FE
FF800003FE
FF800003FE
FF800003FE
FF800003FE
FF800003FE
FF800003FE
FF800003FE
FF800003FE
FF800003FE
FF800003FE
FF800003FE
FF800003FE
FF800003FE
FF800003FE
FF800003FE
FF800003FE
FF800003FE
FF800003FE
FF800003FE
FF800003FE
FF800003FE
FF800003FE
FF800003FE
FF800003FE
FF800003FE
FF800003FE
FF800003FE
FF800003FE
FFC00007FE
FFF0001FFE
FFFFFFFFFE
7FFFFFFFFC
7FFFFFFFFC
7FFFFFFFFC
3FFFFFFFF8
1FFFFFFFF0
0FFFFFFFE0
03FFFFFF80
ENDCHAR
STARTCHAR 014F
ENCODING 335
SWIDTH 468 0
DWIDTH 45 0
BBX 33 67 6 1
BITMAP
0F8003F000
0F8003F000
0F8003F000
0F8003F000
0F8003F000
0FC007F000
0FE00FF000
0FFFFFF000
07FFFFE000
07FFFFE000
03FFFFC000
01FFFF8000
007FFE0000
0000000000
0000000000
0000000000
0000000000
0000000000
0000000000
01FFFFE000
0FFFFFF800
1FFFFFFC00
3FFFFFFE00
7FFFFFFF00
7FFFFFFF00
7FFFFFFF00
FFFFFFFF80
FFC007FF80
FF8003FF80
FF8003FF80
FF8003FF80
FF8003FF80
FF8003FF80
FF8003FF80
FF8003FF80
FF8003FF80
FF8003FF80
FF8003FF80
FF8003FF80
FF8003FF80
FF8003FF80
FF8003FF80
FF8003FF80
FF8003FF80
FF8003FF80
FF8003FF80
FF8003FF80
FF8003FF80
FF8003FF80
FF8003FF80
FF8003FF80
FF8003FF80
FF8003FF80
FF8003FF80
FF8003FF80
FF8003FF80
FF8003FF80
FF8003FF80
FFC007FF80
FFFFFFFF80
7FFFFFFF00
7FFFFFFF00
7FFFFFFF00
3FFFFFFE00
1FFFFFFC00
0FFFFFF800
03FFFFC000
ENDCHAR
ENDFONT
